G04 #@! TF.GenerationSoftware,KiCad,Pcbnew,(5.1.5-0-10_14)*
G04 #@! TF.CreationDate,2020-04-14T14:00:02+01:00*
G04 #@! TF.ProjectId,RS422,52533432-322e-46b6-9963-61645f706362,rev?*
G04 #@! TF.SameCoordinates,Original*
G04 #@! TF.FileFunction,Soldermask,Top*
G04 #@! TF.FilePolarity,Negative*
%FSLAX46Y46*%
G04 Gerber Fmt 4.6, Leading zero omitted, Abs format (unit mm)*
G04 Created by KiCad (PCBNEW (5.1.5-0-10_14)) date 2020-04-14 14:00:02*
%MOMM*%
%LPD*%
G04 APERTURE LIST*
%ADD10C,0.100000*%
G04 APERTURE END LIST*
D10*
G36*
X130471000Y-101231000D02*
G01*
X128769000Y-101231000D01*
X128769000Y-98529000D01*
X130471000Y-98529000D01*
X130471000Y-101231000D01*
G37*
G36*
X122254239Y-94391467D02*
G01*
X122568282Y-94453934D01*
X123159926Y-94699001D01*
X123692392Y-95054784D01*
X124145216Y-95507608D01*
X124500999Y-96040074D01*
X124746066Y-96631718D01*
X124746066Y-96631719D01*
X124856135Y-97185070D01*
X124871000Y-97259804D01*
X124871000Y-97900196D01*
X124746066Y-98528282D01*
X124500999Y-99119926D01*
X124145216Y-99652392D01*
X123692392Y-100105216D01*
X123159926Y-100460999D01*
X122568282Y-100706066D01*
X122254239Y-100768533D01*
X121940197Y-100831000D01*
X121299803Y-100831000D01*
X120985761Y-100768533D01*
X120671718Y-100706066D01*
X120080074Y-100460999D01*
X119547608Y-100105216D01*
X119094784Y-99652392D01*
X118739001Y-99119926D01*
X118493934Y-98528282D01*
X118369000Y-97900196D01*
X118369000Y-97259804D01*
X118383866Y-97185070D01*
X118493934Y-96631719D01*
X118493934Y-96631718D01*
X118739001Y-96040074D01*
X119094784Y-95507608D01*
X119547608Y-95054784D01*
X120080074Y-94699001D01*
X120671718Y-94453934D01*
X120985761Y-94391467D01*
X121299803Y-94329000D01*
X121940197Y-94329000D01*
X122254239Y-94391467D01*
G37*
G36*
X115334929Y-95543190D02*
G01*
X115780982Y-95727951D01*
X115780984Y-95727952D01*
X116182421Y-95996184D01*
X116523816Y-96337579D01*
X116720354Y-96631718D01*
X116792049Y-96739018D01*
X116976810Y-97185071D01*
X117071000Y-97658596D01*
X117071000Y-98141404D01*
X116976810Y-98614929D01*
X116792049Y-99060982D01*
X116792048Y-99060984D01*
X116523816Y-99462421D01*
X116182421Y-99803816D01*
X115780984Y-100072048D01*
X115780983Y-100072049D01*
X115780982Y-100072049D01*
X115334929Y-100256810D01*
X114861404Y-100351000D01*
X114378596Y-100351000D01*
X113905071Y-100256810D01*
X113459018Y-100072049D01*
X113459017Y-100072049D01*
X113459016Y-100072048D01*
X113057579Y-99803816D01*
X112716184Y-99462421D01*
X112447952Y-99060984D01*
X112447951Y-99060982D01*
X112263190Y-98614929D01*
X112169000Y-98141404D01*
X112169000Y-97658596D01*
X112263190Y-97185071D01*
X112447951Y-96739018D01*
X112519647Y-96631718D01*
X112716184Y-96337579D01*
X113057579Y-95996184D01*
X113459016Y-95727952D01*
X113459018Y-95727951D01*
X113905071Y-95543190D01*
X114378596Y-95449000D01*
X114861404Y-95449000D01*
X115334929Y-95543190D01*
G37*
G36*
X130471000Y-97631000D02*
G01*
X128769000Y-97631000D01*
X128769000Y-94929000D01*
X130471000Y-94929000D01*
X130471000Y-97631000D01*
G37*
G36*
X134733512Y-91343927D02*
G01*
X134882812Y-91373624D01*
X135046784Y-91441544D01*
X135194354Y-91540147D01*
X135319853Y-91665646D01*
X135418456Y-91813216D01*
X135486376Y-91977188D01*
X135521000Y-92151259D01*
X135521000Y-92328741D01*
X135486376Y-92502812D01*
X135418456Y-92666784D01*
X135319853Y-92814354D01*
X135194354Y-92939853D01*
X135046784Y-93038456D01*
X134882812Y-93106376D01*
X134733512Y-93136073D01*
X134708742Y-93141000D01*
X134531258Y-93141000D01*
X134506488Y-93136073D01*
X134357188Y-93106376D01*
X134193216Y-93038456D01*
X134045646Y-92939853D01*
X133920147Y-92814354D01*
X133821544Y-92666784D01*
X133753624Y-92502812D01*
X133719000Y-92328741D01*
X133719000Y-92151259D01*
X133753624Y-91977188D01*
X133821544Y-91813216D01*
X133920147Y-91665646D01*
X134045646Y-91540147D01*
X134193216Y-91441544D01*
X134357188Y-91373624D01*
X134506488Y-91343927D01*
X134531258Y-91339000D01*
X134708742Y-91339000D01*
X134733512Y-91343927D01*
G37*
G36*
X130505400Y-93040400D02*
G01*
X128219000Y-93040400D01*
X128219000Y-92379600D01*
X130505400Y-92379600D01*
X130505400Y-93040400D01*
G37*
G36*
X125781000Y-93040400D02*
G01*
X123494600Y-93040400D01*
X123494600Y-92379600D01*
X125781000Y-92379600D01*
X125781000Y-93040400D01*
G37*
G36*
X130505400Y-91770400D02*
G01*
X128219000Y-91770400D01*
X128219000Y-91109600D01*
X130505400Y-91109600D01*
X130505400Y-91770400D01*
G37*
G36*
X125781000Y-91770400D02*
G01*
X123494600Y-91770400D01*
X123494600Y-91109600D01*
X125781000Y-91109600D01*
X125781000Y-91770400D01*
G37*
G36*
X116691000Y-91736000D02*
G01*
X115089000Y-91736000D01*
X115089000Y-90134000D01*
X116691000Y-90134000D01*
X116691000Y-91736000D01*
G37*
G36*
X134733512Y-88803927D02*
G01*
X134882812Y-88833624D01*
X135046784Y-88901544D01*
X135194354Y-89000147D01*
X135319853Y-89125646D01*
X135418456Y-89273216D01*
X135486376Y-89437188D01*
X135521000Y-89611259D01*
X135521000Y-89788741D01*
X135486376Y-89962812D01*
X135418456Y-90126784D01*
X135319853Y-90274354D01*
X135194354Y-90399853D01*
X135046784Y-90498456D01*
X134882812Y-90566376D01*
X134733512Y-90596073D01*
X134708742Y-90601000D01*
X134531258Y-90601000D01*
X134506488Y-90596073D01*
X134357188Y-90566376D01*
X134193216Y-90498456D01*
X134045646Y-90399853D01*
X133920147Y-90274354D01*
X133821544Y-90126784D01*
X133753624Y-89962812D01*
X133719000Y-89788741D01*
X133719000Y-89611259D01*
X133753624Y-89437188D01*
X133821544Y-89273216D01*
X133920147Y-89125646D01*
X134045646Y-89000147D01*
X134193216Y-88901544D01*
X134357188Y-88833624D01*
X134506488Y-88803927D01*
X134531258Y-88799000D01*
X134708742Y-88799000D01*
X134733512Y-88803927D01*
G37*
G36*
X130505400Y-90500400D02*
G01*
X128219000Y-90500400D01*
X128219000Y-89839600D01*
X130505400Y-89839600D01*
X130505400Y-90500400D01*
G37*
G36*
X125781000Y-90500400D02*
G01*
X123494600Y-90500400D01*
X123494600Y-89839600D01*
X125781000Y-89839600D01*
X125781000Y-90500400D01*
G37*
G36*
X113583642Y-88779781D02*
G01*
X113713632Y-88833625D01*
X113729416Y-88840163D01*
X113860608Y-88927822D01*
X113972178Y-89039392D01*
X114029811Y-89125647D01*
X114059838Y-89170586D01*
X114120219Y-89316358D01*
X114151000Y-89471107D01*
X114151000Y-89628893D01*
X114120219Y-89783642D01*
X114097040Y-89839600D01*
X114059837Y-89929416D01*
X113972178Y-90060608D01*
X113860608Y-90172178D01*
X113729416Y-90259837D01*
X113729415Y-90259838D01*
X113729414Y-90259838D01*
X113583642Y-90320219D01*
X113428893Y-90351000D01*
X113271107Y-90351000D01*
X113116358Y-90320219D01*
X112970586Y-90259838D01*
X112970585Y-90259838D01*
X112970584Y-90259837D01*
X112839392Y-90172178D01*
X112727822Y-90060608D01*
X112640163Y-89929416D01*
X112602960Y-89839600D01*
X112579781Y-89783642D01*
X112549000Y-89628893D01*
X112549000Y-89471107D01*
X112579781Y-89316358D01*
X112640162Y-89170586D01*
X112670189Y-89125647D01*
X112727822Y-89039392D01*
X112839392Y-88927822D01*
X112970584Y-88840163D01*
X112986368Y-88833625D01*
X113116358Y-88779781D01*
X113271107Y-88749000D01*
X113428893Y-88749000D01*
X113583642Y-88779781D01*
G37*
G36*
X130505400Y-89230400D02*
G01*
X128219000Y-89230400D01*
X128219000Y-88569600D01*
X130505400Y-88569600D01*
X130505400Y-89230400D01*
G37*
G36*
X125781000Y-89230400D02*
G01*
X123494600Y-89230400D01*
X123494600Y-88569600D01*
X125781000Y-88569600D01*
X125781000Y-89230400D01*
G37*
G36*
X116123642Y-87394781D02*
G01*
X116269414Y-87455162D01*
X116269416Y-87455163D01*
X116400608Y-87542822D01*
X116512178Y-87654392D01*
X116565606Y-87734354D01*
X116599838Y-87785586D01*
X116660219Y-87931358D01*
X116691000Y-88086107D01*
X116691000Y-88243893D01*
X116660219Y-88398642D01*
X116599838Y-88544414D01*
X116599837Y-88544416D01*
X116512178Y-88675608D01*
X116400608Y-88787178D01*
X116269416Y-88874837D01*
X116269415Y-88874838D01*
X116269414Y-88874838D01*
X116123642Y-88935219D01*
X115968893Y-88966000D01*
X115811107Y-88966000D01*
X115656358Y-88935219D01*
X115510586Y-88874838D01*
X115510585Y-88874838D01*
X115510584Y-88874837D01*
X115379392Y-88787178D01*
X115267822Y-88675608D01*
X115180163Y-88544416D01*
X115180162Y-88544414D01*
X115119781Y-88398642D01*
X115089000Y-88243893D01*
X115089000Y-88086107D01*
X115119781Y-87931358D01*
X115180162Y-87785586D01*
X115214394Y-87734354D01*
X115267822Y-87654392D01*
X115379392Y-87542822D01*
X115510584Y-87455163D01*
X115510586Y-87455162D01*
X115656358Y-87394781D01*
X115811107Y-87364000D01*
X115968893Y-87364000D01*
X116123642Y-87394781D01*
G37*
G36*
X134733512Y-86263927D02*
G01*
X134882812Y-86293624D01*
X135046784Y-86361544D01*
X135194354Y-86460147D01*
X135319853Y-86585646D01*
X135418456Y-86733216D01*
X135486376Y-86897188D01*
X135521000Y-87071259D01*
X135521000Y-87248741D01*
X135486376Y-87422812D01*
X135418456Y-87586784D01*
X135319853Y-87734354D01*
X135194354Y-87859853D01*
X135046784Y-87958456D01*
X134882812Y-88026376D01*
X134733512Y-88056073D01*
X134708742Y-88061000D01*
X134531258Y-88061000D01*
X134506488Y-88056073D01*
X134357188Y-88026376D01*
X134193216Y-87958456D01*
X134045646Y-87859853D01*
X133920147Y-87734354D01*
X133821544Y-87586784D01*
X133753624Y-87422812D01*
X133719000Y-87248741D01*
X133719000Y-87071259D01*
X133753624Y-86897188D01*
X133821544Y-86733216D01*
X133920147Y-86585646D01*
X134045646Y-86460147D01*
X134193216Y-86361544D01*
X134357188Y-86293624D01*
X134506488Y-86263927D01*
X134531258Y-86259000D01*
X134708742Y-86259000D01*
X134733512Y-86263927D01*
G37*
G36*
X125781000Y-87960400D02*
G01*
X123494600Y-87960400D01*
X123494600Y-87299600D01*
X125781000Y-87299600D01*
X125781000Y-87960400D01*
G37*
G36*
X130505400Y-87960400D02*
G01*
X128219000Y-87960400D01*
X128219000Y-87299600D01*
X130505400Y-87299600D01*
X130505400Y-87960400D01*
G37*
G36*
X113583642Y-86009781D02*
G01*
X113729414Y-86070162D01*
X113729416Y-86070163D01*
X113860608Y-86157822D01*
X113972178Y-86269392D01*
X114059837Y-86400584D01*
X114059838Y-86400586D01*
X114120219Y-86546358D01*
X114151000Y-86701107D01*
X114151000Y-86858893D01*
X114120219Y-87013642D01*
X114096353Y-87071259D01*
X114059837Y-87159416D01*
X113972178Y-87290608D01*
X113860608Y-87402178D01*
X113729416Y-87489837D01*
X113729415Y-87489838D01*
X113729414Y-87489838D01*
X113583642Y-87550219D01*
X113428893Y-87581000D01*
X113271107Y-87581000D01*
X113116358Y-87550219D01*
X112970586Y-87489838D01*
X112970585Y-87489838D01*
X112970584Y-87489837D01*
X112839392Y-87402178D01*
X112727822Y-87290608D01*
X112640163Y-87159416D01*
X112603647Y-87071259D01*
X112579781Y-87013642D01*
X112549000Y-86858893D01*
X112549000Y-86701107D01*
X112579781Y-86546358D01*
X112640162Y-86400586D01*
X112640163Y-86400584D01*
X112727822Y-86269392D01*
X112839392Y-86157822D01*
X112970584Y-86070163D01*
X112970586Y-86070162D01*
X113116358Y-86009781D01*
X113271107Y-85979000D01*
X113428893Y-85979000D01*
X113583642Y-86009781D01*
G37*
G36*
X125781000Y-86690400D02*
G01*
X123494600Y-86690400D01*
X123494600Y-86029600D01*
X125781000Y-86029600D01*
X125781000Y-86690400D01*
G37*
G36*
X130505400Y-86690400D02*
G01*
X128219000Y-86690400D01*
X128219000Y-86029600D01*
X130505400Y-86029600D01*
X130505400Y-86690400D01*
G37*
G36*
X116123642Y-84624781D02*
G01*
X116269414Y-84685162D01*
X116269416Y-84685163D01*
X116400608Y-84772822D01*
X116512178Y-84884392D01*
X116599837Y-85015584D01*
X116599838Y-85015586D01*
X116660219Y-85161358D01*
X116691000Y-85316107D01*
X116691000Y-85473893D01*
X116660219Y-85628642D01*
X116599838Y-85774414D01*
X116599837Y-85774416D01*
X116512178Y-85905608D01*
X116400608Y-86017178D01*
X116269416Y-86104837D01*
X116269415Y-86104838D01*
X116269414Y-86104838D01*
X116123642Y-86165219D01*
X115968893Y-86196000D01*
X115811107Y-86196000D01*
X115656358Y-86165219D01*
X115510586Y-86104838D01*
X115510585Y-86104838D01*
X115510584Y-86104837D01*
X115379392Y-86017178D01*
X115267822Y-85905608D01*
X115180163Y-85774416D01*
X115180162Y-85774414D01*
X115119781Y-85628642D01*
X115089000Y-85473893D01*
X115089000Y-85316107D01*
X115119781Y-85161358D01*
X115180162Y-85015586D01*
X115180163Y-85015584D01*
X115267822Y-84884392D01*
X115379392Y-84772822D01*
X115510584Y-84685163D01*
X115510586Y-84685162D01*
X115656358Y-84624781D01*
X115811107Y-84594000D01*
X115968893Y-84594000D01*
X116123642Y-84624781D01*
G37*
G36*
X134733512Y-83723927D02*
G01*
X134882812Y-83753624D01*
X135046784Y-83821544D01*
X135194354Y-83920147D01*
X135319853Y-84045646D01*
X135418456Y-84193216D01*
X135486376Y-84357188D01*
X135516073Y-84506488D01*
X135518882Y-84520608D01*
X135521000Y-84531259D01*
X135521000Y-84708741D01*
X135486376Y-84882812D01*
X135418456Y-85046784D01*
X135319853Y-85194354D01*
X135194354Y-85319853D01*
X135046784Y-85418456D01*
X134882812Y-85486376D01*
X134733512Y-85516073D01*
X134708742Y-85521000D01*
X134531258Y-85521000D01*
X134506488Y-85516073D01*
X134357188Y-85486376D01*
X134193216Y-85418456D01*
X134045646Y-85319853D01*
X133920147Y-85194354D01*
X133821544Y-85046784D01*
X133753624Y-84882812D01*
X133719000Y-84708741D01*
X133719000Y-84531259D01*
X133721119Y-84520608D01*
X133723927Y-84506488D01*
X133753624Y-84357188D01*
X133821544Y-84193216D01*
X133920147Y-84045646D01*
X134045646Y-83920147D01*
X134193216Y-83821544D01*
X134357188Y-83753624D01*
X134506488Y-83723927D01*
X134531258Y-83719000D01*
X134708742Y-83719000D01*
X134733512Y-83723927D01*
G37*
G36*
X130505400Y-85420400D02*
G01*
X128219000Y-85420400D01*
X128219000Y-84759600D01*
X130505400Y-84759600D01*
X130505400Y-85420400D01*
G37*
G36*
X125781000Y-85420400D02*
G01*
X123494600Y-85420400D01*
X123494600Y-84759600D01*
X125781000Y-84759600D01*
X125781000Y-85420400D01*
G37*
G36*
X113583642Y-83239781D02*
G01*
X113729414Y-83300162D01*
X113729416Y-83300163D01*
X113860608Y-83387822D01*
X113972178Y-83499392D01*
X114059837Y-83630584D01*
X114059838Y-83630586D01*
X114120219Y-83776358D01*
X114151000Y-83931107D01*
X114151000Y-84088893D01*
X114120219Y-84243642D01*
X114073186Y-84357189D01*
X114059837Y-84389416D01*
X113972178Y-84520608D01*
X113860608Y-84632178D01*
X113729416Y-84719837D01*
X113729415Y-84719838D01*
X113729414Y-84719838D01*
X113583642Y-84780219D01*
X113428893Y-84811000D01*
X113271107Y-84811000D01*
X113116358Y-84780219D01*
X112970586Y-84719838D01*
X112970585Y-84719838D01*
X112970584Y-84719837D01*
X112839392Y-84632178D01*
X112727822Y-84520608D01*
X112640163Y-84389416D01*
X112626814Y-84357189D01*
X112579781Y-84243642D01*
X112549000Y-84088893D01*
X112549000Y-83931107D01*
X112579781Y-83776358D01*
X112640162Y-83630586D01*
X112640163Y-83630584D01*
X112727822Y-83499392D01*
X112839392Y-83387822D01*
X112970584Y-83300163D01*
X112970586Y-83300162D01*
X113116358Y-83239781D01*
X113271107Y-83209000D01*
X113428893Y-83209000D01*
X113583642Y-83239781D01*
G37*
G36*
X130505400Y-84150400D02*
G01*
X128219000Y-84150400D01*
X128219000Y-83489600D01*
X130505400Y-83489600D01*
X130505400Y-84150400D01*
G37*
G36*
X125781000Y-84150400D02*
G01*
X123494600Y-84150400D01*
X123494600Y-83489600D01*
X125781000Y-83489600D01*
X125781000Y-84150400D01*
G37*
G36*
X116123642Y-81854781D02*
G01*
X116269414Y-81915162D01*
X116269416Y-81915163D01*
X116400608Y-82002822D01*
X116512178Y-82114392D01*
X116599837Y-82245584D01*
X116599838Y-82245586D01*
X116660219Y-82391358D01*
X116691000Y-82546107D01*
X116691000Y-82703893D01*
X116660219Y-82858642D01*
X116609536Y-82981000D01*
X116599837Y-83004416D01*
X116512178Y-83135608D01*
X116400608Y-83247178D01*
X116269416Y-83334837D01*
X116269415Y-83334838D01*
X116269414Y-83334838D01*
X116123642Y-83395219D01*
X115968893Y-83426000D01*
X115811107Y-83426000D01*
X115656358Y-83395219D01*
X115510586Y-83334838D01*
X115510585Y-83334838D01*
X115510584Y-83334837D01*
X115379392Y-83247178D01*
X115267822Y-83135608D01*
X115180163Y-83004416D01*
X115170464Y-82981000D01*
X115119781Y-82858642D01*
X115089000Y-82703893D01*
X115089000Y-82546107D01*
X115119781Y-82391358D01*
X115180162Y-82245586D01*
X115180163Y-82245584D01*
X115267822Y-82114392D01*
X115379392Y-82002822D01*
X115510584Y-81915163D01*
X115510586Y-81915162D01*
X115656358Y-81854781D01*
X115811107Y-81824000D01*
X115968893Y-81824000D01*
X116123642Y-81854781D01*
G37*
G36*
X135521000Y-82981000D02*
G01*
X133719000Y-82981000D01*
X133719000Y-81179000D01*
X135521000Y-81179000D01*
X135521000Y-82981000D01*
G37*
G36*
X113583642Y-80469781D02*
G01*
X113729414Y-80530162D01*
X113729416Y-80530163D01*
X113860608Y-80617822D01*
X113972178Y-80729392D01*
X114059837Y-80860584D01*
X114059838Y-80860586D01*
X114120219Y-81006358D01*
X114151000Y-81161107D01*
X114151000Y-81318893D01*
X114120219Y-81473642D01*
X114059838Y-81619414D01*
X114059837Y-81619416D01*
X113972178Y-81750608D01*
X113860608Y-81862178D01*
X113729416Y-81949837D01*
X113729415Y-81949838D01*
X113729414Y-81949838D01*
X113583642Y-82010219D01*
X113428893Y-82041000D01*
X113271107Y-82041000D01*
X113116358Y-82010219D01*
X112970586Y-81949838D01*
X112970585Y-81949838D01*
X112970584Y-81949837D01*
X112839392Y-81862178D01*
X112727822Y-81750608D01*
X112640163Y-81619416D01*
X112640162Y-81619414D01*
X112579781Y-81473642D01*
X112549000Y-81318893D01*
X112549000Y-81161107D01*
X112579781Y-81006358D01*
X112640162Y-80860586D01*
X112640163Y-80860584D01*
X112727822Y-80729392D01*
X112839392Y-80617822D01*
X112970584Y-80530163D01*
X112970586Y-80530162D01*
X113116358Y-80469781D01*
X113271107Y-80439000D01*
X113428893Y-80439000D01*
X113583642Y-80469781D01*
G37*
G36*
X128601000Y-81706000D02*
G01*
X127299000Y-81706000D01*
X127299000Y-80854000D01*
X128601000Y-80854000D01*
X128601000Y-81706000D01*
G37*
G36*
X126701000Y-81706000D02*
G01*
X125399000Y-81706000D01*
X125399000Y-80854000D01*
X126701000Y-80854000D01*
X126701000Y-81706000D01*
G37*
G36*
X116123642Y-79084781D02*
G01*
X116269414Y-79145162D01*
X116269416Y-79145163D01*
X116400608Y-79232822D01*
X116512178Y-79344392D01*
X116575962Y-79439853D01*
X116599838Y-79475586D01*
X116660219Y-79621358D01*
X116691000Y-79776107D01*
X116691000Y-79933893D01*
X116660219Y-80088642D01*
X116599838Y-80234414D01*
X116599837Y-80234416D01*
X116512178Y-80365608D01*
X116400608Y-80477178D01*
X116269416Y-80564837D01*
X116269415Y-80564838D01*
X116269414Y-80564838D01*
X116123642Y-80625219D01*
X115968893Y-80656000D01*
X115811107Y-80656000D01*
X115656358Y-80625219D01*
X115510586Y-80564838D01*
X115510585Y-80564838D01*
X115510584Y-80564837D01*
X115379392Y-80477178D01*
X115267822Y-80365608D01*
X115180163Y-80234416D01*
X115180162Y-80234414D01*
X115119781Y-80088642D01*
X115089000Y-79933893D01*
X115089000Y-79776107D01*
X115119781Y-79621358D01*
X115180162Y-79475586D01*
X115204038Y-79439853D01*
X115267822Y-79344392D01*
X115379392Y-79232822D01*
X115510584Y-79145163D01*
X115510586Y-79145162D01*
X115656358Y-79084781D01*
X115811107Y-79054000D01*
X115968893Y-79054000D01*
X116123642Y-79084781D01*
G37*
G36*
X134733512Y-77843927D02*
G01*
X134882812Y-77873624D01*
X135046784Y-77941544D01*
X135194354Y-78040147D01*
X135319853Y-78165646D01*
X135418456Y-78313216D01*
X135486376Y-78477188D01*
X135521000Y-78651259D01*
X135521000Y-78828741D01*
X135486376Y-79002812D01*
X135418456Y-79166784D01*
X135319853Y-79314354D01*
X135194354Y-79439853D01*
X135046784Y-79538456D01*
X134882812Y-79606376D01*
X134733512Y-79636073D01*
X134708742Y-79641000D01*
X134531258Y-79641000D01*
X134506488Y-79636073D01*
X134357188Y-79606376D01*
X134193216Y-79538456D01*
X134045646Y-79439853D01*
X133920147Y-79314354D01*
X133821544Y-79166784D01*
X133753624Y-79002812D01*
X133719000Y-78828741D01*
X133719000Y-78651259D01*
X133753624Y-78477188D01*
X133821544Y-78313216D01*
X133920147Y-78165646D01*
X134045646Y-78040147D01*
X134193216Y-77941544D01*
X134357188Y-77873624D01*
X134506488Y-77843927D01*
X134531258Y-77839000D01*
X134708742Y-77839000D01*
X134733512Y-77843927D01*
G37*
G36*
X113583642Y-77699781D02*
G01*
X113729414Y-77760162D01*
X113729416Y-77760163D01*
X113860608Y-77847822D01*
X113972178Y-77959392D01*
X114026136Y-78040147D01*
X114059838Y-78090586D01*
X114120219Y-78236358D01*
X114151000Y-78391107D01*
X114151000Y-78548893D01*
X114120219Y-78703642D01*
X114059838Y-78849414D01*
X114059837Y-78849416D01*
X113972178Y-78980608D01*
X113860608Y-79092178D01*
X113729416Y-79179837D01*
X113729415Y-79179838D01*
X113729414Y-79179838D01*
X113583642Y-79240219D01*
X113428893Y-79271000D01*
X113271107Y-79271000D01*
X113116358Y-79240219D01*
X112970586Y-79179838D01*
X112970585Y-79179838D01*
X112970584Y-79179837D01*
X112839392Y-79092178D01*
X112727822Y-78980608D01*
X112640163Y-78849416D01*
X112640162Y-78849414D01*
X112579781Y-78703642D01*
X112549000Y-78548893D01*
X112549000Y-78391107D01*
X112579781Y-78236358D01*
X112640162Y-78090586D01*
X112673864Y-78040147D01*
X112727822Y-77959392D01*
X112839392Y-77847822D01*
X112970584Y-77760163D01*
X112970586Y-77760162D01*
X113116358Y-77699781D01*
X113271107Y-77669000D01*
X113428893Y-77669000D01*
X113583642Y-77699781D01*
G37*
G36*
X130505400Y-78435400D02*
G01*
X128219000Y-78435400D01*
X128219000Y-77774600D01*
X130505400Y-77774600D01*
X130505400Y-78435400D01*
G37*
G36*
X125781000Y-78435400D02*
G01*
X123494600Y-78435400D01*
X123494600Y-77774600D01*
X125781000Y-77774600D01*
X125781000Y-78435400D01*
G37*
G36*
X116123642Y-76314781D02*
G01*
X116269414Y-76375162D01*
X116269416Y-76375163D01*
X116400608Y-76462822D01*
X116512178Y-76574392D01*
X116599837Y-76705584D01*
X116599838Y-76705586D01*
X116660219Y-76851358D01*
X116691000Y-77006107D01*
X116691000Y-77163893D01*
X116660219Y-77318642D01*
X116599838Y-77464414D01*
X116599837Y-77464416D01*
X116512178Y-77595608D01*
X116400608Y-77707178D01*
X116269416Y-77794837D01*
X116269415Y-77794838D01*
X116269414Y-77794838D01*
X116123642Y-77855219D01*
X115968893Y-77886000D01*
X115811107Y-77886000D01*
X115656358Y-77855219D01*
X115510586Y-77794838D01*
X115510585Y-77794838D01*
X115510584Y-77794837D01*
X115379392Y-77707178D01*
X115267822Y-77595608D01*
X115180163Y-77464416D01*
X115180162Y-77464414D01*
X115119781Y-77318642D01*
X115089000Y-77163893D01*
X115089000Y-77006107D01*
X115119781Y-76851358D01*
X115180162Y-76705586D01*
X115180163Y-76705584D01*
X115267822Y-76574392D01*
X115379392Y-76462822D01*
X115510584Y-76375163D01*
X115510586Y-76375162D01*
X115656358Y-76314781D01*
X115811107Y-76284000D01*
X115968893Y-76284000D01*
X116123642Y-76314781D01*
G37*
G36*
X125781000Y-77165400D02*
G01*
X123494600Y-77165400D01*
X123494600Y-76504600D01*
X125781000Y-76504600D01*
X125781000Y-77165400D01*
G37*
G36*
X130505400Y-77165400D02*
G01*
X128219000Y-77165400D01*
X128219000Y-76504600D01*
X130505400Y-76504600D01*
X130505400Y-77165400D01*
G37*
G36*
X134733512Y-75303927D02*
G01*
X134882812Y-75333624D01*
X135046784Y-75401544D01*
X135194354Y-75500147D01*
X135319853Y-75625646D01*
X135418456Y-75773216D01*
X135486376Y-75937188D01*
X135521000Y-76111259D01*
X135521000Y-76288741D01*
X135486376Y-76462812D01*
X135418456Y-76626784D01*
X135319853Y-76774354D01*
X135194354Y-76899853D01*
X135046784Y-76998456D01*
X134882812Y-77066376D01*
X134733512Y-77096073D01*
X134708742Y-77101000D01*
X134531258Y-77101000D01*
X134506488Y-77096073D01*
X134357188Y-77066376D01*
X134193216Y-76998456D01*
X134045646Y-76899853D01*
X133920147Y-76774354D01*
X133821544Y-76626784D01*
X133753624Y-76462812D01*
X133719000Y-76288741D01*
X133719000Y-76111259D01*
X133753624Y-75937188D01*
X133821544Y-75773216D01*
X133920147Y-75625646D01*
X134045646Y-75500147D01*
X134193216Y-75401544D01*
X134357188Y-75333624D01*
X134506488Y-75303927D01*
X134531258Y-75299000D01*
X134708742Y-75299000D01*
X134733512Y-75303927D01*
G37*
G36*
X113583642Y-74929781D02*
G01*
X113729414Y-74990162D01*
X113729416Y-74990163D01*
X113860608Y-75077822D01*
X113972178Y-75189392D01*
X114045415Y-75299000D01*
X114059838Y-75320586D01*
X114120219Y-75466358D01*
X114151000Y-75621107D01*
X114151000Y-75778893D01*
X114120219Y-75933642D01*
X114059838Y-76079414D01*
X114059837Y-76079416D01*
X113972178Y-76210608D01*
X113860608Y-76322178D01*
X113729416Y-76409837D01*
X113729415Y-76409838D01*
X113729414Y-76409838D01*
X113583642Y-76470219D01*
X113428893Y-76501000D01*
X113271107Y-76501000D01*
X113116358Y-76470219D01*
X112970586Y-76409838D01*
X112970585Y-76409838D01*
X112970584Y-76409837D01*
X112839392Y-76322178D01*
X112727822Y-76210608D01*
X112640163Y-76079416D01*
X112640162Y-76079414D01*
X112579781Y-75933642D01*
X112549000Y-75778893D01*
X112549000Y-75621107D01*
X112579781Y-75466358D01*
X112640162Y-75320586D01*
X112654585Y-75299000D01*
X112727822Y-75189392D01*
X112839392Y-75077822D01*
X112970584Y-74990163D01*
X112970586Y-74990162D01*
X113116358Y-74929781D01*
X113271107Y-74899000D01*
X113428893Y-74899000D01*
X113583642Y-74929781D01*
G37*
G36*
X125781000Y-75895400D02*
G01*
X123494600Y-75895400D01*
X123494600Y-75234600D01*
X125781000Y-75234600D01*
X125781000Y-75895400D01*
G37*
G36*
X130505400Y-75895400D02*
G01*
X128219000Y-75895400D01*
X128219000Y-75234600D01*
X130505400Y-75234600D01*
X130505400Y-75895400D01*
G37*
G36*
X116123642Y-73544781D02*
G01*
X116269414Y-73605162D01*
X116269416Y-73605163D01*
X116400608Y-73692822D01*
X116512178Y-73804392D01*
X116591302Y-73922811D01*
X116599838Y-73935586D01*
X116660219Y-74081358D01*
X116691000Y-74236107D01*
X116691000Y-74393893D01*
X116660219Y-74548642D01*
X116599838Y-74694414D01*
X116599837Y-74694416D01*
X116512178Y-74825608D01*
X116400608Y-74937178D01*
X116269416Y-75024837D01*
X116269415Y-75024838D01*
X116269414Y-75024838D01*
X116123642Y-75085219D01*
X115968893Y-75116000D01*
X115811107Y-75116000D01*
X115656358Y-75085219D01*
X115510586Y-75024838D01*
X115510585Y-75024838D01*
X115510584Y-75024837D01*
X115379392Y-74937178D01*
X115267822Y-74825608D01*
X115180163Y-74694416D01*
X115180162Y-74694414D01*
X115119781Y-74548642D01*
X115089000Y-74393893D01*
X115089000Y-74236107D01*
X115119781Y-74081358D01*
X115180162Y-73935586D01*
X115188698Y-73922811D01*
X115267822Y-73804392D01*
X115379392Y-73692822D01*
X115510584Y-73605163D01*
X115510586Y-73605162D01*
X115656358Y-73544781D01*
X115811107Y-73514000D01*
X115968893Y-73514000D01*
X116123642Y-73544781D01*
G37*
G36*
X125781000Y-74625400D02*
G01*
X123494600Y-74625400D01*
X123494600Y-73964600D01*
X125781000Y-73964600D01*
X125781000Y-74625400D01*
G37*
G36*
X130505400Y-74625400D02*
G01*
X128219000Y-74625400D01*
X128219000Y-73964600D01*
X130505400Y-73964600D01*
X130505400Y-74625400D01*
G37*
G36*
X134733512Y-72763927D02*
G01*
X134882812Y-72793624D01*
X135046784Y-72861544D01*
X135194354Y-72960147D01*
X135319853Y-73085646D01*
X135418456Y-73233216D01*
X135486376Y-73397188D01*
X135521000Y-73571259D01*
X135521000Y-73748741D01*
X135486376Y-73922812D01*
X135418456Y-74086784D01*
X135319853Y-74234354D01*
X135194354Y-74359853D01*
X135046784Y-74458456D01*
X134882812Y-74526376D01*
X134733512Y-74556073D01*
X134708742Y-74561000D01*
X134531258Y-74561000D01*
X134506488Y-74556073D01*
X134357188Y-74526376D01*
X134193216Y-74458456D01*
X134045646Y-74359853D01*
X133920147Y-74234354D01*
X133821544Y-74086784D01*
X133753624Y-73922812D01*
X133719000Y-73748741D01*
X133719000Y-73571259D01*
X133753624Y-73397188D01*
X133821544Y-73233216D01*
X133920147Y-73085646D01*
X134045646Y-72960147D01*
X134193216Y-72861544D01*
X134357188Y-72793624D01*
X134506488Y-72763927D01*
X134531258Y-72759000D01*
X134708742Y-72759000D01*
X134733512Y-72763927D01*
G37*
G36*
X113583642Y-72159781D02*
G01*
X113729414Y-72220162D01*
X113729416Y-72220163D01*
X113860608Y-72307822D01*
X113972178Y-72419392D01*
X114059837Y-72550584D01*
X114059838Y-72550586D01*
X114120219Y-72696358D01*
X114151000Y-72851107D01*
X114151000Y-73008893D01*
X114120219Y-73163642D01*
X114059838Y-73309414D01*
X114059837Y-73309416D01*
X113972178Y-73440608D01*
X113860608Y-73552178D01*
X113729416Y-73639837D01*
X113729415Y-73639838D01*
X113729414Y-73639838D01*
X113583642Y-73700219D01*
X113428893Y-73731000D01*
X113271107Y-73731000D01*
X113116358Y-73700219D01*
X112970586Y-73639838D01*
X112970585Y-73639838D01*
X112970584Y-73639837D01*
X112839392Y-73552178D01*
X112727822Y-73440608D01*
X112640163Y-73309416D01*
X112640162Y-73309414D01*
X112579781Y-73163642D01*
X112549000Y-73008893D01*
X112549000Y-72851107D01*
X112579781Y-72696358D01*
X112640162Y-72550586D01*
X112640163Y-72550584D01*
X112727822Y-72419392D01*
X112839392Y-72307822D01*
X112970584Y-72220163D01*
X112970586Y-72220162D01*
X113116358Y-72159781D01*
X113271107Y-72129000D01*
X113428893Y-72129000D01*
X113583642Y-72159781D01*
G37*
G36*
X125781000Y-73355400D02*
G01*
X123494600Y-73355400D01*
X123494600Y-72694600D01*
X125781000Y-72694600D01*
X125781000Y-73355400D01*
G37*
G36*
X130505400Y-73355400D02*
G01*
X128219000Y-73355400D01*
X128219000Y-72694600D01*
X130505400Y-72694600D01*
X130505400Y-73355400D01*
G37*
G36*
X116123642Y-70774781D02*
G01*
X116269414Y-70835162D01*
X116269416Y-70835163D01*
X116400608Y-70922822D01*
X116512178Y-71034392D01*
X116599837Y-71165584D01*
X116599838Y-71165586D01*
X116660219Y-71311358D01*
X116691000Y-71466107D01*
X116691000Y-71623893D01*
X116660219Y-71778642D01*
X116602306Y-71918456D01*
X116599837Y-71924416D01*
X116512178Y-72055608D01*
X116400608Y-72167178D01*
X116269416Y-72254837D01*
X116269415Y-72254838D01*
X116269414Y-72254838D01*
X116123642Y-72315219D01*
X115968893Y-72346000D01*
X115811107Y-72346000D01*
X115656358Y-72315219D01*
X115510586Y-72254838D01*
X115510585Y-72254838D01*
X115510584Y-72254837D01*
X115379392Y-72167178D01*
X115267822Y-72055608D01*
X115180163Y-71924416D01*
X115177694Y-71918456D01*
X115119781Y-71778642D01*
X115089000Y-71623893D01*
X115089000Y-71466107D01*
X115119781Y-71311358D01*
X115180162Y-71165586D01*
X115180163Y-71165584D01*
X115267822Y-71034392D01*
X115379392Y-70922822D01*
X115510584Y-70835163D01*
X115510586Y-70835162D01*
X115656358Y-70774781D01*
X115811107Y-70744000D01*
X115968893Y-70744000D01*
X116123642Y-70774781D01*
G37*
G36*
X130505400Y-72085400D02*
G01*
X128219000Y-72085400D01*
X128219000Y-71424600D01*
X130505400Y-71424600D01*
X130505400Y-72085400D01*
G37*
G36*
X125781000Y-72085400D02*
G01*
X123494600Y-72085400D01*
X123494600Y-71424600D01*
X125781000Y-71424600D01*
X125781000Y-72085400D01*
G37*
G36*
X134733512Y-70223927D02*
G01*
X134882812Y-70253624D01*
X135046784Y-70321544D01*
X135194354Y-70420147D01*
X135319853Y-70545646D01*
X135418456Y-70693216D01*
X135486376Y-70857188D01*
X135521000Y-71031259D01*
X135521000Y-71208741D01*
X135486376Y-71382812D01*
X135418456Y-71546784D01*
X135319853Y-71694354D01*
X135194354Y-71819853D01*
X135046784Y-71918456D01*
X134882812Y-71986376D01*
X134733512Y-72016073D01*
X134708742Y-72021000D01*
X134531258Y-72021000D01*
X134506488Y-72016073D01*
X134357188Y-71986376D01*
X134193216Y-71918456D01*
X134045646Y-71819853D01*
X133920147Y-71694354D01*
X133821544Y-71546784D01*
X133753624Y-71382812D01*
X133719000Y-71208741D01*
X133719000Y-71031259D01*
X133753624Y-70857188D01*
X133821544Y-70693216D01*
X133920147Y-70545646D01*
X134045646Y-70420147D01*
X134193216Y-70321544D01*
X134357188Y-70253624D01*
X134506488Y-70223927D01*
X134531258Y-70219000D01*
X134708742Y-70219000D01*
X134733512Y-70223927D01*
G37*
G36*
X130505400Y-70815400D02*
G01*
X128219000Y-70815400D01*
X128219000Y-70154600D01*
X130505400Y-70154600D01*
X130505400Y-70815400D01*
G37*
G36*
X125781000Y-70815400D02*
G01*
X123494600Y-70815400D01*
X123494600Y-70154600D01*
X125781000Y-70154600D01*
X125781000Y-70815400D01*
G37*
G36*
X125781000Y-69545400D02*
G01*
X123494600Y-69545400D01*
X123494600Y-68884600D01*
X125781000Y-68884600D01*
X125781000Y-69545400D01*
G37*
G36*
X130505400Y-69545400D02*
G01*
X128219000Y-69545400D01*
X128219000Y-68884600D01*
X130505400Y-68884600D01*
X130505400Y-69545400D01*
G37*
G36*
X135521000Y-69481000D02*
G01*
X133719000Y-69481000D01*
X133719000Y-67679000D01*
X135521000Y-67679000D01*
X135521000Y-69481000D01*
G37*
G36*
X128569000Y-67736000D02*
G01*
X127267000Y-67736000D01*
X127267000Y-66884000D01*
X128569000Y-66884000D01*
X128569000Y-67736000D01*
G37*
G36*
X126669000Y-67736000D02*
G01*
X125367000Y-67736000D01*
X125367000Y-66884000D01*
X126669000Y-66884000D01*
X126669000Y-67736000D01*
G37*
G36*
X115334929Y-62223190D02*
G01*
X115780982Y-62407951D01*
X115780984Y-62407952D01*
X116182421Y-62676184D01*
X116523816Y-63017579D01*
X116710910Y-63297584D01*
X116792049Y-63419018D01*
X116976810Y-63865071D01*
X117071000Y-64338596D01*
X117071000Y-64821404D01*
X116976810Y-65294929D01*
X116837005Y-65632449D01*
X116792048Y-65740984D01*
X116523816Y-66142421D01*
X116182421Y-66483816D01*
X115780984Y-66752048D01*
X115780983Y-66752049D01*
X115780982Y-66752049D01*
X115334929Y-66936810D01*
X114861404Y-67031000D01*
X114378596Y-67031000D01*
X113905071Y-66936810D01*
X113459018Y-66752049D01*
X113459017Y-66752049D01*
X113459016Y-66752048D01*
X113057579Y-66483816D01*
X112716184Y-66142421D01*
X112447952Y-65740984D01*
X112402995Y-65632449D01*
X112263190Y-65294929D01*
X112169000Y-64821404D01*
X112169000Y-64338596D01*
X112263190Y-63865071D01*
X112447951Y-63419018D01*
X112529091Y-63297584D01*
X112716184Y-63017579D01*
X113057579Y-62676184D01*
X113459016Y-62407952D01*
X113459018Y-62407951D01*
X113905071Y-62223190D01*
X114378596Y-62129000D01*
X114861404Y-62129000D01*
X115334929Y-62223190D01*
G37*
G36*
X121995256Y-62971298D02*
G01*
X122101579Y-62992447D01*
X122402042Y-63116903D01*
X122672451Y-63297585D01*
X122902415Y-63527549D01*
X123083097Y-63797958D01*
X123207553Y-64098421D01*
X123271000Y-64417391D01*
X123271000Y-64742609D01*
X123207553Y-65061579D01*
X123083097Y-65362042D01*
X122902415Y-65632451D01*
X122672451Y-65862415D01*
X122402042Y-66043097D01*
X122101579Y-66167553D01*
X121995256Y-66188702D01*
X121782611Y-66231000D01*
X121457389Y-66231000D01*
X121244744Y-66188702D01*
X121138421Y-66167553D01*
X120837958Y-66043097D01*
X120567549Y-65862415D01*
X120337585Y-65632451D01*
X120156903Y-65362042D01*
X120032447Y-65061579D01*
X119969000Y-64742609D01*
X119969000Y-64417391D01*
X120032447Y-64098421D01*
X120156903Y-63797958D01*
X120337585Y-63527549D01*
X120567549Y-63297585D01*
X120837958Y-63116903D01*
X121138421Y-62992447D01*
X121244744Y-62971298D01*
X121457389Y-62929000D01*
X121782611Y-62929000D01*
X121995256Y-62971298D01*
G37*
G36*
X135521000Y-66141000D02*
G01*
X133719000Y-66141000D01*
X133719000Y-64339000D01*
X135521000Y-64339000D01*
X135521000Y-66141000D01*
G37*
G36*
X132004000Y-64798000D02*
G01*
X130632000Y-64798000D01*
X130632000Y-61186000D01*
X132004000Y-61186000D01*
X132004000Y-64798000D01*
G37*
M02*
