G04 #@! TF.GenerationSoftware,KiCad,Pcbnew,(5.1.5-0-10_14)*
G04 #@! TF.CreationDate,2020-04-14T07:35:52+01:00*
G04 #@! TF.ProjectId,RS422,52533432-322e-46b6-9963-61645f706362,rev?*
G04 #@! TF.SameCoordinates,Original*
G04 #@! TF.FileFunction,Legend,Top*
G04 #@! TF.FilePolarity,Positive*
%FSLAX46Y46*%
G04 Gerber Fmt 4.6, Leading zero omitted, Abs format (unit mm)*
G04 Created by KiCad (PCBNEW (5.1.5-0-10_14)) date 2020-04-14 07:35:52*
%MOMM*%
%LPD*%
G04 APERTURE LIST*
%ADD10C,0.150000*%
%ADD11C,0.187500*%
%ADD12C,0.120000*%
%ADD13C,0.152400*%
%ADD14C,0.100000*%
%ADD15C,0.254000*%
G04 APERTURE END LIST*
D10*
X131841904Y-76366666D02*
X132318095Y-76366666D01*
X131746666Y-76652380D02*
X132080000Y-75652380D01*
X132413333Y-76652380D01*
X132151428Y-73588571D02*
X132294285Y-73636190D01*
X132341904Y-73683809D01*
X132389523Y-73779047D01*
X132389523Y-73921904D01*
X132341904Y-74017142D01*
X132294285Y-74064761D01*
X132199047Y-74112380D01*
X131818095Y-74112380D01*
X131818095Y-73112380D01*
X132151428Y-73112380D01*
X132246666Y-73160000D01*
X132294285Y-73207619D01*
X132341904Y-73302857D01*
X132341904Y-73398095D01*
X132294285Y-73493333D01*
X132246666Y-73540952D01*
X132151428Y-73588571D01*
X131818095Y-73588571D01*
X131746666Y-70572380D02*
X132413333Y-70572380D01*
X131746666Y-71572380D01*
X132413333Y-71572380D01*
X131794285Y-88987380D02*
X131794285Y-89796904D01*
X131841904Y-89892142D01*
X131889523Y-89939761D01*
X131984761Y-89987380D01*
X132175238Y-89987380D01*
X132270476Y-89939761D01*
X132318095Y-89892142D01*
X132365714Y-89796904D01*
X132365714Y-88987380D01*
X131746666Y-86572380D02*
X132080000Y-87572380D01*
X132413333Y-86572380D01*
X131651428Y-84032380D02*
X131889523Y-85032380D01*
X132080000Y-84318095D01*
X132270476Y-85032380D01*
X132508571Y-84032380D01*
D11*
X129397142Y-61438285D02*
X129040000Y-61438285D01*
X129004285Y-61795428D01*
X129040000Y-61759714D01*
X129111428Y-61724000D01*
X129290000Y-61724000D01*
X129361428Y-61759714D01*
X129397142Y-61795428D01*
X129432857Y-61866857D01*
X129432857Y-62045428D01*
X129397142Y-62116857D01*
X129361428Y-62152571D01*
X129290000Y-62188285D01*
X129111428Y-62188285D01*
X129040000Y-62152571D01*
X129004285Y-62116857D01*
X129647142Y-61438285D02*
X129897142Y-62188285D01*
X130147142Y-61438285D01*
X129095571Y-63978285D02*
X129559857Y-63978285D01*
X129309857Y-64264000D01*
X129417000Y-64264000D01*
X129488428Y-64299714D01*
X129524142Y-64335428D01*
X129559857Y-64406857D01*
X129559857Y-64585428D01*
X129524142Y-64656857D01*
X129488428Y-64692571D01*
X129417000Y-64728285D01*
X129202714Y-64728285D01*
X129131285Y-64692571D01*
X129095571Y-64656857D01*
X129774142Y-63978285D02*
X130024142Y-64728285D01*
X130274142Y-63978285D01*
D12*
X132208000Y-64902000D02*
X132208000Y-61082000D01*
X132208000Y-61082000D02*
X130428000Y-61082000D01*
X130428000Y-61082000D02*
X130428000Y-64902000D01*
X132208000Y-64902000D02*
X130428000Y-64902000D01*
X133290000Y-66570000D02*
X135950000Y-66570000D01*
X133290000Y-66510000D02*
X133290000Y-66570000D01*
X135950000Y-66510000D02*
X135950000Y-66570000D01*
X133290000Y-66510000D02*
X135950000Y-66510000D01*
X133290000Y-65240000D02*
X133290000Y-63910000D01*
X133290000Y-63910000D02*
X134620000Y-63910000D01*
D13*
X125910697Y-93268800D02*
X128089303Y-93268800D01*
X128089303Y-83261200D02*
X125910697Y-83261200D01*
X130962400Y-91249500D02*
X130962400Y-91630500D01*
X130962400Y-91630500D02*
X130708400Y-91630500D01*
X130708400Y-91630500D02*
X130708400Y-91249500D01*
X130708400Y-91249500D02*
X130962400Y-91249500D01*
X126695200Y-83261200D02*
G75*
G03X127304800Y-83261200I304800J0D01*
G01*
D14*
X117550000Y-61645000D02*
X117550000Y-100835000D01*
X117550000Y-100835000D02*
X102950000Y-100835000D01*
X102950000Y-100835000D02*
X102950000Y-61645000D01*
X102950000Y-61645000D02*
X117550000Y-61645000D01*
X102950000Y-68910000D02*
X102950000Y-93570000D01*
X102950000Y-93570000D02*
X97150000Y-93570000D01*
X97150000Y-93570000D02*
X97150000Y-68910000D01*
X97150000Y-68910000D02*
X102950000Y-68910000D01*
D12*
X126000000Y-82300000D02*
X128000000Y-82300000D01*
X128000000Y-80260000D02*
X126000000Y-80260000D01*
X127968000Y-66290000D02*
X125968000Y-66290000D01*
X125968000Y-68330000D02*
X127968000Y-68330000D01*
X131140000Y-95790000D02*
X130740000Y-95790000D01*
X131910000Y-100370000D02*
X130740000Y-100370000D01*
X127330000Y-100370000D02*
X128500000Y-100370000D01*
X128100000Y-95790000D02*
X128500000Y-95790000D01*
X127330000Y-96560000D02*
X127330000Y-100370000D01*
X127330000Y-96560000D02*
X128100000Y-95790000D01*
X131910000Y-96560000D02*
X131910000Y-100370000D01*
X131910000Y-96560000D02*
X131140000Y-95790000D01*
X133290000Y-67250000D02*
X134620000Y-67250000D01*
X133290000Y-68580000D02*
X133290000Y-67250000D01*
X133290000Y-69850000D02*
X135950000Y-69850000D01*
X135950000Y-69850000D02*
X135950000Y-80070000D01*
X133290000Y-69850000D02*
X133290000Y-80070000D01*
X133290000Y-80070000D02*
X135950000Y-80070000D01*
X133290000Y-80750000D02*
X134620000Y-80750000D01*
X133290000Y-82080000D02*
X133290000Y-80750000D01*
X133290000Y-83350000D02*
X135950000Y-83350000D01*
X135950000Y-83350000D02*
X135950000Y-93570000D01*
X133290000Y-83350000D02*
X133290000Y-93570000D01*
X133290000Y-93570000D02*
X135950000Y-93570000D01*
D13*
X126695200Y-68656200D02*
G75*
G03X127304800Y-68656200I304800J0D01*
G01*
X130708400Y-76644500D02*
X130962400Y-76644500D01*
X130708400Y-77025500D02*
X130708400Y-76644500D01*
X130962400Y-77025500D02*
X130708400Y-77025500D01*
X130962400Y-76644500D02*
X130962400Y-77025500D01*
X128089303Y-68656200D02*
X125910697Y-68656200D01*
X125910697Y-78663800D02*
X128089303Y-78663800D01*
D10*
X132000666Y-65492380D02*
X132000666Y-66206666D01*
X131953047Y-66349523D01*
X131857809Y-66444761D01*
X131714952Y-66492380D01*
X131619714Y-66492380D01*
X132905428Y-65825714D02*
X132905428Y-66492380D01*
X132667333Y-65444761D02*
X132429238Y-66159047D01*
X133048285Y-66159047D01*
X124968095Y-93686380D02*
X124968095Y-94495904D01*
X125015714Y-94591142D01*
X125063333Y-94638761D01*
X125158571Y-94686380D01*
X125349047Y-94686380D01*
X125444285Y-94638761D01*
X125491904Y-94591142D01*
X125539523Y-94495904D01*
X125539523Y-93686380D01*
X125968095Y-93781619D02*
X126015714Y-93734000D01*
X126110952Y-93686380D01*
X126349047Y-93686380D01*
X126444285Y-93734000D01*
X126491904Y-93781619D01*
X126539523Y-93876857D01*
X126539523Y-93972095D01*
X126491904Y-94114952D01*
X125920476Y-94686380D01*
X126539523Y-94686380D01*
D15*
X106654523Y-81663333D02*
X107561666Y-81663333D01*
X107743095Y-81723809D01*
X107864047Y-81844761D01*
X107924523Y-82026190D01*
X107924523Y-82147142D01*
X107924523Y-80393333D02*
X107924523Y-81119047D01*
X107924523Y-80756190D02*
X106654523Y-80756190D01*
X106835952Y-80877142D01*
X106956904Y-80998095D01*
X107017380Y-81119047D01*
D10*
X126833333Y-79887142D02*
X126785714Y-79934761D01*
X126642857Y-79982380D01*
X126547619Y-79982380D01*
X126404761Y-79934761D01*
X126309523Y-79839523D01*
X126261904Y-79744285D01*
X126214285Y-79553809D01*
X126214285Y-79410952D01*
X126261904Y-79220476D01*
X126309523Y-79125238D01*
X126404761Y-79030000D01*
X126547619Y-78982380D01*
X126642857Y-78982380D01*
X126785714Y-79030000D01*
X126833333Y-79077619D01*
X127785714Y-79982380D02*
X127214285Y-79982380D01*
X127500000Y-79982380D02*
X127500000Y-78982380D01*
X127404761Y-79125238D01*
X127309523Y-79220476D01*
X127214285Y-79268095D01*
X126833333Y-65889142D02*
X126785714Y-65936761D01*
X126642857Y-65984380D01*
X126547619Y-65984380D01*
X126404761Y-65936761D01*
X126309523Y-65841523D01*
X126261904Y-65746285D01*
X126214285Y-65555809D01*
X126214285Y-65412952D01*
X126261904Y-65222476D01*
X126309523Y-65127238D01*
X126404761Y-65032000D01*
X126547619Y-64984380D01*
X126642857Y-64984380D01*
X126785714Y-65032000D01*
X126833333Y-65079619D01*
X127214285Y-65079619D02*
X127261904Y-65032000D01*
X127357142Y-64984380D01*
X127595238Y-64984380D01*
X127690476Y-65032000D01*
X127738095Y-65079619D01*
X127785714Y-65174857D01*
X127785714Y-65270095D01*
X127738095Y-65412952D01*
X127166666Y-65984380D01*
X127785714Y-65984380D01*
X129373333Y-94591142D02*
X129325714Y-94638761D01*
X129182857Y-94686380D01*
X129087619Y-94686380D01*
X128944761Y-94638761D01*
X128849523Y-94543523D01*
X128801904Y-94448285D01*
X128754285Y-94257809D01*
X128754285Y-94114952D01*
X128801904Y-93924476D01*
X128849523Y-93829238D01*
X128944761Y-93734000D01*
X129087619Y-93686380D01*
X129182857Y-93686380D01*
X129325714Y-93734000D01*
X129373333Y-93781619D01*
X129706666Y-93686380D02*
X130325714Y-93686380D01*
X129992380Y-94067333D01*
X130135238Y-94067333D01*
X130230476Y-94114952D01*
X130278095Y-94162571D01*
X130325714Y-94257809D01*
X130325714Y-94495904D01*
X130278095Y-94591142D01*
X130230476Y-94638761D01*
X130135238Y-94686380D01*
X129849523Y-94686380D01*
X129754285Y-94638761D01*
X129706666Y-94591142D01*
X127681428Y-95690952D02*
X127681428Y-94929047D01*
X128062380Y-95310000D02*
X127300476Y-95310000D01*
X132000666Y-68032380D02*
X132000666Y-68746666D01*
X131953047Y-68889523D01*
X131857809Y-68984761D01*
X131714952Y-69032380D01*
X131619714Y-69032380D01*
X132429238Y-68127619D02*
X132476857Y-68080000D01*
X132572095Y-68032380D01*
X132810190Y-68032380D01*
X132905428Y-68080000D01*
X132953047Y-68127619D01*
X133000666Y-68222857D01*
X133000666Y-68318095D01*
X132953047Y-68460952D01*
X132381619Y-69032380D01*
X133000666Y-69032380D01*
X132000666Y-81492380D02*
X132000666Y-82206666D01*
X131953047Y-82349523D01*
X131857809Y-82444761D01*
X131714952Y-82492380D01*
X131619714Y-82492380D01*
X132381619Y-81492380D02*
X133000666Y-81492380D01*
X132667333Y-81873333D01*
X132810190Y-81873333D01*
X132905428Y-81920952D01*
X132953047Y-81968571D01*
X133000666Y-82063809D01*
X133000666Y-82301904D01*
X132953047Y-82397142D01*
X132905428Y-82444761D01*
X132810190Y-82492380D01*
X132524476Y-82492380D01*
X132429238Y-82444761D01*
X132381619Y-82397142D01*
X124968095Y-67270380D02*
X124968095Y-68079904D01*
X125015714Y-68175142D01*
X125063333Y-68222761D01*
X125158571Y-68270380D01*
X125349047Y-68270380D01*
X125444285Y-68222761D01*
X125491904Y-68175142D01*
X125539523Y-68079904D01*
X125539523Y-67270380D01*
X126539523Y-68270380D02*
X125968095Y-68270380D01*
X126253809Y-68270380D02*
X126253809Y-67270380D01*
X126158571Y-67413238D01*
X126063333Y-67508476D01*
X125968095Y-67556095D01*
M02*
