G04 #@! TF.GenerationSoftware,KiCad,Pcbnew,(5.1.5-0-10_14)*
G04 #@! TF.CreationDate,2020-04-14T07:35:52+01:00*
G04 #@! TF.ProjectId,RS422,52533432-322e-46b6-9963-61645f706362,rev?*
G04 #@! TF.SameCoordinates,Original*
G04 #@! TF.FileFunction,Copper,L1,Top*
G04 #@! TF.FilePolarity,Positive*
%FSLAX46Y46*%
G04 Gerber Fmt 4.6, Leading zero omitted, Abs format (unit mm)*
G04 Created by KiCad (PCBNEW (5.1.5-0-10_14)) date 2020-04-14 07:35:52*
%MOMM*%
%LPD*%
G04 APERTURE LIST*
%ADD10R,1.270000X0.970000*%
%ADD11R,1.700000X1.700000*%
%ADD12C,6.400000*%
%ADD13R,2.184400X0.558800*%
%ADD14R,1.500000X1.500000*%
%ADD15C,1.500000*%
%ADD16C,4.800000*%
%ADD17R,2.000000X1.600000*%
%ADD18R,1.600000X2.600000*%
%ADD19O,1.700000X1.700000*%
%ADD20C,1.200000*%
%ADD21C,0.800000*%
%ADD22C,1.000000*%
%ADD23C,0.500000*%
%ADD24C,2.000000*%
%ADD25C,0.250000*%
%ADD26C,0.200000*%
%ADD27C,0.254000*%
G04 APERTURE END LIST*
D10*
X131318000Y-64262000D03*
X131318000Y-62992000D03*
X131318000Y-61722000D03*
D11*
X134620000Y-65240000D03*
D12*
X122620000Y-97580000D03*
D13*
X124637800Y-83820000D03*
X124637800Y-85090000D03*
X124637800Y-86360000D03*
X124637800Y-87630000D03*
X124637800Y-88900000D03*
X124637800Y-90170000D03*
X124637800Y-91440000D03*
X124637800Y-92710000D03*
X129362200Y-92710000D03*
X129362200Y-91440000D03*
X129362200Y-90170000D03*
X129362200Y-88900000D03*
X129362200Y-87630000D03*
X129362200Y-86360000D03*
X129362200Y-85090000D03*
X129362200Y-83820000D03*
D14*
X115890000Y-90935000D03*
D15*
X115890000Y-88165000D03*
X115890000Y-85395000D03*
X115890000Y-82625000D03*
X115890000Y-79855000D03*
X115890000Y-77085000D03*
X115890000Y-74315000D03*
X115890000Y-71545000D03*
X113350000Y-89550000D03*
X113350000Y-86780000D03*
X113350000Y-84010000D03*
X113350000Y-81240000D03*
X113350000Y-78470000D03*
X113350000Y-75700000D03*
X113350000Y-72930000D03*
D16*
X114620000Y-64580000D03*
X114620000Y-97900000D03*
D17*
X129000000Y-81280000D03*
X125000000Y-81280000D03*
X124968000Y-67310000D03*
X128968000Y-67310000D03*
D18*
X129620000Y-96280000D03*
X129620000Y-99880000D03*
D19*
X134620000Y-78740000D03*
X134620000Y-76200000D03*
X134620000Y-73660000D03*
X134620000Y-71120000D03*
D11*
X134620000Y-68580000D03*
D19*
X134620000Y-92240000D03*
X134620000Y-89700000D03*
X134620000Y-87160000D03*
X134620000Y-84620000D03*
D11*
X134620000Y-82080000D03*
D13*
X129362200Y-69215000D03*
X129362200Y-70485000D03*
X129362200Y-71755000D03*
X129362200Y-73025000D03*
X129362200Y-74295000D03*
X129362200Y-75565000D03*
X129362200Y-76835000D03*
X129362200Y-78105000D03*
X124637800Y-78105000D03*
X124637800Y-76835000D03*
X124637800Y-75565000D03*
X124637800Y-74295000D03*
X124637800Y-73025000D03*
X124637800Y-71755000D03*
X124637800Y-70485000D03*
X124637800Y-69215000D03*
D20*
X132080000Y-88900000D03*
X132080000Y-81280000D03*
X121158000Y-92456000D03*
X120638971Y-86217329D03*
X128270000Y-65024000D03*
X132081010Y-74040000D03*
X125222000Y-62484000D03*
D21*
X121031000Y-82804000D03*
X120484745Y-76171747D03*
X111506000Y-72898000D03*
X110490000Y-91440000D03*
X121168642Y-88840589D03*
X122627938Y-76610412D03*
X122809000Y-90170000D03*
X122809000Y-87376000D03*
X112014000Y-93980000D03*
X125222000Y-79629000D03*
X128191692Y-79629000D03*
X121793000Y-83693000D03*
X120142000Y-72390000D03*
X122204246Y-74452246D03*
D20*
X127762000Y-97028000D03*
X126762000Y-83042000D03*
X127000000Y-69215000D03*
D22*
X129362200Y-88900000D02*
X132080000Y-88900000D01*
D23*
X132080000Y-81280000D02*
X134620000Y-78740000D01*
X129000000Y-81280000D02*
X132080000Y-81280000D01*
X125450600Y-92710000D02*
X126631340Y-93890740D01*
X124637800Y-92710000D02*
X125450600Y-92710000D01*
X121412000Y-92710000D02*
X124637800Y-92710000D01*
D22*
X121158000Y-92456000D02*
X121412000Y-92710000D01*
D23*
X115890000Y-85395000D02*
X119816642Y-85395000D01*
X120609326Y-85900000D02*
X120638971Y-85929645D01*
X119816642Y-85395000D02*
X120638971Y-86217329D01*
X130950742Y-93890740D02*
X131620000Y-94559998D01*
X126631340Y-93890740D02*
X130950742Y-93890740D01*
X131420000Y-99880000D02*
X129620000Y-99880000D01*
X131620000Y-99680000D02*
X131420000Y-99880000D01*
X131620000Y-94559998D02*
X131620000Y-99680000D01*
X132601482Y-92240000D02*
X134620000Y-92240000D01*
X130950742Y-93890740D02*
X132601482Y-92240000D01*
D22*
X128968000Y-65722000D02*
X128270000Y-65024000D01*
X128968000Y-67310000D02*
X128968000Y-65722000D01*
X129362200Y-74295000D02*
X131826010Y-74295000D01*
D23*
X126891690Y-78266690D02*
X126891690Y-80253002D01*
X124637800Y-78105000D02*
X126730000Y-78105000D01*
X127918688Y-81280000D02*
X129000000Y-81280000D01*
X126730000Y-78105000D02*
X126891690Y-78266690D01*
D22*
X131826010Y-74295000D02*
X132081010Y-74040000D01*
D23*
X126891690Y-80253002D02*
X127918688Y-81280000D01*
X125857000Y-61722000D02*
X125222000Y-62357000D01*
X131318000Y-61722000D02*
X125857000Y-61722000D01*
D24*
X114940000Y-97580000D02*
X114620000Y-97900000D01*
X122620000Y-97580000D02*
X114940000Y-97580000D01*
D25*
X119403002Y-82625000D02*
X120852000Y-82625000D01*
X120852000Y-82625000D02*
X121031000Y-82804000D01*
X117758999Y-82805001D02*
X119223001Y-82805001D01*
X117578998Y-82625000D02*
X117758999Y-82805001D01*
X119223001Y-82805001D02*
X119403002Y-82625000D01*
X115890000Y-82625000D02*
X117578998Y-82625000D01*
X124637800Y-75565000D02*
X121091492Y-75565000D01*
X121091492Y-75565000D02*
X120484745Y-76171747D01*
X111506000Y-72898000D02*
X114843400Y-69560600D01*
X114843400Y-69560600D02*
X123225400Y-69560600D01*
X123225400Y-69560600D02*
X123571000Y-69215000D01*
X129362200Y-91440000D02*
X128020000Y-91440000D01*
X126145599Y-89565599D02*
X123277603Y-89565599D01*
X128020000Y-91440000D02*
X126145599Y-89565599D01*
X123277603Y-89565599D02*
X123157002Y-89444998D01*
X122340397Y-89565599D02*
X120524403Y-89565599D01*
X123157002Y-89444998D02*
X122460998Y-89444998D01*
X120524403Y-89565599D02*
X116872002Y-93218000D01*
X122460998Y-89444998D02*
X122340397Y-89565599D01*
X115890000Y-77085000D02*
X112391000Y-77085000D01*
X112391000Y-77085000D02*
X112014000Y-77462000D01*
X112014000Y-77462000D02*
X112014000Y-92202000D01*
X113030000Y-93218000D02*
X115316000Y-93218000D01*
X115316000Y-93218000D02*
X115236998Y-93218000D01*
X112014000Y-92202000D02*
X113030000Y-93218000D01*
X116872002Y-93218000D02*
X115316000Y-93218000D01*
X120540000Y-70485000D02*
X124637800Y-70485000D01*
X116639999Y-73565001D02*
X117459999Y-73565001D01*
X117459999Y-73565001D02*
X120540000Y-70485000D01*
X115890000Y-74315000D02*
X116639999Y-73565001D01*
D26*
X128547865Y-92890732D02*
X128728597Y-92710000D01*
X128728597Y-92710000D02*
X129362200Y-92710000D01*
D25*
X129362200Y-92710000D02*
X127864402Y-92710000D01*
X125990001Y-90835599D02*
X123216405Y-90835599D01*
X119991423Y-90734988D02*
X117058402Y-93668009D01*
X123216405Y-90835599D02*
X123157002Y-90895002D01*
X122490415Y-90895002D02*
X122330401Y-90734988D01*
X122330401Y-90734988D02*
X119991423Y-90734988D01*
X117058402Y-93668009D02*
X112775013Y-93668009D01*
X112775013Y-93668009D02*
X110457002Y-91349998D01*
X127864402Y-92710000D02*
X125990001Y-90835599D01*
X123157002Y-90895002D02*
X122490415Y-90895002D01*
X110457002Y-91407002D02*
X110490000Y-91440000D01*
X110457002Y-91349998D02*
X110457002Y-91407002D01*
X123058089Y-76180261D02*
X123027937Y-76210413D01*
X123027937Y-76210413D02*
X122627938Y-76610412D01*
X117243591Y-92210001D02*
X120613003Y-88840589D01*
X114719999Y-92210001D02*
X117243591Y-92210001D01*
X114099999Y-91590001D02*
X114719999Y-92210001D01*
X114099999Y-90299999D02*
X114099999Y-91590001D01*
X120613003Y-88840589D02*
X121168642Y-88840589D01*
X113350000Y-89550000D02*
X114099999Y-90299999D01*
X123027937Y-76210413D02*
X127518413Y-76210413D01*
X127518413Y-76210413D02*
X128143000Y-76835000D01*
X128143000Y-76835000D02*
X129362200Y-76835000D01*
X124637800Y-90170000D02*
X122936000Y-90170000D01*
X122936000Y-90170000D02*
X122809000Y-90170000D01*
X122409001Y-87775999D02*
X118166003Y-87775999D01*
X122809000Y-87376000D02*
X122409001Y-87775999D01*
X116502001Y-89440001D02*
X118166003Y-87775999D01*
X113350000Y-87840660D02*
X114949341Y-89440001D01*
X114949341Y-89440001D02*
X116502001Y-89440001D01*
X113350000Y-86780000D02*
X113350000Y-87840660D01*
X113350000Y-84010000D02*
X120586000Y-84010000D01*
X121666000Y-85090000D02*
X124637800Y-85090000D01*
X120586000Y-84010000D02*
X121666000Y-85090000D01*
X122144001Y-91184999D02*
X120177822Y-91184999D01*
X124637800Y-91440000D02*
X122399002Y-91440000D01*
X117244801Y-94118020D02*
X112152020Y-94118020D01*
X120177822Y-91184999D02*
X117244801Y-94118020D01*
X122399002Y-91440000D02*
X122144001Y-91184999D01*
X122809000Y-79629000D02*
X125222000Y-79629000D01*
X121650000Y-78470000D02*
X122809000Y-79629000D01*
X113350000Y-78470000D02*
X121650000Y-78470000D01*
X129362200Y-78634400D02*
X128367600Y-79629000D01*
X129362200Y-78105000D02*
X129362200Y-78634400D01*
X128367600Y-79629000D02*
X128191692Y-79629000D01*
X122865255Y-77446099D02*
X123476354Y-76835000D01*
X119570487Y-77446099D02*
X122865255Y-77446099D01*
X123476354Y-76835000D02*
X124637800Y-76835000D01*
X113350000Y-75700000D02*
X117824388Y-75700000D01*
X117824388Y-75700000D02*
X119570487Y-77446099D01*
X124637800Y-83820000D02*
X123295600Y-83820000D01*
X121920000Y-83820000D02*
X121793000Y-83693000D01*
X123295600Y-83820000D02*
X121920000Y-83820000D01*
X120142000Y-72390000D02*
X122204246Y-74452246D01*
X133985000Y-75565000D02*
X134620000Y-76200000D01*
X129362200Y-75565000D02*
X133985000Y-75565000D01*
X128009999Y-72420599D02*
X133380599Y-72420599D01*
X133380599Y-72420599D02*
X133770001Y-72810001D01*
X126135598Y-74295000D02*
X128009999Y-72420599D01*
X124637800Y-74295000D02*
X126135598Y-74295000D01*
X133770001Y-72810001D02*
X134620000Y-73660000D01*
X133417919Y-71120000D02*
X134620000Y-71120000D01*
X126615000Y-71120000D02*
X133417919Y-71120000D01*
X125980000Y-71755000D02*
X126615000Y-71120000D01*
X124637800Y-71755000D02*
X125980000Y-71755000D01*
X133770001Y-85469999D02*
X134620000Y-84620000D01*
X133484401Y-85755599D02*
X133770001Y-85469999D01*
X126584401Y-85755599D02*
X133484401Y-85755599D01*
X125980000Y-86360000D02*
X126584401Y-85755599D01*
X124637800Y-86360000D02*
X125980000Y-86360000D01*
X133417919Y-87160000D02*
X134620000Y-87160000D01*
X133283518Y-87025599D02*
X133417919Y-87160000D01*
X127854401Y-87025599D02*
X133283518Y-87025599D01*
X125980000Y-88900000D02*
X127854401Y-87025599D01*
X124637800Y-88900000D02*
X125980000Y-88900000D01*
X133770001Y-90549999D02*
X134620000Y-89700000D01*
X131092998Y-90170000D02*
X131472997Y-90549999D01*
X131472997Y-90549999D02*
X133770001Y-90549999D01*
X129362200Y-90170000D02*
X131092998Y-90170000D01*
D23*
X130048000Y-97028000D02*
X127762000Y-97028000D01*
X127687000Y-69215000D02*
X128020000Y-69215000D01*
X128020000Y-69215000D02*
X129362200Y-69215000D01*
D25*
X127635000Y-69215000D02*
X127687000Y-69215000D01*
X125000000Y-81280000D02*
X125222000Y-81280000D01*
D23*
X125222000Y-81502000D02*
X126762000Y-83042000D01*
D25*
X125222000Y-81280000D02*
X125222000Y-81502000D01*
D23*
X127540000Y-83820000D02*
X129362200Y-83820000D01*
X126762000Y-83042000D02*
X127540000Y-83820000D01*
X131318000Y-62992000D02*
X127508000Y-62992000D01*
X124968000Y-65532000D02*
X124968000Y-67310000D01*
X127508000Y-62992000D02*
X124968000Y-65532000D01*
X126468000Y-67310000D02*
X127000000Y-67842000D01*
X124968000Y-67310000D02*
X126468000Y-67310000D01*
X127635000Y-69215000D02*
X127000000Y-69215000D01*
X127000000Y-67842000D02*
X127000000Y-69215000D01*
X132296000Y-65240000D02*
X131318000Y-64262000D01*
X134620000Y-65240000D02*
X132296000Y-65240000D01*
D27*
G36*
X125072973Y-61254448D02*
G01*
X124861764Y-61296460D01*
X124637008Y-61389557D01*
X124434733Y-61524713D01*
X124262713Y-61696733D01*
X124127557Y-61899008D01*
X124034460Y-62123764D01*
X123987000Y-62362363D01*
X123987000Y-62605637D01*
X124034460Y-62844236D01*
X124127557Y-63068992D01*
X124262713Y-63271267D01*
X124434733Y-63443287D01*
X124637008Y-63578443D01*
X124861764Y-63671540D01*
X125100363Y-63719000D01*
X125343637Y-63719000D01*
X125575552Y-63672870D01*
X124372956Y-64875466D01*
X124339183Y-64903183D01*
X124228589Y-65037942D01*
X124146411Y-65191688D01*
X124095805Y-65358511D01*
X124083000Y-65488524D01*
X124083000Y-65488531D01*
X124078719Y-65532000D01*
X124083000Y-65575469D01*
X124083000Y-65871928D01*
X123968000Y-65871928D01*
X123843518Y-65884188D01*
X123723820Y-65920498D01*
X123613506Y-65979463D01*
X123516815Y-66058815D01*
X123437463Y-66155506D01*
X123378498Y-66265820D01*
X123342188Y-66385518D01*
X123329928Y-66510000D01*
X123329928Y-68110000D01*
X123342188Y-68234482D01*
X123369758Y-68325368D01*
X123301420Y-68346098D01*
X123191106Y-68405063D01*
X123094415Y-68484415D01*
X123015063Y-68581106D01*
X122956098Y-68691420D01*
X122928369Y-68782830D01*
X122910599Y-68800600D01*
X114880722Y-68800600D01*
X114843399Y-68796924D01*
X114806076Y-68800600D01*
X114806067Y-68800600D01*
X114694414Y-68811597D01*
X114551153Y-68855054D01*
X114419124Y-68925626D01*
X114303399Y-69020599D01*
X114279601Y-69049597D01*
X111466199Y-71863000D01*
X111404061Y-71863000D01*
X111204102Y-71902774D01*
X111015744Y-71980795D01*
X110846226Y-72094063D01*
X110702063Y-72238226D01*
X110588795Y-72407744D01*
X110510774Y-72596102D01*
X110471000Y-72796061D01*
X110471000Y-72999939D01*
X110510774Y-73199898D01*
X110588795Y-73388256D01*
X110702063Y-73557774D01*
X110846226Y-73701937D01*
X111015744Y-73815205D01*
X111204102Y-73893226D01*
X111404061Y-73933000D01*
X111607939Y-73933000D01*
X111807898Y-73893226D01*
X111996256Y-73815205D01*
X112165774Y-73701937D01*
X112186331Y-73681380D01*
X112274201Y-73812886D01*
X112467114Y-74005799D01*
X112693957Y-74157371D01*
X112946011Y-74261775D01*
X113213589Y-74315000D01*
X112946011Y-74368225D01*
X112693957Y-74472629D01*
X112467114Y-74624201D01*
X112274201Y-74817114D01*
X112122629Y-75043957D01*
X112018225Y-75296011D01*
X111965000Y-75563589D01*
X111965000Y-75836411D01*
X112018225Y-76103989D01*
X112122629Y-76356043D01*
X112131612Y-76369487D01*
X112098753Y-76379454D01*
X111966724Y-76450026D01*
X111850999Y-76544999D01*
X111827196Y-76574003D01*
X111503003Y-76898196D01*
X111473999Y-76921999D01*
X111443293Y-76959415D01*
X111379026Y-77037724D01*
X111338042Y-77114400D01*
X111308454Y-77169754D01*
X111264997Y-77313015D01*
X111254000Y-77424668D01*
X111254000Y-77424678D01*
X111250324Y-77462000D01*
X111254000Y-77499322D01*
X111254001Y-90740290D01*
X111149774Y-90636063D01*
X110980256Y-90522795D01*
X110791898Y-90444774D01*
X110591939Y-90405000D01*
X110388061Y-90405000D01*
X110188102Y-90444774D01*
X109999744Y-90522795D01*
X109830226Y-90636063D01*
X109686063Y-90780226D01*
X109572795Y-90949744D01*
X109494774Y-91138102D01*
X109455000Y-91338061D01*
X109455000Y-91541939D01*
X109494774Y-91741898D01*
X109572795Y-91930256D01*
X109686063Y-92099774D01*
X109830226Y-92243937D01*
X109999744Y-92357205D01*
X110188102Y-92435226D01*
X110388061Y-92475000D01*
X110507203Y-92475000D01*
X111281246Y-93249043D01*
X111210063Y-93320226D01*
X111096795Y-93489744D01*
X111018774Y-93678102D01*
X110979000Y-93878061D01*
X110979000Y-94081939D01*
X111018774Y-94281898D01*
X111096795Y-94470256D01*
X111210063Y-94639774D01*
X111354226Y-94783937D01*
X111523744Y-94897205D01*
X111712102Y-94975226D01*
X111912061Y-95015000D01*
X112115939Y-95015000D01*
X112315898Y-94975226D01*
X112504256Y-94897205D01*
X112532968Y-94878020D01*
X114255623Y-94878020D01*
X113734723Y-94981633D01*
X113182388Y-95210418D01*
X112685300Y-95542562D01*
X112262562Y-95965300D01*
X111930418Y-96462388D01*
X111701633Y-97014723D01*
X111585000Y-97601079D01*
X111585000Y-98198921D01*
X111701633Y-98785277D01*
X111930418Y-99337612D01*
X112262562Y-99834700D01*
X112685300Y-100257438D01*
X113182388Y-100589582D01*
X113734723Y-100818367D01*
X114321079Y-100935000D01*
X114918921Y-100935000D01*
X115505277Y-100818367D01*
X116057612Y-100589582D01*
X116554700Y-100257438D01*
X116977438Y-99834700D01*
X117309582Y-99337612D01*
X117360370Y-99215000D01*
X119146265Y-99215000D01*
X119221467Y-99396554D01*
X119641161Y-100024670D01*
X120175330Y-100558839D01*
X120803446Y-100978533D01*
X121501372Y-101267623D01*
X122242285Y-101415000D01*
X122997715Y-101415000D01*
X123738628Y-101267623D01*
X124436554Y-100978533D01*
X125064670Y-100558839D01*
X125598839Y-100024670D01*
X126018533Y-99396554D01*
X126307623Y-98698628D01*
X126455000Y-97957715D01*
X126455000Y-97202285D01*
X126396138Y-96906363D01*
X126527000Y-96906363D01*
X126527000Y-97149637D01*
X126574460Y-97388236D01*
X126667557Y-97612992D01*
X126802713Y-97815267D01*
X126974733Y-97987287D01*
X127177008Y-98122443D01*
X127401764Y-98215540D01*
X127640363Y-98263000D01*
X127883637Y-98263000D01*
X128122236Y-98215540D01*
X128346992Y-98122443D01*
X128420315Y-98073450D01*
X128428296Y-98080000D01*
X128368815Y-98128815D01*
X128289463Y-98225506D01*
X128230498Y-98335820D01*
X128194188Y-98455518D01*
X128181928Y-98580000D01*
X128185000Y-99594250D01*
X128343750Y-99753000D01*
X129493000Y-99753000D01*
X129493000Y-99733000D01*
X129747000Y-99733000D01*
X129747000Y-99753000D01*
X130896250Y-99753000D01*
X131055000Y-99594250D01*
X131058072Y-98580000D01*
X131045812Y-98455518D01*
X131009502Y-98335820D01*
X130950537Y-98225506D01*
X130871185Y-98128815D01*
X130811704Y-98080000D01*
X130871185Y-98031185D01*
X130950537Y-97934494D01*
X131009502Y-97824180D01*
X131045812Y-97704482D01*
X131058072Y-97580000D01*
X131058072Y-94980000D01*
X131045812Y-94855518D01*
X131009502Y-94735820D01*
X130950537Y-94625506D01*
X130871185Y-94528815D01*
X130774494Y-94449463D01*
X130664180Y-94390498D01*
X130544482Y-94354188D01*
X130420000Y-94341928D01*
X128820000Y-94341928D01*
X128695518Y-94354188D01*
X128575820Y-94390498D01*
X128465506Y-94449463D01*
X128368815Y-94528815D01*
X128289463Y-94625506D01*
X128230498Y-94735820D01*
X128194188Y-94855518D01*
X128181928Y-94980000D01*
X128181928Y-95865185D01*
X128122236Y-95840460D01*
X127883637Y-95793000D01*
X127640363Y-95793000D01*
X127401764Y-95840460D01*
X127177008Y-95933557D01*
X126974733Y-96068713D01*
X126802713Y-96240733D01*
X126667557Y-96443008D01*
X126574460Y-96667764D01*
X126527000Y-96906363D01*
X126396138Y-96906363D01*
X126307623Y-96461372D01*
X126018533Y-95763446D01*
X125598839Y-95135330D01*
X125064670Y-94601161D01*
X124436554Y-94181467D01*
X123738628Y-93892377D01*
X122997715Y-93745000D01*
X122242285Y-93745000D01*
X121501372Y-93892377D01*
X120803446Y-94181467D01*
X120175330Y-94601161D01*
X119641161Y-95135330D01*
X119221467Y-95763446D01*
X119146265Y-95945000D01*
X116957138Y-95945000D01*
X116554700Y-95542562D01*
X116057612Y-95210418D01*
X115505277Y-94981633D01*
X114984377Y-94878020D01*
X117207479Y-94878020D01*
X117244801Y-94881696D01*
X117282123Y-94878020D01*
X117282134Y-94878020D01*
X117393787Y-94867023D01*
X117537048Y-94823566D01*
X117669077Y-94752994D01*
X117784802Y-94658021D01*
X117808605Y-94629017D01*
X119441872Y-92995750D01*
X122910600Y-92995750D01*
X122920070Y-93115291D01*
X122956650Y-93234907D01*
X123015862Y-93345088D01*
X123095432Y-93441600D01*
X123192302Y-93520735D01*
X123302749Y-93579450D01*
X123422528Y-93615490D01*
X123547037Y-93627470D01*
X124352050Y-93624400D01*
X124510800Y-93465650D01*
X124510800Y-92837000D01*
X124764800Y-92837000D01*
X124764800Y-93465650D01*
X124923550Y-93624400D01*
X125728563Y-93627470D01*
X125853072Y-93615490D01*
X125972851Y-93579450D01*
X126083298Y-93520735D01*
X126180168Y-93441600D01*
X126259738Y-93345088D01*
X126318950Y-93234907D01*
X126355530Y-93115291D01*
X126365000Y-92995750D01*
X126206250Y-92837000D01*
X124764800Y-92837000D01*
X124510800Y-92837000D01*
X123069350Y-92837000D01*
X122910600Y-92995750D01*
X119441872Y-92995750D01*
X120492624Y-91944999D01*
X121829200Y-91944999D01*
X121835198Y-91950997D01*
X121859001Y-91980001D01*
X121974726Y-92074974D01*
X122106755Y-92145546D01*
X122250016Y-92189003D01*
X122361669Y-92200000D01*
X122361679Y-92200000D01*
X122399002Y-92203676D01*
X122436325Y-92200000D01*
X122952091Y-92200000D01*
X122920070Y-92304709D01*
X122910600Y-92424250D01*
X123069350Y-92583000D01*
X124510800Y-92583000D01*
X124510800Y-92563000D01*
X124764800Y-92563000D01*
X124764800Y-92583000D01*
X126206250Y-92583000D01*
X126365000Y-92424250D01*
X126355530Y-92304709D01*
X126342852Y-92263251D01*
X127300603Y-93221003D01*
X127324401Y-93250001D01*
X127440126Y-93344974D01*
X127572155Y-93415546D01*
X127715416Y-93459003D01*
X127827069Y-93470000D01*
X127827078Y-93470000D01*
X127858419Y-93473087D01*
X127915506Y-93519937D01*
X128025820Y-93578902D01*
X128145518Y-93615212D01*
X128270000Y-93627472D01*
X128529427Y-93627472D01*
X128547865Y-93629288D01*
X128566303Y-93627472D01*
X130454400Y-93627472D01*
X130578882Y-93615212D01*
X130698580Y-93578902D01*
X130808894Y-93519937D01*
X130905585Y-93440585D01*
X130984937Y-93343894D01*
X131043902Y-93233580D01*
X131080212Y-93113882D01*
X131092472Y-92989400D01*
X131092472Y-92430600D01*
X131080212Y-92306118D01*
X131043902Y-92186420D01*
X130984937Y-92076106D01*
X130984029Y-92075000D01*
X130984937Y-92073894D01*
X131043902Y-91963580D01*
X131080212Y-91843882D01*
X131092472Y-91719400D01*
X131092472Y-91208359D01*
X131180750Y-91255545D01*
X131324011Y-91299002D01*
X131435664Y-91309999D01*
X131435672Y-91309999D01*
X131472997Y-91313675D01*
X131510322Y-91309999D01*
X133470000Y-91309999D01*
X133348359Y-91473080D01*
X133223175Y-91735901D01*
X133178524Y-91883110D01*
X133299845Y-92113000D01*
X134493000Y-92113000D01*
X134493000Y-92093000D01*
X134747000Y-92093000D01*
X134747000Y-92113000D01*
X134767000Y-92113000D01*
X134767000Y-92367000D01*
X134747000Y-92367000D01*
X134747000Y-92387000D01*
X134493000Y-92387000D01*
X134493000Y-92367000D01*
X133299845Y-92367000D01*
X133178524Y-92596890D01*
X133223175Y-92744099D01*
X133348359Y-93006920D01*
X133522412Y-93240269D01*
X133721806Y-93420000D01*
X132652419Y-93420000D01*
X132620000Y-93416807D01*
X132587581Y-93420000D01*
X132490617Y-93429550D01*
X132366207Y-93467290D01*
X132251550Y-93528575D01*
X132151052Y-93611052D01*
X132068575Y-93711550D01*
X132007290Y-93826207D01*
X131969550Y-93950617D01*
X131956807Y-94080000D01*
X131960000Y-94112418D01*
X131960001Y-101420000D01*
X131010770Y-101420000D01*
X131045812Y-101304482D01*
X131058072Y-101180000D01*
X131055000Y-100165750D01*
X130896250Y-100007000D01*
X129747000Y-100007000D01*
X129747000Y-100027000D01*
X129493000Y-100027000D01*
X129493000Y-100007000D01*
X128343750Y-100007000D01*
X128185000Y-100165750D01*
X128181928Y-101180000D01*
X128194188Y-101304482D01*
X128229230Y-101420000D01*
X107280000Y-101420000D01*
X107280000Y-64281079D01*
X111585000Y-64281079D01*
X111585000Y-64878921D01*
X111701633Y-65465277D01*
X111930418Y-66017612D01*
X112262562Y-66514700D01*
X112685300Y-66937438D01*
X113182388Y-67269582D01*
X113734723Y-67498367D01*
X114321079Y-67615000D01*
X114918921Y-67615000D01*
X115505277Y-67498367D01*
X116057612Y-67269582D01*
X116554700Y-66937438D01*
X116977438Y-66514700D01*
X117309582Y-66017612D01*
X117538367Y-65465277D01*
X117655000Y-64878921D01*
X117655000Y-64359872D01*
X119385000Y-64359872D01*
X119385000Y-64800128D01*
X119470890Y-65231925D01*
X119639369Y-65638669D01*
X119883962Y-66004729D01*
X120195271Y-66316038D01*
X120561331Y-66560631D01*
X120968075Y-66729110D01*
X121399872Y-66815000D01*
X121840128Y-66815000D01*
X122271925Y-66729110D01*
X122678669Y-66560631D01*
X123044729Y-66316038D01*
X123356038Y-66004729D01*
X123600631Y-65638669D01*
X123769110Y-65231925D01*
X123855000Y-64800128D01*
X123855000Y-64359872D01*
X123769110Y-63928075D01*
X123600631Y-63521331D01*
X123356038Y-63155271D01*
X123044729Y-62843962D01*
X122678669Y-62599369D01*
X122271925Y-62430890D01*
X121840128Y-62345000D01*
X121399872Y-62345000D01*
X120968075Y-62430890D01*
X120561331Y-62599369D01*
X120195271Y-62843962D01*
X119883962Y-63155271D01*
X119639369Y-63521331D01*
X119470890Y-63928075D01*
X119385000Y-64359872D01*
X117655000Y-64359872D01*
X117655000Y-64281079D01*
X117538367Y-63694723D01*
X117309582Y-63142388D01*
X116977438Y-62645300D01*
X116554700Y-62222562D01*
X116057612Y-61890418D01*
X115505277Y-61661633D01*
X114918921Y-61545000D01*
X114321079Y-61545000D01*
X113734723Y-61661633D01*
X113182388Y-61890418D01*
X112685300Y-62222562D01*
X112262562Y-62645300D01*
X111930418Y-63142388D01*
X111701633Y-63694723D01*
X111585000Y-64281079D01*
X107280000Y-64281079D01*
X107280000Y-61240000D01*
X125087421Y-61240000D01*
X125072973Y-61254448D01*
G37*
X125072973Y-61254448D02*
X124861764Y-61296460D01*
X124637008Y-61389557D01*
X124434733Y-61524713D01*
X124262713Y-61696733D01*
X124127557Y-61899008D01*
X124034460Y-62123764D01*
X123987000Y-62362363D01*
X123987000Y-62605637D01*
X124034460Y-62844236D01*
X124127557Y-63068992D01*
X124262713Y-63271267D01*
X124434733Y-63443287D01*
X124637008Y-63578443D01*
X124861764Y-63671540D01*
X125100363Y-63719000D01*
X125343637Y-63719000D01*
X125575552Y-63672870D01*
X124372956Y-64875466D01*
X124339183Y-64903183D01*
X124228589Y-65037942D01*
X124146411Y-65191688D01*
X124095805Y-65358511D01*
X124083000Y-65488524D01*
X124083000Y-65488531D01*
X124078719Y-65532000D01*
X124083000Y-65575469D01*
X124083000Y-65871928D01*
X123968000Y-65871928D01*
X123843518Y-65884188D01*
X123723820Y-65920498D01*
X123613506Y-65979463D01*
X123516815Y-66058815D01*
X123437463Y-66155506D01*
X123378498Y-66265820D01*
X123342188Y-66385518D01*
X123329928Y-66510000D01*
X123329928Y-68110000D01*
X123342188Y-68234482D01*
X123369758Y-68325368D01*
X123301420Y-68346098D01*
X123191106Y-68405063D01*
X123094415Y-68484415D01*
X123015063Y-68581106D01*
X122956098Y-68691420D01*
X122928369Y-68782830D01*
X122910599Y-68800600D01*
X114880722Y-68800600D01*
X114843399Y-68796924D01*
X114806076Y-68800600D01*
X114806067Y-68800600D01*
X114694414Y-68811597D01*
X114551153Y-68855054D01*
X114419124Y-68925626D01*
X114303399Y-69020599D01*
X114279601Y-69049597D01*
X111466199Y-71863000D01*
X111404061Y-71863000D01*
X111204102Y-71902774D01*
X111015744Y-71980795D01*
X110846226Y-72094063D01*
X110702063Y-72238226D01*
X110588795Y-72407744D01*
X110510774Y-72596102D01*
X110471000Y-72796061D01*
X110471000Y-72999939D01*
X110510774Y-73199898D01*
X110588795Y-73388256D01*
X110702063Y-73557774D01*
X110846226Y-73701937D01*
X111015744Y-73815205D01*
X111204102Y-73893226D01*
X111404061Y-73933000D01*
X111607939Y-73933000D01*
X111807898Y-73893226D01*
X111996256Y-73815205D01*
X112165774Y-73701937D01*
X112186331Y-73681380D01*
X112274201Y-73812886D01*
X112467114Y-74005799D01*
X112693957Y-74157371D01*
X112946011Y-74261775D01*
X113213589Y-74315000D01*
X112946011Y-74368225D01*
X112693957Y-74472629D01*
X112467114Y-74624201D01*
X112274201Y-74817114D01*
X112122629Y-75043957D01*
X112018225Y-75296011D01*
X111965000Y-75563589D01*
X111965000Y-75836411D01*
X112018225Y-76103989D01*
X112122629Y-76356043D01*
X112131612Y-76369487D01*
X112098753Y-76379454D01*
X111966724Y-76450026D01*
X111850999Y-76544999D01*
X111827196Y-76574003D01*
X111503003Y-76898196D01*
X111473999Y-76921999D01*
X111443293Y-76959415D01*
X111379026Y-77037724D01*
X111338042Y-77114400D01*
X111308454Y-77169754D01*
X111264997Y-77313015D01*
X111254000Y-77424668D01*
X111254000Y-77424678D01*
X111250324Y-77462000D01*
X111254000Y-77499322D01*
X111254001Y-90740290D01*
X111149774Y-90636063D01*
X110980256Y-90522795D01*
X110791898Y-90444774D01*
X110591939Y-90405000D01*
X110388061Y-90405000D01*
X110188102Y-90444774D01*
X109999744Y-90522795D01*
X109830226Y-90636063D01*
X109686063Y-90780226D01*
X109572795Y-90949744D01*
X109494774Y-91138102D01*
X109455000Y-91338061D01*
X109455000Y-91541939D01*
X109494774Y-91741898D01*
X109572795Y-91930256D01*
X109686063Y-92099774D01*
X109830226Y-92243937D01*
X109999744Y-92357205D01*
X110188102Y-92435226D01*
X110388061Y-92475000D01*
X110507203Y-92475000D01*
X111281246Y-93249043D01*
X111210063Y-93320226D01*
X111096795Y-93489744D01*
X111018774Y-93678102D01*
X110979000Y-93878061D01*
X110979000Y-94081939D01*
X111018774Y-94281898D01*
X111096795Y-94470256D01*
X111210063Y-94639774D01*
X111354226Y-94783937D01*
X111523744Y-94897205D01*
X111712102Y-94975226D01*
X111912061Y-95015000D01*
X112115939Y-95015000D01*
X112315898Y-94975226D01*
X112504256Y-94897205D01*
X112532968Y-94878020D01*
X114255623Y-94878020D01*
X113734723Y-94981633D01*
X113182388Y-95210418D01*
X112685300Y-95542562D01*
X112262562Y-95965300D01*
X111930418Y-96462388D01*
X111701633Y-97014723D01*
X111585000Y-97601079D01*
X111585000Y-98198921D01*
X111701633Y-98785277D01*
X111930418Y-99337612D01*
X112262562Y-99834700D01*
X112685300Y-100257438D01*
X113182388Y-100589582D01*
X113734723Y-100818367D01*
X114321079Y-100935000D01*
X114918921Y-100935000D01*
X115505277Y-100818367D01*
X116057612Y-100589582D01*
X116554700Y-100257438D01*
X116977438Y-99834700D01*
X117309582Y-99337612D01*
X117360370Y-99215000D01*
X119146265Y-99215000D01*
X119221467Y-99396554D01*
X119641161Y-100024670D01*
X120175330Y-100558839D01*
X120803446Y-100978533D01*
X121501372Y-101267623D01*
X122242285Y-101415000D01*
X122997715Y-101415000D01*
X123738628Y-101267623D01*
X124436554Y-100978533D01*
X125064670Y-100558839D01*
X125598839Y-100024670D01*
X126018533Y-99396554D01*
X126307623Y-98698628D01*
X126455000Y-97957715D01*
X126455000Y-97202285D01*
X126396138Y-96906363D01*
X126527000Y-96906363D01*
X126527000Y-97149637D01*
X126574460Y-97388236D01*
X126667557Y-97612992D01*
X126802713Y-97815267D01*
X126974733Y-97987287D01*
X127177008Y-98122443D01*
X127401764Y-98215540D01*
X127640363Y-98263000D01*
X127883637Y-98263000D01*
X128122236Y-98215540D01*
X128346992Y-98122443D01*
X128420315Y-98073450D01*
X128428296Y-98080000D01*
X128368815Y-98128815D01*
X128289463Y-98225506D01*
X128230498Y-98335820D01*
X128194188Y-98455518D01*
X128181928Y-98580000D01*
X128185000Y-99594250D01*
X128343750Y-99753000D01*
X129493000Y-99753000D01*
X129493000Y-99733000D01*
X129747000Y-99733000D01*
X129747000Y-99753000D01*
X130896250Y-99753000D01*
X131055000Y-99594250D01*
X131058072Y-98580000D01*
X131045812Y-98455518D01*
X131009502Y-98335820D01*
X130950537Y-98225506D01*
X130871185Y-98128815D01*
X130811704Y-98080000D01*
X130871185Y-98031185D01*
X130950537Y-97934494D01*
X131009502Y-97824180D01*
X131045812Y-97704482D01*
X131058072Y-97580000D01*
X131058072Y-94980000D01*
X131045812Y-94855518D01*
X131009502Y-94735820D01*
X130950537Y-94625506D01*
X130871185Y-94528815D01*
X130774494Y-94449463D01*
X130664180Y-94390498D01*
X130544482Y-94354188D01*
X130420000Y-94341928D01*
X128820000Y-94341928D01*
X128695518Y-94354188D01*
X128575820Y-94390498D01*
X128465506Y-94449463D01*
X128368815Y-94528815D01*
X128289463Y-94625506D01*
X128230498Y-94735820D01*
X128194188Y-94855518D01*
X128181928Y-94980000D01*
X128181928Y-95865185D01*
X128122236Y-95840460D01*
X127883637Y-95793000D01*
X127640363Y-95793000D01*
X127401764Y-95840460D01*
X127177008Y-95933557D01*
X126974733Y-96068713D01*
X126802713Y-96240733D01*
X126667557Y-96443008D01*
X126574460Y-96667764D01*
X126527000Y-96906363D01*
X126396138Y-96906363D01*
X126307623Y-96461372D01*
X126018533Y-95763446D01*
X125598839Y-95135330D01*
X125064670Y-94601161D01*
X124436554Y-94181467D01*
X123738628Y-93892377D01*
X122997715Y-93745000D01*
X122242285Y-93745000D01*
X121501372Y-93892377D01*
X120803446Y-94181467D01*
X120175330Y-94601161D01*
X119641161Y-95135330D01*
X119221467Y-95763446D01*
X119146265Y-95945000D01*
X116957138Y-95945000D01*
X116554700Y-95542562D01*
X116057612Y-95210418D01*
X115505277Y-94981633D01*
X114984377Y-94878020D01*
X117207479Y-94878020D01*
X117244801Y-94881696D01*
X117282123Y-94878020D01*
X117282134Y-94878020D01*
X117393787Y-94867023D01*
X117537048Y-94823566D01*
X117669077Y-94752994D01*
X117784802Y-94658021D01*
X117808605Y-94629017D01*
X119441872Y-92995750D01*
X122910600Y-92995750D01*
X122920070Y-93115291D01*
X122956650Y-93234907D01*
X123015862Y-93345088D01*
X123095432Y-93441600D01*
X123192302Y-93520735D01*
X123302749Y-93579450D01*
X123422528Y-93615490D01*
X123547037Y-93627470D01*
X124352050Y-93624400D01*
X124510800Y-93465650D01*
X124510800Y-92837000D01*
X124764800Y-92837000D01*
X124764800Y-93465650D01*
X124923550Y-93624400D01*
X125728563Y-93627470D01*
X125853072Y-93615490D01*
X125972851Y-93579450D01*
X126083298Y-93520735D01*
X126180168Y-93441600D01*
X126259738Y-93345088D01*
X126318950Y-93234907D01*
X126355530Y-93115291D01*
X126365000Y-92995750D01*
X126206250Y-92837000D01*
X124764800Y-92837000D01*
X124510800Y-92837000D01*
X123069350Y-92837000D01*
X122910600Y-92995750D01*
X119441872Y-92995750D01*
X120492624Y-91944999D01*
X121829200Y-91944999D01*
X121835198Y-91950997D01*
X121859001Y-91980001D01*
X121974726Y-92074974D01*
X122106755Y-92145546D01*
X122250016Y-92189003D01*
X122361669Y-92200000D01*
X122361679Y-92200000D01*
X122399002Y-92203676D01*
X122436325Y-92200000D01*
X122952091Y-92200000D01*
X122920070Y-92304709D01*
X122910600Y-92424250D01*
X123069350Y-92583000D01*
X124510800Y-92583000D01*
X124510800Y-92563000D01*
X124764800Y-92563000D01*
X124764800Y-92583000D01*
X126206250Y-92583000D01*
X126365000Y-92424250D01*
X126355530Y-92304709D01*
X126342852Y-92263251D01*
X127300603Y-93221003D01*
X127324401Y-93250001D01*
X127440126Y-93344974D01*
X127572155Y-93415546D01*
X127715416Y-93459003D01*
X127827069Y-93470000D01*
X127827078Y-93470000D01*
X127858419Y-93473087D01*
X127915506Y-93519937D01*
X128025820Y-93578902D01*
X128145518Y-93615212D01*
X128270000Y-93627472D01*
X128529427Y-93627472D01*
X128547865Y-93629288D01*
X128566303Y-93627472D01*
X130454400Y-93627472D01*
X130578882Y-93615212D01*
X130698580Y-93578902D01*
X130808894Y-93519937D01*
X130905585Y-93440585D01*
X130984937Y-93343894D01*
X131043902Y-93233580D01*
X131080212Y-93113882D01*
X131092472Y-92989400D01*
X131092472Y-92430600D01*
X131080212Y-92306118D01*
X131043902Y-92186420D01*
X130984937Y-92076106D01*
X130984029Y-92075000D01*
X130984937Y-92073894D01*
X131043902Y-91963580D01*
X131080212Y-91843882D01*
X131092472Y-91719400D01*
X131092472Y-91208359D01*
X131180750Y-91255545D01*
X131324011Y-91299002D01*
X131435664Y-91309999D01*
X131435672Y-91309999D01*
X131472997Y-91313675D01*
X131510322Y-91309999D01*
X133470000Y-91309999D01*
X133348359Y-91473080D01*
X133223175Y-91735901D01*
X133178524Y-91883110D01*
X133299845Y-92113000D01*
X134493000Y-92113000D01*
X134493000Y-92093000D01*
X134747000Y-92093000D01*
X134747000Y-92113000D01*
X134767000Y-92113000D01*
X134767000Y-92367000D01*
X134747000Y-92367000D01*
X134747000Y-92387000D01*
X134493000Y-92387000D01*
X134493000Y-92367000D01*
X133299845Y-92367000D01*
X133178524Y-92596890D01*
X133223175Y-92744099D01*
X133348359Y-93006920D01*
X133522412Y-93240269D01*
X133721806Y-93420000D01*
X132652419Y-93420000D01*
X132620000Y-93416807D01*
X132587581Y-93420000D01*
X132490617Y-93429550D01*
X132366207Y-93467290D01*
X132251550Y-93528575D01*
X132151052Y-93611052D01*
X132068575Y-93711550D01*
X132007290Y-93826207D01*
X131969550Y-93950617D01*
X131956807Y-94080000D01*
X131960000Y-94112418D01*
X131960001Y-101420000D01*
X131010770Y-101420000D01*
X131045812Y-101304482D01*
X131058072Y-101180000D01*
X131055000Y-100165750D01*
X130896250Y-100007000D01*
X129747000Y-100007000D01*
X129747000Y-100027000D01*
X129493000Y-100027000D01*
X129493000Y-100007000D01*
X128343750Y-100007000D01*
X128185000Y-100165750D01*
X128181928Y-101180000D01*
X128194188Y-101304482D01*
X128229230Y-101420000D01*
X107280000Y-101420000D01*
X107280000Y-64281079D01*
X111585000Y-64281079D01*
X111585000Y-64878921D01*
X111701633Y-65465277D01*
X111930418Y-66017612D01*
X112262562Y-66514700D01*
X112685300Y-66937438D01*
X113182388Y-67269582D01*
X113734723Y-67498367D01*
X114321079Y-67615000D01*
X114918921Y-67615000D01*
X115505277Y-67498367D01*
X116057612Y-67269582D01*
X116554700Y-66937438D01*
X116977438Y-66514700D01*
X117309582Y-66017612D01*
X117538367Y-65465277D01*
X117655000Y-64878921D01*
X117655000Y-64359872D01*
X119385000Y-64359872D01*
X119385000Y-64800128D01*
X119470890Y-65231925D01*
X119639369Y-65638669D01*
X119883962Y-66004729D01*
X120195271Y-66316038D01*
X120561331Y-66560631D01*
X120968075Y-66729110D01*
X121399872Y-66815000D01*
X121840128Y-66815000D01*
X122271925Y-66729110D01*
X122678669Y-66560631D01*
X123044729Y-66316038D01*
X123356038Y-66004729D01*
X123600631Y-65638669D01*
X123769110Y-65231925D01*
X123855000Y-64800128D01*
X123855000Y-64359872D01*
X123769110Y-63928075D01*
X123600631Y-63521331D01*
X123356038Y-63155271D01*
X123044729Y-62843962D01*
X122678669Y-62599369D01*
X122271925Y-62430890D01*
X121840128Y-62345000D01*
X121399872Y-62345000D01*
X120968075Y-62430890D01*
X120561331Y-62599369D01*
X120195271Y-62843962D01*
X119883962Y-63155271D01*
X119639369Y-63521331D01*
X119470890Y-63928075D01*
X119385000Y-64359872D01*
X117655000Y-64359872D01*
X117655000Y-64281079D01*
X117538367Y-63694723D01*
X117309582Y-63142388D01*
X116977438Y-62645300D01*
X116554700Y-62222562D01*
X116057612Y-61890418D01*
X115505277Y-61661633D01*
X114918921Y-61545000D01*
X114321079Y-61545000D01*
X113734723Y-61661633D01*
X113182388Y-61890418D01*
X112685300Y-62222562D01*
X112262562Y-62645300D01*
X111930418Y-63142388D01*
X111701633Y-63694723D01*
X111585000Y-64281079D01*
X107280000Y-64281079D01*
X107280000Y-61240000D01*
X125087421Y-61240000D01*
X125072973Y-61254448D01*
G36*
X132993643Y-87794974D02*
G01*
X133125672Y-87865546D01*
X133268933Y-87909003D01*
X133339091Y-87915913D01*
X133466525Y-88106632D01*
X133673368Y-88313475D01*
X133847760Y-88430000D01*
X133673368Y-88546525D01*
X133466525Y-88753368D01*
X133304010Y-88996589D01*
X133192068Y-89266842D01*
X133135000Y-89553740D01*
X133135000Y-89789999D01*
X131787798Y-89789999D01*
X131656802Y-89659003D01*
X131632999Y-89629999D01*
X131517274Y-89535026D01*
X131385245Y-89464454D01*
X131241984Y-89420997D01*
X131130331Y-89410000D01*
X131130320Y-89410000D01*
X131092998Y-89406324D01*
X131055676Y-89410000D01*
X131047909Y-89410000D01*
X131079930Y-89305291D01*
X131089400Y-89185750D01*
X130930650Y-89027000D01*
X129489200Y-89027000D01*
X129489200Y-89047000D01*
X129235200Y-89047000D01*
X129235200Y-89027000D01*
X127793750Y-89027000D01*
X127635000Y-89185750D01*
X127644470Y-89305291D01*
X127681050Y-89424907D01*
X127740262Y-89535088D01*
X127740280Y-89535110D01*
X127739463Y-89536106D01*
X127680498Y-89646420D01*
X127644188Y-89766118D01*
X127631928Y-89890600D01*
X127631928Y-89977126D01*
X126804801Y-89150000D01*
X127722550Y-88232252D01*
X127739463Y-88263894D01*
X127740280Y-88264890D01*
X127740262Y-88264912D01*
X127681050Y-88375093D01*
X127644470Y-88494709D01*
X127635000Y-88614250D01*
X127793750Y-88773000D01*
X129235200Y-88773000D01*
X129235200Y-88753000D01*
X129489200Y-88753000D01*
X129489200Y-88773000D01*
X130930650Y-88773000D01*
X131089400Y-88614250D01*
X131079930Y-88494709D01*
X131043350Y-88375093D01*
X130984138Y-88264912D01*
X130984120Y-88264890D01*
X130984937Y-88263894D01*
X131043902Y-88153580D01*
X131080212Y-88033882D01*
X131092472Y-87909400D01*
X131092472Y-87785599D01*
X132982220Y-87785599D01*
X132993643Y-87794974D01*
G37*
X132993643Y-87794974D02*
X133125672Y-87865546D01*
X133268933Y-87909003D01*
X133339091Y-87915913D01*
X133466525Y-88106632D01*
X133673368Y-88313475D01*
X133847760Y-88430000D01*
X133673368Y-88546525D01*
X133466525Y-88753368D01*
X133304010Y-88996589D01*
X133192068Y-89266842D01*
X133135000Y-89553740D01*
X133135000Y-89789999D01*
X131787798Y-89789999D01*
X131656802Y-89659003D01*
X131632999Y-89629999D01*
X131517274Y-89535026D01*
X131385245Y-89464454D01*
X131241984Y-89420997D01*
X131130331Y-89410000D01*
X131130320Y-89410000D01*
X131092998Y-89406324D01*
X131055676Y-89410000D01*
X131047909Y-89410000D01*
X131079930Y-89305291D01*
X131089400Y-89185750D01*
X130930650Y-89027000D01*
X129489200Y-89027000D01*
X129489200Y-89047000D01*
X129235200Y-89047000D01*
X129235200Y-89027000D01*
X127793750Y-89027000D01*
X127635000Y-89185750D01*
X127644470Y-89305291D01*
X127681050Y-89424907D01*
X127740262Y-89535088D01*
X127740280Y-89535110D01*
X127739463Y-89536106D01*
X127680498Y-89646420D01*
X127644188Y-89766118D01*
X127631928Y-89890600D01*
X127631928Y-89977126D01*
X126804801Y-89150000D01*
X127722550Y-88232252D01*
X127739463Y-88263894D01*
X127740280Y-88264890D01*
X127740262Y-88264912D01*
X127681050Y-88375093D01*
X127644470Y-88494709D01*
X127635000Y-88614250D01*
X127793750Y-88773000D01*
X129235200Y-88773000D01*
X129235200Y-88753000D01*
X129489200Y-88753000D01*
X129489200Y-88773000D01*
X130930650Y-88773000D01*
X131089400Y-88614250D01*
X131079930Y-88494709D01*
X131043350Y-88375093D01*
X130984138Y-88264912D01*
X130984120Y-88264890D01*
X130984937Y-88263894D01*
X131043902Y-88153580D01*
X131080212Y-88033882D01*
X131092472Y-87909400D01*
X131092472Y-87785599D01*
X132982220Y-87785599D01*
X132993643Y-87794974D01*
G36*
X114578240Y-84930116D02*
G01*
X114512750Y-85194960D01*
X114500188Y-85467492D01*
X114541035Y-85737238D01*
X114633723Y-85993832D01*
X114694140Y-86106863D01*
X114933007Y-86172388D01*
X115710395Y-85395000D01*
X115696253Y-85380858D01*
X115875858Y-85201253D01*
X115890000Y-85215395D01*
X115904143Y-85201253D01*
X116083748Y-85380858D01*
X116069605Y-85395000D01*
X116846993Y-86172388D01*
X117085860Y-86106863D01*
X117201760Y-85859884D01*
X117267250Y-85595040D01*
X117279812Y-85322508D01*
X117238965Y-85052762D01*
X117146277Y-84796168D01*
X117132290Y-84770000D01*
X120271199Y-84770000D01*
X121102201Y-85601003D01*
X121125999Y-85630001D01*
X121241724Y-85724974D01*
X121373753Y-85795546D01*
X121517014Y-85839003D01*
X121628667Y-85850000D01*
X121628675Y-85850000D01*
X121666000Y-85853676D01*
X121703325Y-85850000D01*
X122951979Y-85850000D01*
X122919788Y-85956118D01*
X122907528Y-86080600D01*
X122907528Y-86341000D01*
X122707061Y-86341000D01*
X122507102Y-86380774D01*
X122318744Y-86458795D01*
X122149226Y-86572063D01*
X122005063Y-86716226D01*
X121891795Y-86885744D01*
X121837841Y-87015999D01*
X118203325Y-87015999D01*
X118166002Y-87012323D01*
X118128679Y-87015999D01*
X118128670Y-87015999D01*
X118017017Y-87026996D01*
X117873756Y-87070453D01*
X117741727Y-87141025D01*
X117626002Y-87235998D01*
X117602204Y-87264996D01*
X117187921Y-87679280D01*
X117117371Y-87508957D01*
X116965799Y-87282114D01*
X116772886Y-87089201D01*
X116546043Y-86937629D01*
X116293989Y-86833225D01*
X116026411Y-86780000D01*
X115994270Y-86780000D01*
X116232238Y-86743965D01*
X116488832Y-86651277D01*
X116601863Y-86590860D01*
X116667388Y-86351993D01*
X115890000Y-85574605D01*
X115112612Y-86351993D01*
X115178137Y-86590860D01*
X115425116Y-86706760D01*
X115689960Y-86772250D01*
X115858096Y-86780000D01*
X115753589Y-86780000D01*
X115486011Y-86833225D01*
X115233957Y-86937629D01*
X115007114Y-87089201D01*
X114814201Y-87282114D01*
X114662629Y-87508957D01*
X114558225Y-87761011D01*
X114522874Y-87938732D01*
X114336413Y-87752272D01*
X114425799Y-87662886D01*
X114577371Y-87436043D01*
X114681775Y-87183989D01*
X114735000Y-86916411D01*
X114735000Y-86643589D01*
X114681775Y-86376011D01*
X114577371Y-86123957D01*
X114425799Y-85897114D01*
X114232886Y-85704201D01*
X114006043Y-85552629D01*
X113753989Y-85448225D01*
X113486411Y-85395000D01*
X113753989Y-85341775D01*
X114006043Y-85237371D01*
X114232886Y-85085799D01*
X114425799Y-84892886D01*
X114507909Y-84770000D01*
X114653378Y-84770000D01*
X114578240Y-84930116D01*
G37*
X114578240Y-84930116D02*
X114512750Y-85194960D01*
X114500188Y-85467492D01*
X114541035Y-85737238D01*
X114633723Y-85993832D01*
X114694140Y-86106863D01*
X114933007Y-86172388D01*
X115710395Y-85395000D01*
X115696253Y-85380858D01*
X115875858Y-85201253D01*
X115890000Y-85215395D01*
X115904143Y-85201253D01*
X116083748Y-85380858D01*
X116069605Y-85395000D01*
X116846993Y-86172388D01*
X117085860Y-86106863D01*
X117201760Y-85859884D01*
X117267250Y-85595040D01*
X117279812Y-85322508D01*
X117238965Y-85052762D01*
X117146277Y-84796168D01*
X117132290Y-84770000D01*
X120271199Y-84770000D01*
X121102201Y-85601003D01*
X121125999Y-85630001D01*
X121241724Y-85724974D01*
X121373753Y-85795546D01*
X121517014Y-85839003D01*
X121628667Y-85850000D01*
X121628675Y-85850000D01*
X121666000Y-85853676D01*
X121703325Y-85850000D01*
X122951979Y-85850000D01*
X122919788Y-85956118D01*
X122907528Y-86080600D01*
X122907528Y-86341000D01*
X122707061Y-86341000D01*
X122507102Y-86380774D01*
X122318744Y-86458795D01*
X122149226Y-86572063D01*
X122005063Y-86716226D01*
X121891795Y-86885744D01*
X121837841Y-87015999D01*
X118203325Y-87015999D01*
X118166002Y-87012323D01*
X118128679Y-87015999D01*
X118128670Y-87015999D01*
X118017017Y-87026996D01*
X117873756Y-87070453D01*
X117741727Y-87141025D01*
X117626002Y-87235998D01*
X117602204Y-87264996D01*
X117187921Y-87679280D01*
X117117371Y-87508957D01*
X116965799Y-87282114D01*
X116772886Y-87089201D01*
X116546043Y-86937629D01*
X116293989Y-86833225D01*
X116026411Y-86780000D01*
X115994270Y-86780000D01*
X116232238Y-86743965D01*
X116488832Y-86651277D01*
X116601863Y-86590860D01*
X116667388Y-86351993D01*
X115890000Y-85574605D01*
X115112612Y-86351993D01*
X115178137Y-86590860D01*
X115425116Y-86706760D01*
X115689960Y-86772250D01*
X115858096Y-86780000D01*
X115753589Y-86780000D01*
X115486011Y-86833225D01*
X115233957Y-86937629D01*
X115007114Y-87089201D01*
X114814201Y-87282114D01*
X114662629Y-87508957D01*
X114558225Y-87761011D01*
X114522874Y-87938732D01*
X114336413Y-87752272D01*
X114425799Y-87662886D01*
X114577371Y-87436043D01*
X114681775Y-87183989D01*
X114735000Y-86916411D01*
X114735000Y-86643589D01*
X114681775Y-86376011D01*
X114577371Y-86123957D01*
X114425799Y-85897114D01*
X114232886Y-85704201D01*
X114006043Y-85552629D01*
X113753989Y-85448225D01*
X113486411Y-85395000D01*
X113753989Y-85341775D01*
X114006043Y-85237371D01*
X114232886Y-85085799D01*
X114425799Y-84892886D01*
X114507909Y-84770000D01*
X114653378Y-84770000D01*
X114578240Y-84930116D01*
G36*
X133135000Y-76346260D02*
G01*
X133192068Y-76633158D01*
X133304010Y-76903411D01*
X133466525Y-77146632D01*
X133673368Y-77353475D01*
X133855534Y-77475195D01*
X133738645Y-77544822D01*
X133522412Y-77739731D01*
X133348359Y-77973080D01*
X133223175Y-78235901D01*
X133178524Y-78383110D01*
X133299845Y-78613000D01*
X134493000Y-78613000D01*
X134493000Y-78593000D01*
X134747000Y-78593000D01*
X134747000Y-78613000D01*
X134767000Y-78613000D01*
X134767000Y-78867000D01*
X134747000Y-78867000D01*
X134747000Y-80060814D01*
X134976891Y-80181481D01*
X135251252Y-80084157D01*
X135501355Y-79935178D01*
X135717588Y-79740269D01*
X135891641Y-79506920D01*
X135960000Y-79363401D01*
X135960000Y-80826112D01*
X135921185Y-80778815D01*
X135824494Y-80699463D01*
X135714180Y-80640498D01*
X135594482Y-80604188D01*
X135470000Y-80591928D01*
X133770000Y-80591928D01*
X133645518Y-80604188D01*
X133525820Y-80640498D01*
X133415506Y-80699463D01*
X133318815Y-80778815D01*
X133239463Y-80875506D01*
X133180498Y-80985820D01*
X133144188Y-81105518D01*
X133131928Y-81230000D01*
X133131928Y-82930000D01*
X133144188Y-83054482D01*
X133180498Y-83174180D01*
X133239463Y-83284494D01*
X133318815Y-83381185D01*
X133415506Y-83460537D01*
X133525820Y-83519502D01*
X133598380Y-83541513D01*
X133466525Y-83673368D01*
X133304010Y-83916589D01*
X133192068Y-84186842D01*
X133135000Y-84473740D01*
X133135000Y-84766260D01*
X133178790Y-84986408D01*
X133169599Y-84995599D01*
X131092472Y-84995599D01*
X131092472Y-84810600D01*
X131080212Y-84686118D01*
X131043902Y-84566420D01*
X130984937Y-84456106D01*
X130984029Y-84455000D01*
X130984937Y-84453894D01*
X131043902Y-84343580D01*
X131080212Y-84223882D01*
X131092472Y-84099400D01*
X131092472Y-83540600D01*
X131080212Y-83416118D01*
X131043902Y-83296420D01*
X130984937Y-83186106D01*
X130905585Y-83089415D01*
X130808894Y-83010063D01*
X130698580Y-82951098D01*
X130578882Y-82914788D01*
X130454400Y-82902528D01*
X128270000Y-82902528D01*
X128145518Y-82914788D01*
X128078888Y-82935000D01*
X127997000Y-82935000D01*
X127997000Y-82920363D01*
X127955898Y-82713728D01*
X128000000Y-82718072D01*
X128714250Y-82715000D01*
X128873000Y-82556250D01*
X128873000Y-81407000D01*
X129127000Y-81407000D01*
X129127000Y-82556250D01*
X129285750Y-82715000D01*
X130000000Y-82718072D01*
X130124482Y-82705812D01*
X130244180Y-82669502D01*
X130354494Y-82610537D01*
X130451185Y-82531185D01*
X130530537Y-82434494D01*
X130589502Y-82324180D01*
X130625812Y-82204482D01*
X130638072Y-82080000D01*
X130635000Y-81565750D01*
X130476250Y-81407000D01*
X129127000Y-81407000D01*
X128873000Y-81407000D01*
X127523750Y-81407000D01*
X127365000Y-81565750D01*
X127362657Y-81958024D01*
X127346992Y-81947557D01*
X127122236Y-81854460D01*
X126883637Y-81807000D01*
X126778579Y-81807000D01*
X126638072Y-81666493D01*
X126638072Y-80480000D01*
X126625812Y-80355518D01*
X126589502Y-80235820D01*
X126530537Y-80125506D01*
X126451185Y-80028815D01*
X126354494Y-79949463D01*
X126244180Y-79890498D01*
X126226339Y-79885086D01*
X126257000Y-79730939D01*
X126257000Y-79527061D01*
X126217226Y-79327102D01*
X126139205Y-79138744D01*
X126025937Y-78969226D01*
X126010922Y-78954211D01*
X126083298Y-78915735D01*
X126180168Y-78836600D01*
X126259738Y-78740088D01*
X126318950Y-78629907D01*
X126355530Y-78510291D01*
X126365000Y-78390750D01*
X126206250Y-78232000D01*
X124764800Y-78232000D01*
X124764800Y-78252000D01*
X124510800Y-78252000D01*
X124510800Y-78232000D01*
X124490800Y-78232000D01*
X124490800Y-77978000D01*
X124510800Y-77978000D01*
X124510800Y-77958000D01*
X124764800Y-77958000D01*
X124764800Y-77978000D01*
X126206250Y-77978000D01*
X126365000Y-77819250D01*
X126355530Y-77699709D01*
X126318950Y-77580093D01*
X126259738Y-77469912D01*
X126259720Y-77469890D01*
X126260537Y-77468894D01*
X126319502Y-77358580D01*
X126355812Y-77238882D01*
X126368072Y-77114400D01*
X126368072Y-76970413D01*
X127203611Y-76970413D01*
X127579205Y-77346008D01*
X127602999Y-77375001D01*
X127631992Y-77398795D01*
X127631996Y-77398799D01*
X127663517Y-77424667D01*
X127718724Y-77469974D01*
X127735325Y-77478848D01*
X127680498Y-77581420D01*
X127644188Y-77701118D01*
X127631928Y-77825600D01*
X127631928Y-78384400D01*
X127644188Y-78508882D01*
X127680498Y-78628580D01*
X127720711Y-78703811D01*
X127701436Y-78711795D01*
X127531918Y-78825063D01*
X127387755Y-78969226D01*
X127274487Y-79138744D01*
X127196466Y-79327102D01*
X127156692Y-79527061D01*
X127156692Y-79730939D01*
X127196466Y-79930898D01*
X127274487Y-80119256D01*
X127387755Y-80288774D01*
X127392880Y-80293899D01*
X127374188Y-80355518D01*
X127361928Y-80480000D01*
X127365000Y-80994250D01*
X127523750Y-81153000D01*
X128873000Y-81153000D01*
X128873000Y-81133000D01*
X129127000Y-81133000D01*
X129127000Y-81153000D01*
X130476250Y-81153000D01*
X130635000Y-80994250D01*
X130638072Y-80480000D01*
X130625812Y-80355518D01*
X130589502Y-80235820D01*
X130530537Y-80125506D01*
X130451185Y-80028815D01*
X130354494Y-79949463D01*
X130244180Y-79890498D01*
X130124482Y-79854188D01*
X130000000Y-79841928D01*
X129285750Y-79845000D01*
X129177772Y-79952978D01*
X129186918Y-79930898D01*
X129198443Y-79872959D01*
X129873203Y-79198199D01*
X129902201Y-79174401D01*
X129965812Y-79096890D01*
X133178524Y-79096890D01*
X133223175Y-79244099D01*
X133348359Y-79506920D01*
X133522412Y-79740269D01*
X133738645Y-79935178D01*
X133988748Y-80084157D01*
X134263109Y-80181481D01*
X134493000Y-80060814D01*
X134493000Y-78867000D01*
X133299845Y-78867000D01*
X133178524Y-79096890D01*
X129965812Y-79096890D01*
X129997174Y-79058676D01*
X130016526Y-79022472D01*
X130454400Y-79022472D01*
X130578882Y-79010212D01*
X130698580Y-78973902D01*
X130808894Y-78914937D01*
X130905585Y-78835585D01*
X130984937Y-78738894D01*
X131043902Y-78628580D01*
X131080212Y-78508882D01*
X131092472Y-78384400D01*
X131092472Y-77825600D01*
X131080212Y-77701118D01*
X131043902Y-77581420D01*
X130984937Y-77471106D01*
X130984029Y-77470000D01*
X130984937Y-77468894D01*
X131043902Y-77358580D01*
X131080212Y-77238882D01*
X131092472Y-77114400D01*
X131092472Y-76555600D01*
X131080212Y-76431118D01*
X131048021Y-76325000D01*
X133135000Y-76325000D01*
X133135000Y-76346260D01*
G37*
X133135000Y-76346260D02*
X133192068Y-76633158D01*
X133304010Y-76903411D01*
X133466525Y-77146632D01*
X133673368Y-77353475D01*
X133855534Y-77475195D01*
X133738645Y-77544822D01*
X133522412Y-77739731D01*
X133348359Y-77973080D01*
X133223175Y-78235901D01*
X133178524Y-78383110D01*
X133299845Y-78613000D01*
X134493000Y-78613000D01*
X134493000Y-78593000D01*
X134747000Y-78593000D01*
X134747000Y-78613000D01*
X134767000Y-78613000D01*
X134767000Y-78867000D01*
X134747000Y-78867000D01*
X134747000Y-80060814D01*
X134976891Y-80181481D01*
X135251252Y-80084157D01*
X135501355Y-79935178D01*
X135717588Y-79740269D01*
X135891641Y-79506920D01*
X135960000Y-79363401D01*
X135960000Y-80826112D01*
X135921185Y-80778815D01*
X135824494Y-80699463D01*
X135714180Y-80640498D01*
X135594482Y-80604188D01*
X135470000Y-80591928D01*
X133770000Y-80591928D01*
X133645518Y-80604188D01*
X133525820Y-80640498D01*
X133415506Y-80699463D01*
X133318815Y-80778815D01*
X133239463Y-80875506D01*
X133180498Y-80985820D01*
X133144188Y-81105518D01*
X133131928Y-81230000D01*
X133131928Y-82930000D01*
X133144188Y-83054482D01*
X133180498Y-83174180D01*
X133239463Y-83284494D01*
X133318815Y-83381185D01*
X133415506Y-83460537D01*
X133525820Y-83519502D01*
X133598380Y-83541513D01*
X133466525Y-83673368D01*
X133304010Y-83916589D01*
X133192068Y-84186842D01*
X133135000Y-84473740D01*
X133135000Y-84766260D01*
X133178790Y-84986408D01*
X133169599Y-84995599D01*
X131092472Y-84995599D01*
X131092472Y-84810600D01*
X131080212Y-84686118D01*
X131043902Y-84566420D01*
X130984937Y-84456106D01*
X130984029Y-84455000D01*
X130984937Y-84453894D01*
X131043902Y-84343580D01*
X131080212Y-84223882D01*
X131092472Y-84099400D01*
X131092472Y-83540600D01*
X131080212Y-83416118D01*
X131043902Y-83296420D01*
X130984937Y-83186106D01*
X130905585Y-83089415D01*
X130808894Y-83010063D01*
X130698580Y-82951098D01*
X130578882Y-82914788D01*
X130454400Y-82902528D01*
X128270000Y-82902528D01*
X128145518Y-82914788D01*
X128078888Y-82935000D01*
X127997000Y-82935000D01*
X127997000Y-82920363D01*
X127955898Y-82713728D01*
X128000000Y-82718072D01*
X128714250Y-82715000D01*
X128873000Y-82556250D01*
X128873000Y-81407000D01*
X129127000Y-81407000D01*
X129127000Y-82556250D01*
X129285750Y-82715000D01*
X130000000Y-82718072D01*
X130124482Y-82705812D01*
X130244180Y-82669502D01*
X130354494Y-82610537D01*
X130451185Y-82531185D01*
X130530537Y-82434494D01*
X130589502Y-82324180D01*
X130625812Y-82204482D01*
X130638072Y-82080000D01*
X130635000Y-81565750D01*
X130476250Y-81407000D01*
X129127000Y-81407000D01*
X128873000Y-81407000D01*
X127523750Y-81407000D01*
X127365000Y-81565750D01*
X127362657Y-81958024D01*
X127346992Y-81947557D01*
X127122236Y-81854460D01*
X126883637Y-81807000D01*
X126778579Y-81807000D01*
X126638072Y-81666493D01*
X126638072Y-80480000D01*
X126625812Y-80355518D01*
X126589502Y-80235820D01*
X126530537Y-80125506D01*
X126451185Y-80028815D01*
X126354494Y-79949463D01*
X126244180Y-79890498D01*
X126226339Y-79885086D01*
X126257000Y-79730939D01*
X126257000Y-79527061D01*
X126217226Y-79327102D01*
X126139205Y-79138744D01*
X126025937Y-78969226D01*
X126010922Y-78954211D01*
X126083298Y-78915735D01*
X126180168Y-78836600D01*
X126259738Y-78740088D01*
X126318950Y-78629907D01*
X126355530Y-78510291D01*
X126365000Y-78390750D01*
X126206250Y-78232000D01*
X124764800Y-78232000D01*
X124764800Y-78252000D01*
X124510800Y-78252000D01*
X124510800Y-78232000D01*
X124490800Y-78232000D01*
X124490800Y-77978000D01*
X124510800Y-77978000D01*
X124510800Y-77958000D01*
X124764800Y-77958000D01*
X124764800Y-77978000D01*
X126206250Y-77978000D01*
X126365000Y-77819250D01*
X126355530Y-77699709D01*
X126318950Y-77580093D01*
X126259738Y-77469912D01*
X126259720Y-77469890D01*
X126260537Y-77468894D01*
X126319502Y-77358580D01*
X126355812Y-77238882D01*
X126368072Y-77114400D01*
X126368072Y-76970413D01*
X127203611Y-76970413D01*
X127579205Y-77346008D01*
X127602999Y-77375001D01*
X127631992Y-77398795D01*
X127631996Y-77398799D01*
X127663517Y-77424667D01*
X127718724Y-77469974D01*
X127735325Y-77478848D01*
X127680498Y-77581420D01*
X127644188Y-77701118D01*
X127631928Y-77825600D01*
X127631928Y-78384400D01*
X127644188Y-78508882D01*
X127680498Y-78628580D01*
X127720711Y-78703811D01*
X127701436Y-78711795D01*
X127531918Y-78825063D01*
X127387755Y-78969226D01*
X127274487Y-79138744D01*
X127196466Y-79327102D01*
X127156692Y-79527061D01*
X127156692Y-79730939D01*
X127196466Y-79930898D01*
X127274487Y-80119256D01*
X127387755Y-80288774D01*
X127392880Y-80293899D01*
X127374188Y-80355518D01*
X127361928Y-80480000D01*
X127365000Y-80994250D01*
X127523750Y-81153000D01*
X128873000Y-81153000D01*
X128873000Y-81133000D01*
X129127000Y-81133000D01*
X129127000Y-81153000D01*
X130476250Y-81153000D01*
X130635000Y-80994250D01*
X130638072Y-80480000D01*
X130625812Y-80355518D01*
X130589502Y-80235820D01*
X130530537Y-80125506D01*
X130451185Y-80028815D01*
X130354494Y-79949463D01*
X130244180Y-79890498D01*
X130124482Y-79854188D01*
X130000000Y-79841928D01*
X129285750Y-79845000D01*
X129177772Y-79952978D01*
X129186918Y-79930898D01*
X129198443Y-79872959D01*
X129873203Y-79198199D01*
X129902201Y-79174401D01*
X129965812Y-79096890D01*
X133178524Y-79096890D01*
X133223175Y-79244099D01*
X133348359Y-79506920D01*
X133522412Y-79740269D01*
X133738645Y-79935178D01*
X133988748Y-80084157D01*
X134263109Y-80181481D01*
X134493000Y-80060814D01*
X134493000Y-78867000D01*
X133299845Y-78867000D01*
X133178524Y-79096890D01*
X129965812Y-79096890D01*
X129997174Y-79058676D01*
X130016526Y-79022472D01*
X130454400Y-79022472D01*
X130578882Y-79010212D01*
X130698580Y-78973902D01*
X130808894Y-78914937D01*
X130905585Y-78835585D01*
X130984937Y-78738894D01*
X131043902Y-78628580D01*
X131080212Y-78508882D01*
X131092472Y-78384400D01*
X131092472Y-77825600D01*
X131080212Y-77701118D01*
X131043902Y-77581420D01*
X130984937Y-77471106D01*
X130984029Y-77470000D01*
X130984937Y-77468894D01*
X131043902Y-77358580D01*
X131080212Y-77238882D01*
X131092472Y-77114400D01*
X131092472Y-76555600D01*
X131080212Y-76431118D01*
X131048021Y-76325000D01*
X133135000Y-76325000D01*
X133135000Y-76346260D01*
G36*
X133178791Y-73293592D02*
G01*
X133135000Y-73513740D01*
X133135000Y-73806260D01*
X133192068Y-74093158D01*
X133304010Y-74363411D01*
X133466525Y-74606632D01*
X133664893Y-74805000D01*
X131047909Y-74805000D01*
X131079930Y-74700291D01*
X131089400Y-74580750D01*
X130930650Y-74422000D01*
X129489200Y-74422000D01*
X129489200Y-74442000D01*
X129235200Y-74442000D01*
X129235200Y-74422000D01*
X127793750Y-74422000D01*
X127635000Y-74580750D01*
X127644470Y-74700291D01*
X127681050Y-74819907D01*
X127740262Y-74930088D01*
X127740280Y-74930110D01*
X127739463Y-74931106D01*
X127680498Y-75041420D01*
X127644188Y-75161118D01*
X127631928Y-75285600D01*
X127631928Y-75457916D01*
X127555746Y-75450413D01*
X127555735Y-75450413D01*
X127518413Y-75446737D01*
X127481091Y-75450413D01*
X126368072Y-75450413D01*
X126368072Y-75285600D01*
X126355812Y-75161118D01*
X126319502Y-75041420D01*
X126315818Y-75034528D01*
X126427845Y-75000546D01*
X126559874Y-74929974D01*
X126675599Y-74835001D01*
X126699402Y-74805997D01*
X127657148Y-73848251D01*
X127644470Y-73889709D01*
X127635000Y-74009250D01*
X127793750Y-74168000D01*
X129235200Y-74168000D01*
X129235200Y-74148000D01*
X129489200Y-74148000D01*
X129489200Y-74168000D01*
X130930650Y-74168000D01*
X131089400Y-74009250D01*
X131079930Y-73889709D01*
X131043350Y-73770093D01*
X130984138Y-73659912D01*
X130984120Y-73659890D01*
X130984937Y-73658894D01*
X131043902Y-73548580D01*
X131080212Y-73428882D01*
X131092472Y-73304400D01*
X131092472Y-73180599D01*
X133065798Y-73180599D01*
X133178791Y-73293592D01*
G37*
X133178791Y-73293592D02*
X133135000Y-73513740D01*
X133135000Y-73806260D01*
X133192068Y-74093158D01*
X133304010Y-74363411D01*
X133466525Y-74606632D01*
X133664893Y-74805000D01*
X131047909Y-74805000D01*
X131079930Y-74700291D01*
X131089400Y-74580750D01*
X130930650Y-74422000D01*
X129489200Y-74422000D01*
X129489200Y-74442000D01*
X129235200Y-74442000D01*
X129235200Y-74422000D01*
X127793750Y-74422000D01*
X127635000Y-74580750D01*
X127644470Y-74700291D01*
X127681050Y-74819907D01*
X127740262Y-74930088D01*
X127740280Y-74930110D01*
X127739463Y-74931106D01*
X127680498Y-75041420D01*
X127644188Y-75161118D01*
X127631928Y-75285600D01*
X127631928Y-75457916D01*
X127555746Y-75450413D01*
X127555735Y-75450413D01*
X127518413Y-75446737D01*
X127481091Y-75450413D01*
X126368072Y-75450413D01*
X126368072Y-75285600D01*
X126355812Y-75161118D01*
X126319502Y-75041420D01*
X126315818Y-75034528D01*
X126427845Y-75000546D01*
X126559874Y-74929974D01*
X126675599Y-74835001D01*
X126699402Y-74805997D01*
X127657148Y-73848251D01*
X127644470Y-73889709D01*
X127635000Y-74009250D01*
X127793750Y-74168000D01*
X129235200Y-74168000D01*
X129235200Y-74148000D01*
X129489200Y-74148000D01*
X129489200Y-74168000D01*
X130930650Y-74168000D01*
X131089400Y-74009250D01*
X131079930Y-73889709D01*
X131043350Y-73770093D01*
X130984138Y-73659912D01*
X130984120Y-73659890D01*
X130984937Y-73658894D01*
X131043902Y-73548580D01*
X131080212Y-73428882D01*
X131092472Y-73304400D01*
X131092472Y-73180599D01*
X133065798Y-73180599D01*
X133178791Y-73293592D01*
G36*
X130044928Y-64747000D02*
G01*
X130057188Y-64871482D01*
X130093498Y-64991180D01*
X130152463Y-65101494D01*
X130231815Y-65198185D01*
X130328506Y-65277537D01*
X130438820Y-65336502D01*
X130558518Y-65372812D01*
X130683000Y-65385072D01*
X131189493Y-65385072D01*
X131639470Y-65835049D01*
X131667183Y-65868817D01*
X131700951Y-65896530D01*
X131700953Y-65896532D01*
X131730156Y-65920498D01*
X131801941Y-65979411D01*
X131955687Y-66061589D01*
X132122510Y-66112195D01*
X132252523Y-66125000D01*
X132252531Y-66125000D01*
X132296000Y-66129281D01*
X132339469Y-66125000D01*
X133135375Y-66125000D01*
X133144188Y-66214482D01*
X133180498Y-66334180D01*
X133239463Y-66444494D01*
X133318815Y-66541185D01*
X133415506Y-66620537D01*
X133525820Y-66679502D01*
X133645518Y-66715812D01*
X133770000Y-66728072D01*
X135470000Y-66728072D01*
X135594482Y-66715812D01*
X135714180Y-66679502D01*
X135824494Y-66620537D01*
X135921185Y-66541185D01*
X135960001Y-66493888D01*
X135960001Y-67326112D01*
X135921185Y-67278815D01*
X135824494Y-67199463D01*
X135714180Y-67140498D01*
X135594482Y-67104188D01*
X135470000Y-67091928D01*
X133770000Y-67091928D01*
X133645518Y-67104188D01*
X133525820Y-67140498D01*
X133415506Y-67199463D01*
X133318815Y-67278815D01*
X133239463Y-67375506D01*
X133180498Y-67485820D01*
X133144188Y-67605518D01*
X133131928Y-67730000D01*
X133131928Y-69430000D01*
X133144188Y-69554482D01*
X133180498Y-69674180D01*
X133239463Y-69784494D01*
X133318815Y-69881185D01*
X133415506Y-69960537D01*
X133525820Y-70019502D01*
X133598380Y-70041513D01*
X133466525Y-70173368D01*
X133341822Y-70360000D01*
X131092472Y-70360000D01*
X131092472Y-70205600D01*
X131080212Y-70081118D01*
X131043902Y-69961420D01*
X130984937Y-69851106D01*
X130984029Y-69850000D01*
X130984937Y-69848894D01*
X131043902Y-69738580D01*
X131080212Y-69618882D01*
X131092472Y-69494400D01*
X131092472Y-68935600D01*
X131080212Y-68811118D01*
X131043902Y-68691420D01*
X130984937Y-68581106D01*
X130905585Y-68484415D01*
X130808894Y-68405063D01*
X130698580Y-68346098D01*
X130578882Y-68309788D01*
X130571198Y-68309031D01*
X130593812Y-68234482D01*
X130606072Y-68110000D01*
X130603000Y-67595750D01*
X130444250Y-67437000D01*
X129095000Y-67437000D01*
X129095000Y-67457000D01*
X128841000Y-67457000D01*
X128841000Y-67437000D01*
X128821000Y-67437000D01*
X128821000Y-67183000D01*
X128841000Y-67183000D01*
X128841000Y-66033750D01*
X129095000Y-66033750D01*
X129095000Y-67183000D01*
X130444250Y-67183000D01*
X130603000Y-67024250D01*
X130606072Y-66510000D01*
X130593812Y-66385518D01*
X130557502Y-66265820D01*
X130498537Y-66155506D01*
X130419185Y-66058815D01*
X130322494Y-65979463D01*
X130212180Y-65920498D01*
X130092482Y-65884188D01*
X129968000Y-65871928D01*
X129253750Y-65875000D01*
X129095000Y-66033750D01*
X128841000Y-66033750D01*
X128682250Y-65875000D01*
X127968000Y-65871928D01*
X127843518Y-65884188D01*
X127723820Y-65920498D01*
X127613506Y-65979463D01*
X127516815Y-66058815D01*
X127437463Y-66155506D01*
X127378498Y-66265820D01*
X127342188Y-66385518D01*
X127329928Y-66510000D01*
X127332394Y-66922816D01*
X127124534Y-66714956D01*
X127096817Y-66681183D01*
X126962059Y-66570589D01*
X126808313Y-66488411D01*
X126641490Y-66437805D01*
X126598545Y-66433575D01*
X126593812Y-66385518D01*
X126557502Y-66265820D01*
X126498537Y-66155506D01*
X126419185Y-66058815D01*
X126322494Y-65979463D01*
X126212180Y-65920498D01*
X126092482Y-65884188D01*
X125968000Y-65871928D01*
X125879650Y-65871928D01*
X127874579Y-63877000D01*
X130044928Y-63877000D01*
X130044928Y-64747000D01*
G37*
X130044928Y-64747000D02*
X130057188Y-64871482D01*
X130093498Y-64991180D01*
X130152463Y-65101494D01*
X130231815Y-65198185D01*
X130328506Y-65277537D01*
X130438820Y-65336502D01*
X130558518Y-65372812D01*
X130683000Y-65385072D01*
X131189493Y-65385072D01*
X131639470Y-65835049D01*
X131667183Y-65868817D01*
X131700951Y-65896530D01*
X131700953Y-65896532D01*
X131730156Y-65920498D01*
X131801941Y-65979411D01*
X131955687Y-66061589D01*
X132122510Y-66112195D01*
X132252523Y-66125000D01*
X132252531Y-66125000D01*
X132296000Y-66129281D01*
X132339469Y-66125000D01*
X133135375Y-66125000D01*
X133144188Y-66214482D01*
X133180498Y-66334180D01*
X133239463Y-66444494D01*
X133318815Y-66541185D01*
X133415506Y-66620537D01*
X133525820Y-66679502D01*
X133645518Y-66715812D01*
X133770000Y-66728072D01*
X135470000Y-66728072D01*
X135594482Y-66715812D01*
X135714180Y-66679502D01*
X135824494Y-66620537D01*
X135921185Y-66541185D01*
X135960001Y-66493888D01*
X135960001Y-67326112D01*
X135921185Y-67278815D01*
X135824494Y-67199463D01*
X135714180Y-67140498D01*
X135594482Y-67104188D01*
X135470000Y-67091928D01*
X133770000Y-67091928D01*
X133645518Y-67104188D01*
X133525820Y-67140498D01*
X133415506Y-67199463D01*
X133318815Y-67278815D01*
X133239463Y-67375506D01*
X133180498Y-67485820D01*
X133144188Y-67605518D01*
X133131928Y-67730000D01*
X133131928Y-69430000D01*
X133144188Y-69554482D01*
X133180498Y-69674180D01*
X133239463Y-69784494D01*
X133318815Y-69881185D01*
X133415506Y-69960537D01*
X133525820Y-70019502D01*
X133598380Y-70041513D01*
X133466525Y-70173368D01*
X133341822Y-70360000D01*
X131092472Y-70360000D01*
X131092472Y-70205600D01*
X131080212Y-70081118D01*
X131043902Y-69961420D01*
X130984937Y-69851106D01*
X130984029Y-69850000D01*
X130984937Y-69848894D01*
X131043902Y-69738580D01*
X131080212Y-69618882D01*
X131092472Y-69494400D01*
X131092472Y-68935600D01*
X131080212Y-68811118D01*
X131043902Y-68691420D01*
X130984937Y-68581106D01*
X130905585Y-68484415D01*
X130808894Y-68405063D01*
X130698580Y-68346098D01*
X130578882Y-68309788D01*
X130571198Y-68309031D01*
X130593812Y-68234482D01*
X130606072Y-68110000D01*
X130603000Y-67595750D01*
X130444250Y-67437000D01*
X129095000Y-67437000D01*
X129095000Y-67457000D01*
X128841000Y-67457000D01*
X128841000Y-67437000D01*
X128821000Y-67437000D01*
X128821000Y-67183000D01*
X128841000Y-67183000D01*
X128841000Y-66033750D01*
X129095000Y-66033750D01*
X129095000Y-67183000D01*
X130444250Y-67183000D01*
X130603000Y-67024250D01*
X130606072Y-66510000D01*
X130593812Y-66385518D01*
X130557502Y-66265820D01*
X130498537Y-66155506D01*
X130419185Y-66058815D01*
X130322494Y-65979463D01*
X130212180Y-65920498D01*
X130092482Y-65884188D01*
X129968000Y-65871928D01*
X129253750Y-65875000D01*
X129095000Y-66033750D01*
X128841000Y-66033750D01*
X128682250Y-65875000D01*
X127968000Y-65871928D01*
X127843518Y-65884188D01*
X127723820Y-65920498D01*
X127613506Y-65979463D01*
X127516815Y-66058815D01*
X127437463Y-66155506D01*
X127378498Y-66265820D01*
X127342188Y-66385518D01*
X127329928Y-66510000D01*
X127332394Y-66922816D01*
X127124534Y-66714956D01*
X127096817Y-66681183D01*
X126962059Y-66570589D01*
X126808313Y-66488411D01*
X126641490Y-66437805D01*
X126598545Y-66433575D01*
X126593812Y-66385518D01*
X126557502Y-66265820D01*
X126498537Y-66155506D01*
X126419185Y-66058815D01*
X126322494Y-65979463D01*
X126212180Y-65920498D01*
X126092482Y-65884188D01*
X125968000Y-65871928D01*
X125879650Y-65871928D01*
X127874579Y-63877000D01*
X130044928Y-63877000D01*
X130044928Y-64747000D01*
M02*
