G04 #@! TF.GenerationSoftware,KiCad,Pcbnew,(5.1.5-0-10_14)*
G04 #@! TF.CreationDate,2020-04-14T07:35:52+01:00*
G04 #@! TF.ProjectId,RS422,52533432-322e-46b6-9963-61645f706362,rev?*
G04 #@! TF.SameCoordinates,Original*
G04 #@! TF.FileFunction,Legend,Bot*
G04 #@! TF.FilePolarity,Positive*
%FSLAX46Y46*%
G04 Gerber Fmt 4.6, Leading zero omitted, Abs format (unit mm)*
G04 Created by KiCad (PCBNEW (5.1.5-0-10_14)) date 2020-04-14 07:35:52*
%MOMM*%
%LPD*%
G04 APERTURE LIST*
%ADD10C,0.150000*%
G04 APERTURE END LIST*
D10*
X108422380Y-76746666D02*
X108422380Y-76937142D01*
X108470000Y-77032380D01*
X108565238Y-77127619D01*
X108755714Y-77175238D01*
X109089047Y-77175238D01*
X109279523Y-77127619D01*
X109374761Y-77032380D01*
X109422380Y-76937142D01*
X109422380Y-76746666D01*
X109374761Y-76651428D01*
X109279523Y-76556190D01*
X109089047Y-76508571D01*
X108755714Y-76508571D01*
X108565238Y-76556190D01*
X108470000Y-76651428D01*
X108422380Y-76746666D01*
X108755714Y-77603809D02*
X109755714Y-77603809D01*
X108803333Y-77603809D02*
X108755714Y-77699047D01*
X108755714Y-77889523D01*
X108803333Y-77984761D01*
X108850952Y-78032380D01*
X108946190Y-78080000D01*
X109231904Y-78080000D01*
X109327142Y-78032380D01*
X109374761Y-77984761D01*
X109422380Y-77889523D01*
X109422380Y-77699047D01*
X109374761Y-77603809D01*
X109374761Y-78889523D02*
X109422380Y-78794285D01*
X109422380Y-78603809D01*
X109374761Y-78508571D01*
X109279523Y-78460952D01*
X108898571Y-78460952D01*
X108803333Y-78508571D01*
X108755714Y-78603809D01*
X108755714Y-78794285D01*
X108803333Y-78889523D01*
X108898571Y-78937142D01*
X108993809Y-78937142D01*
X109089047Y-78460952D01*
X108755714Y-79365714D02*
X109422380Y-79365714D01*
X108850952Y-79365714D02*
X108803333Y-79413333D01*
X108755714Y-79508571D01*
X108755714Y-79651428D01*
X108803333Y-79746666D01*
X108898571Y-79794285D01*
X109422380Y-79794285D01*
X108898571Y-81365714D02*
X108898571Y-81032380D01*
X109422380Y-81032380D02*
X108422380Y-81032380D01*
X108422380Y-81508571D01*
X108898571Y-82222857D02*
X108898571Y-81889523D01*
X109422380Y-81889523D02*
X108422380Y-81889523D01*
X108422380Y-82365714D01*
X108898571Y-83080000D02*
X108946190Y-83222857D01*
X108993809Y-83270476D01*
X109089047Y-83318095D01*
X109231904Y-83318095D01*
X109327142Y-83270476D01*
X109374761Y-83222857D01*
X109422380Y-83127619D01*
X109422380Y-82746666D01*
X108422380Y-82746666D01*
X108422380Y-83080000D01*
X108470000Y-83175238D01*
X108517619Y-83222857D01*
X108612857Y-83270476D01*
X108708095Y-83270476D01*
X108803333Y-83222857D01*
X108850952Y-83175238D01*
X108898571Y-83080000D01*
X108898571Y-82746666D01*
X109422380Y-83889523D02*
X109374761Y-83794285D01*
X109327142Y-83746666D01*
X109231904Y-83699047D01*
X108946190Y-83699047D01*
X108850952Y-83746666D01*
X108803333Y-83794285D01*
X108755714Y-83889523D01*
X108755714Y-84032380D01*
X108803333Y-84127619D01*
X108850952Y-84175238D01*
X108946190Y-84222857D01*
X109231904Y-84222857D01*
X109327142Y-84175238D01*
X109374761Y-84127619D01*
X109422380Y-84032380D01*
X109422380Y-83889523D01*
X109422380Y-85080000D02*
X108898571Y-85080000D01*
X108803333Y-85032380D01*
X108755714Y-84937142D01*
X108755714Y-84746666D01*
X108803333Y-84651428D01*
X109374761Y-85080000D02*
X109422380Y-84984761D01*
X109422380Y-84746666D01*
X109374761Y-84651428D01*
X109279523Y-84603809D01*
X109184285Y-84603809D01*
X109089047Y-84651428D01*
X109041428Y-84746666D01*
X109041428Y-84984761D01*
X108993809Y-85080000D01*
X109422380Y-85556190D02*
X108755714Y-85556190D01*
X108946190Y-85556190D02*
X108850952Y-85603809D01*
X108803333Y-85651428D01*
X108755714Y-85746666D01*
X108755714Y-85841904D01*
X109422380Y-86603809D02*
X108422380Y-86603809D01*
X109374761Y-86603809D02*
X109422380Y-86508571D01*
X109422380Y-86318095D01*
X109374761Y-86222857D01*
X109327142Y-86175238D01*
X109231904Y-86127619D01*
X108946190Y-86127619D01*
X108850952Y-86175238D01*
X108803333Y-86222857D01*
X108755714Y-86318095D01*
X108755714Y-86508571D01*
X108803333Y-86603809D01*
X111072380Y-68151428D02*
X110072380Y-68151428D01*
X110072380Y-68389523D01*
X110120000Y-68532380D01*
X110215238Y-68627619D01*
X110310476Y-68675238D01*
X110500952Y-68722857D01*
X110643809Y-68722857D01*
X110834285Y-68675238D01*
X110929523Y-68627619D01*
X111024761Y-68532380D01*
X111072380Y-68389523D01*
X111072380Y-68151428D01*
X111072380Y-69151428D02*
X110405714Y-69151428D01*
X110072380Y-69151428D02*
X110120000Y-69103809D01*
X110167619Y-69151428D01*
X110120000Y-69199047D01*
X110072380Y-69151428D01*
X110167619Y-69151428D01*
X110405714Y-69484761D02*
X110405714Y-69865714D01*
X111072380Y-69627619D02*
X110215238Y-69627619D01*
X110120000Y-69675238D01*
X110072380Y-69770476D01*
X110072380Y-69865714D01*
X110405714Y-70056190D02*
X110405714Y-70437142D01*
X111072380Y-70199047D02*
X110215238Y-70199047D01*
X110120000Y-70246666D01*
X110072380Y-70341904D01*
X110072380Y-70437142D01*
X111024761Y-71151428D02*
X111072380Y-71056190D01*
X111072380Y-70865714D01*
X111024761Y-70770476D01*
X110929523Y-70722857D01*
X110548571Y-70722857D01*
X110453333Y-70770476D01*
X110405714Y-70865714D01*
X110405714Y-71056190D01*
X110453333Y-71151428D01*
X110548571Y-71199047D01*
X110643809Y-71199047D01*
X110739047Y-70722857D01*
X111072380Y-71627619D02*
X110405714Y-71627619D01*
X110596190Y-71627619D02*
X110500952Y-71675238D01*
X110453333Y-71722857D01*
X110405714Y-71818095D01*
X110405714Y-71913333D01*
X111024761Y-72627619D02*
X111072380Y-72532380D01*
X111072380Y-72341904D01*
X111024761Y-72246666D01*
X110929523Y-72199047D01*
X110548571Y-72199047D01*
X110453333Y-72246666D01*
X110405714Y-72341904D01*
X110405714Y-72532380D01*
X110453333Y-72627619D01*
X110548571Y-72675238D01*
X110643809Y-72675238D01*
X110739047Y-72199047D01*
X110405714Y-73103809D02*
X111072380Y-73103809D01*
X110500952Y-73103809D02*
X110453333Y-73151428D01*
X110405714Y-73246666D01*
X110405714Y-73389523D01*
X110453333Y-73484761D01*
X110548571Y-73532380D01*
X111072380Y-73532380D01*
X110405714Y-73865714D02*
X110405714Y-74246666D01*
X110072380Y-74008571D02*
X110929523Y-74008571D01*
X111024761Y-74056190D01*
X111072380Y-74151428D01*
X111072380Y-74246666D01*
X111072380Y-74580000D02*
X110405714Y-74580000D01*
X110072380Y-74580000D02*
X110120000Y-74532380D01*
X110167619Y-74580000D01*
X110120000Y-74627619D01*
X110072380Y-74580000D01*
X110167619Y-74580000D01*
X111072380Y-75484761D02*
X110548571Y-75484761D01*
X110453333Y-75437142D01*
X110405714Y-75341904D01*
X110405714Y-75151428D01*
X110453333Y-75056190D01*
X111024761Y-75484761D02*
X111072380Y-75389523D01*
X111072380Y-75151428D01*
X111024761Y-75056190D01*
X110929523Y-75008571D01*
X110834285Y-75008571D01*
X110739047Y-75056190D01*
X110691428Y-75151428D01*
X110691428Y-75389523D01*
X110643809Y-75484761D01*
X111072380Y-76103809D02*
X111024761Y-76008571D01*
X110929523Y-75960952D01*
X110072380Y-75960952D01*
X111072380Y-77246666D02*
X110072380Y-77246666D01*
X110786666Y-77580000D01*
X110072380Y-77913333D01*
X111072380Y-77913333D01*
X111072380Y-78532380D02*
X111024761Y-78437142D01*
X110977142Y-78389523D01*
X110881904Y-78341904D01*
X110596190Y-78341904D01*
X110500952Y-78389523D01*
X110453333Y-78437142D01*
X110405714Y-78532380D01*
X110405714Y-78675238D01*
X110453333Y-78770476D01*
X110500952Y-78818095D01*
X110596190Y-78865714D01*
X110881904Y-78865714D01*
X110977142Y-78818095D01*
X111024761Y-78770476D01*
X111072380Y-78675238D01*
X111072380Y-78532380D01*
X110405714Y-79151428D02*
X110405714Y-79532380D01*
X110072380Y-79294285D02*
X110929523Y-79294285D01*
X111024761Y-79341904D01*
X111072380Y-79437142D01*
X111072380Y-79532380D01*
X111072380Y-80008571D02*
X111024761Y-79913333D01*
X110977142Y-79865714D01*
X110881904Y-79818095D01*
X110596190Y-79818095D01*
X110500952Y-79865714D01*
X110453333Y-79913333D01*
X110405714Y-80008571D01*
X110405714Y-80151428D01*
X110453333Y-80246666D01*
X110500952Y-80294285D01*
X110596190Y-80341904D01*
X110881904Y-80341904D01*
X110977142Y-80294285D01*
X111024761Y-80246666D01*
X111072380Y-80151428D01*
X111072380Y-80008571D01*
X111072380Y-80770476D02*
X110405714Y-80770476D01*
X110596190Y-80770476D02*
X110500952Y-80818095D01*
X110453333Y-80865714D01*
X110405714Y-80960952D01*
X110405714Y-81056190D01*
X110548571Y-82151428D02*
X110548571Y-82484761D01*
X111072380Y-82627619D02*
X111072380Y-82151428D01*
X110072380Y-82151428D01*
X110072380Y-82627619D01*
X110405714Y-83056190D02*
X111072380Y-83056190D01*
X110500952Y-83056190D02*
X110453333Y-83103809D01*
X110405714Y-83199047D01*
X110405714Y-83341904D01*
X110453333Y-83437142D01*
X110548571Y-83484761D01*
X111072380Y-83484761D01*
X111024761Y-84389523D02*
X111072380Y-84294285D01*
X111072380Y-84103809D01*
X111024761Y-84008571D01*
X110977142Y-83960952D01*
X110881904Y-83913333D01*
X110596190Y-83913333D01*
X110500952Y-83960952D01*
X110453333Y-84008571D01*
X110405714Y-84103809D01*
X110405714Y-84294285D01*
X110453333Y-84389523D01*
X111072380Y-84960952D02*
X111024761Y-84865714D01*
X110977142Y-84818095D01*
X110881904Y-84770476D01*
X110596190Y-84770476D01*
X110500952Y-84818095D01*
X110453333Y-84865714D01*
X110405714Y-84960952D01*
X110405714Y-85103809D01*
X110453333Y-85199047D01*
X110500952Y-85246666D01*
X110596190Y-85294285D01*
X110881904Y-85294285D01*
X110977142Y-85246666D01*
X111024761Y-85199047D01*
X111072380Y-85103809D01*
X111072380Y-84960952D01*
X111072380Y-86151428D02*
X110072380Y-86151428D01*
X111024761Y-86151428D02*
X111072380Y-86056190D01*
X111072380Y-85865714D01*
X111024761Y-85770476D01*
X110977142Y-85722857D01*
X110881904Y-85675238D01*
X110596190Y-85675238D01*
X110500952Y-85722857D01*
X110453333Y-85770476D01*
X110405714Y-85865714D01*
X110405714Y-86056190D01*
X110453333Y-86151428D01*
X111024761Y-87008571D02*
X111072380Y-86913333D01*
X111072380Y-86722857D01*
X111024761Y-86627619D01*
X110929523Y-86579999D01*
X110548571Y-86579999D01*
X110453333Y-86627619D01*
X110405714Y-86722857D01*
X110405714Y-86913333D01*
X110453333Y-87008571D01*
X110548571Y-87056190D01*
X110643809Y-87056190D01*
X110739047Y-86579999D01*
X111072380Y-87484761D02*
X110405714Y-87484761D01*
X110596190Y-87484761D02*
X110500952Y-87532380D01*
X110453333Y-87579999D01*
X110405714Y-87675238D01*
X110405714Y-87770476D01*
X111072380Y-88865714D02*
X110072380Y-88865714D01*
X110405714Y-89341904D02*
X111072380Y-89341904D01*
X110500952Y-89341904D02*
X110453333Y-89389523D01*
X110405714Y-89484761D01*
X110405714Y-89627619D01*
X110453333Y-89722857D01*
X110548571Y-89770476D01*
X111072380Y-89770476D01*
X110405714Y-90103809D02*
X110405714Y-90484761D01*
X110072380Y-90246666D02*
X110929523Y-90246666D01*
X111024761Y-90294285D01*
X111072380Y-90389523D01*
X111072380Y-90484761D01*
X111024761Y-91199047D02*
X111072380Y-91103809D01*
X111072380Y-90913333D01*
X111024761Y-90818095D01*
X110929523Y-90770476D01*
X110548571Y-90770476D01*
X110453333Y-90818095D01*
X110405714Y-90913333D01*
X110405714Y-91103809D01*
X110453333Y-91199047D01*
X110548571Y-91246666D01*
X110643809Y-91246666D01*
X110739047Y-90770476D01*
X111072380Y-91675238D02*
X110405714Y-91675238D01*
X110596190Y-91675238D02*
X110500952Y-91722857D01*
X110453333Y-91770476D01*
X110405714Y-91865714D01*
X110405714Y-91960952D01*
X110405714Y-92151428D02*
X110405714Y-92532380D01*
X111072380Y-92294285D02*
X110215238Y-92294285D01*
X110120000Y-92341904D01*
X110072380Y-92437142D01*
X110072380Y-92532380D01*
X111072380Y-93294285D02*
X110548571Y-93294285D01*
X110453333Y-93246666D01*
X110405714Y-93151428D01*
X110405714Y-92960952D01*
X110453333Y-92865714D01*
X111024761Y-93294285D02*
X111072380Y-93199047D01*
X111072380Y-92960952D01*
X111024761Y-92865714D01*
X110929523Y-92818095D01*
X110834285Y-92818095D01*
X110739047Y-92865714D01*
X110691428Y-92960952D01*
X110691428Y-93199047D01*
X110643809Y-93294285D01*
X111024761Y-94199047D02*
X111072380Y-94103809D01*
X111072380Y-93913333D01*
X111024761Y-93818095D01*
X110977142Y-93770476D01*
X110881904Y-93722857D01*
X110596190Y-93722857D01*
X110500952Y-93770476D01*
X110453333Y-93818095D01*
X110405714Y-93913333D01*
X110405714Y-94103809D01*
X110453333Y-94199047D01*
X111024761Y-95008571D02*
X111072380Y-94913333D01*
X111072380Y-94722857D01*
X111024761Y-94627619D01*
X110929523Y-94579999D01*
X110548571Y-94579999D01*
X110453333Y-94627619D01*
X110405714Y-94722857D01*
X110405714Y-94913333D01*
X110453333Y-95008571D01*
X110548571Y-95056190D01*
X110643809Y-95056190D01*
X110739047Y-94579999D01*
X112055714Y-80151428D02*
X112722380Y-80389523D01*
X112055714Y-80627619D01*
X112722380Y-81532380D02*
X112722380Y-80960952D01*
X112722380Y-81246666D02*
X111722380Y-81246666D01*
X111865238Y-81151428D01*
X111960476Y-81056190D01*
X112008095Y-80960952D01*
X112627142Y-81960952D02*
X112674761Y-82008571D01*
X112722380Y-81960952D01*
X112674761Y-81913333D01*
X112627142Y-81960952D01*
X112722380Y-81960952D01*
X111722380Y-82627619D02*
X111722380Y-82722857D01*
X111770000Y-82818095D01*
X111817619Y-82865714D01*
X111912857Y-82913333D01*
X112103333Y-82960952D01*
X112341428Y-82960952D01*
X112531904Y-82913333D01*
X112627142Y-82865714D01*
X112674761Y-82818095D01*
X112722380Y-82722857D01*
X112722380Y-82627619D01*
X112674761Y-82532380D01*
X112627142Y-82484761D01*
X112531904Y-82437142D01*
X112341428Y-82389523D01*
X112103333Y-82389523D01*
X111912857Y-82437142D01*
X111817619Y-82484761D01*
X111770000Y-82532380D01*
X111722380Y-82627619D01*
M02*
