G04 #@! TF.GenerationSoftware,KiCad,Pcbnew,(5.1.5-0-10_14)*
G04 #@! TF.CreationDate,2020-04-14T14:24:53+01:00*
G04 #@! TF.ProjectId,RS422,52533432-322e-46b6-9963-61645f706362,rev?*
G04 #@! TF.SameCoordinates,Original*
G04 #@! TF.FileFunction,Copper,L2,Bot*
G04 #@! TF.FilePolarity,Positive*
%FSLAX46Y46*%
G04 Gerber Fmt 4.6, Leading zero omitted, Abs format (unit mm)*
G04 Created by KiCad (PCBNEW (5.1.5-0-10_14)) date 2020-04-14 14:24:53*
%MOMM*%
%LPD*%
G04 APERTURE LIST*
%ADD10C,6.400000*%
%ADD11R,1.700000X1.700000*%
%ADD12R,1.500000X1.500000*%
%ADD13C,1.500000*%
%ADD14C,4.800000*%
%ADD15O,1.700000X1.700000*%
%ADD16C,1.200000*%
%ADD17C,0.800000*%
%ADD18C,1.000000*%
%ADD19C,0.500000*%
%ADD20C,2.000000*%
%ADD21C,0.250000*%
%ADD22C,0.254000*%
G04 APERTURE END LIST*
D10*
X121620000Y-97580000D03*
D11*
X134620000Y-65240000D03*
D12*
X115890000Y-90935000D03*
D13*
X115890000Y-88165000D03*
X115890000Y-85395000D03*
X115890000Y-82625000D03*
X115890000Y-79855000D03*
X115890000Y-77085000D03*
X115890000Y-74315000D03*
X115890000Y-71545000D03*
X113350000Y-89550000D03*
X113350000Y-86780000D03*
X113350000Y-84010000D03*
X113350000Y-81240000D03*
X113350000Y-78470000D03*
X113350000Y-75700000D03*
X113350000Y-72930000D03*
D14*
X114620000Y-64580000D03*
X114620000Y-97900000D03*
D15*
X134620000Y-78740000D03*
X134620000Y-76200000D03*
X134620000Y-73660000D03*
X134620000Y-71120000D03*
D11*
X134620000Y-68580000D03*
D15*
X134620000Y-92240000D03*
X134620000Y-89700000D03*
X134620000Y-87160000D03*
X134620000Y-84620000D03*
D11*
X134620000Y-82080000D03*
D16*
X132080000Y-88900000D03*
X132080000Y-81280000D03*
X121158000Y-92456000D03*
X120638971Y-86217329D03*
X128270000Y-65024000D03*
X132081010Y-74040000D03*
X125222000Y-62484000D03*
D17*
X121031000Y-82804000D03*
X120484745Y-76171747D03*
X111506000Y-72898000D03*
X110490000Y-91440000D03*
X121168642Y-88840589D03*
X122627938Y-76610412D03*
X122809000Y-90170000D03*
X122809000Y-87376000D03*
X112014000Y-93980000D03*
X125222000Y-79629000D03*
X128191692Y-79629000D03*
X121793000Y-83693000D03*
X120142000Y-72390000D03*
X122204246Y-74452246D03*
D16*
X127762000Y-97028000D03*
X126762000Y-83042000D03*
X127000000Y-69215000D03*
D18*
X132080000Y-81280000D02*
X132080000Y-88900000D01*
X132080000Y-90570000D02*
X134620000Y-92240000D01*
X132080000Y-88900000D02*
X132080000Y-90570000D01*
D19*
X121158000Y-92456000D02*
X119868640Y-91166640D01*
X119868640Y-86987660D02*
X120638971Y-86217329D01*
X119868640Y-91166640D02*
X119868640Y-86987660D01*
D18*
X128270000Y-65024000D02*
X132081010Y-68835010D01*
X132081010Y-68835010D02*
X132081010Y-74040000D01*
X132080000Y-81280000D02*
X132080000Y-74041010D01*
X132080000Y-74041010D02*
X132081010Y-74040000D01*
D19*
X117575000Y-88165000D02*
X118110000Y-87630000D01*
X121920000Y-72390000D02*
X121920000Y-70866000D01*
X118110000Y-76708000D02*
X121920000Y-72390000D01*
X118110000Y-87630000D02*
X118110000Y-76708000D01*
X115890000Y-88165000D02*
X117575000Y-88165000D01*
X125222000Y-67564000D02*
X121920000Y-70866000D01*
X125222000Y-62357000D02*
X125222000Y-67564000D01*
X129794000Y-62357000D02*
X125222000Y-62357000D01*
X134112000Y-68580000D02*
X129794000Y-62357000D01*
X134620000Y-68580000D02*
X134112000Y-68580000D01*
D20*
X108045010Y-95091010D02*
X110854000Y-97900000D01*
X108045010Y-67468990D02*
X108045010Y-95091010D01*
X110854000Y-97900000D02*
X114620000Y-97900000D01*
X110429000Y-65085000D02*
X108045010Y-67468990D01*
X114935000Y-65085000D02*
X110429000Y-65085000D01*
X115890000Y-96630000D02*
X114620000Y-97900000D01*
X115890000Y-90935000D02*
X115890000Y-96630000D01*
D21*
X121031000Y-82804000D02*
X120484745Y-82257745D01*
X120484745Y-76737432D02*
X120484745Y-76171747D01*
X120484745Y-82257745D02*
X120484745Y-76737432D01*
X111506000Y-76200000D02*
X111506000Y-72898000D01*
X112522000Y-76962000D02*
X111506000Y-76200000D01*
X114046000Y-76962000D02*
X112522000Y-76962000D01*
X114057660Y-76962000D02*
X112522000Y-76962000D01*
X114046000Y-76962000D02*
X114057660Y-76962000D01*
X115890000Y-79855000D02*
X114046000Y-76962000D01*
X110490000Y-72390000D02*
X111335000Y-71545000D01*
X111335000Y-71545000D02*
X115890000Y-71545000D01*
X110490000Y-91440000D02*
X110490000Y-72390000D01*
X122627938Y-77176097D02*
X122627938Y-76610412D01*
X122627938Y-86393649D02*
X122627938Y-77176097D01*
X121168642Y-88840589D02*
X121168642Y-87852945D01*
X121168642Y-87852945D02*
X122627938Y-86393649D01*
X122809000Y-90170000D02*
X122809000Y-87376000D01*
X113350000Y-81240000D02*
X111506000Y-83084000D01*
X111506000Y-83084000D02*
X111506000Y-93472000D01*
X111506000Y-93472000D02*
X112014000Y-93980000D01*
X125222000Y-79629000D02*
X128191692Y-79629000D01*
X119602000Y-72930000D02*
X120142000Y-72390000D01*
X113350000Y-72930000D02*
X119602000Y-72930000D01*
X121793000Y-74863492D02*
X121804247Y-74852245D01*
X121793000Y-83693000D02*
X121793000Y-74863492D01*
X121804247Y-74852245D02*
X122204246Y-74452246D01*
D19*
X128761999Y-96028001D02*
X128761999Y-85073999D01*
X127762000Y-97028000D02*
X128761999Y-96028001D01*
X128761999Y-85073999D02*
X126762000Y-83074000D01*
D21*
X126762000Y-83074000D02*
X126762000Y-83042000D01*
D19*
X129667000Y-69850000D02*
X128020000Y-69215000D01*
X129667000Y-80137000D02*
X129667000Y-69850000D01*
X126762000Y-83042000D02*
X129667000Y-80137000D01*
X128020000Y-69215000D02*
X127000000Y-69215000D01*
D22*
G36*
X133131928Y-68719954D02*
G01*
X133131928Y-69430000D01*
X133144188Y-69554482D01*
X133180498Y-69674180D01*
X133239463Y-69784494D01*
X133318815Y-69881185D01*
X133415506Y-69960537D01*
X133525820Y-70019502D01*
X133598380Y-70041513D01*
X133466525Y-70173368D01*
X133304010Y-70416589D01*
X133192068Y-70686842D01*
X133135000Y-70973740D01*
X133135000Y-71266260D01*
X133192068Y-71553158D01*
X133304010Y-71823411D01*
X133466525Y-72066632D01*
X133673368Y-72273475D01*
X133847760Y-72390000D01*
X133673368Y-72506525D01*
X133466525Y-72713368D01*
X133304010Y-72956589D01*
X133192068Y-73226842D01*
X133135000Y-73513740D01*
X133135000Y-73806260D01*
X133192068Y-74093158D01*
X133304010Y-74363411D01*
X133466525Y-74606632D01*
X133673368Y-74813475D01*
X133847760Y-74930000D01*
X133673368Y-75046525D01*
X133466525Y-75253368D01*
X133304010Y-75496589D01*
X133192068Y-75766842D01*
X133135000Y-76053740D01*
X133135000Y-76346260D01*
X133192068Y-76633158D01*
X133304010Y-76903411D01*
X133466525Y-77146632D01*
X133673368Y-77353475D01*
X133855534Y-77475195D01*
X133738645Y-77544822D01*
X133522412Y-77739731D01*
X133348359Y-77973080D01*
X133223175Y-78235901D01*
X133178524Y-78383110D01*
X133299845Y-78613000D01*
X134493000Y-78613000D01*
X134493000Y-78593000D01*
X134747000Y-78593000D01*
X134747000Y-78613000D01*
X134767000Y-78613000D01*
X134767000Y-78867000D01*
X134747000Y-78867000D01*
X134747000Y-80060814D01*
X134976891Y-80181481D01*
X135251252Y-80084157D01*
X135501355Y-79935178D01*
X135717588Y-79740269D01*
X135891641Y-79506920D01*
X135960000Y-79363401D01*
X135960000Y-80826112D01*
X135921185Y-80778815D01*
X135824494Y-80699463D01*
X135714180Y-80640498D01*
X135594482Y-80604188D01*
X135470000Y-80591928D01*
X133770000Y-80591928D01*
X133645518Y-80604188D01*
X133525820Y-80640498D01*
X133415506Y-80699463D01*
X133318815Y-80778815D01*
X133239463Y-80875506D01*
X133180498Y-80985820D01*
X133144188Y-81105518D01*
X133131928Y-81230000D01*
X133131928Y-82930000D01*
X133144188Y-83054482D01*
X133180498Y-83174180D01*
X133239463Y-83284494D01*
X133318815Y-83381185D01*
X133415506Y-83460537D01*
X133525820Y-83519502D01*
X133598380Y-83541513D01*
X133466525Y-83673368D01*
X133304010Y-83916589D01*
X133192068Y-84186842D01*
X133135000Y-84473740D01*
X133135000Y-84766260D01*
X133192068Y-85053158D01*
X133304010Y-85323411D01*
X133466525Y-85566632D01*
X133673368Y-85773475D01*
X133847760Y-85890000D01*
X133673368Y-86006525D01*
X133466525Y-86213368D01*
X133304010Y-86456589D01*
X133192068Y-86726842D01*
X133135000Y-87013740D01*
X133135000Y-87306260D01*
X133192068Y-87593158D01*
X133304010Y-87863411D01*
X133466525Y-88106632D01*
X133673368Y-88313475D01*
X133847760Y-88430000D01*
X133673368Y-88546525D01*
X133466525Y-88753368D01*
X133304010Y-88996589D01*
X133192068Y-89266842D01*
X133135000Y-89553740D01*
X133135000Y-89846260D01*
X133192068Y-90133158D01*
X133304010Y-90403411D01*
X133466525Y-90646632D01*
X133673368Y-90853475D01*
X133855534Y-90975195D01*
X133738645Y-91044822D01*
X133522412Y-91239731D01*
X133348359Y-91473080D01*
X133223175Y-91735901D01*
X133178524Y-91883110D01*
X133299845Y-92113000D01*
X134493000Y-92113000D01*
X134493000Y-92093000D01*
X134747000Y-92093000D01*
X134747000Y-92113000D01*
X134767000Y-92113000D01*
X134767000Y-92367000D01*
X134747000Y-92367000D01*
X134747000Y-92387000D01*
X134493000Y-92387000D01*
X134493000Y-92367000D01*
X133299845Y-92367000D01*
X133178524Y-92596890D01*
X133223175Y-92744099D01*
X133348359Y-93006920D01*
X133522412Y-93240269D01*
X133721806Y-93420000D01*
X132652419Y-93420000D01*
X132620000Y-93416807D01*
X132587581Y-93420000D01*
X132490617Y-93429550D01*
X132366207Y-93467290D01*
X132251550Y-93528575D01*
X132151052Y-93611052D01*
X132068575Y-93711550D01*
X132007290Y-93826207D01*
X131969550Y-93950617D01*
X131956807Y-94080000D01*
X131960000Y-94112418D01*
X131960001Y-101420000D01*
X107280000Y-101420000D01*
X107280000Y-96638238D01*
X109641080Y-98999319D01*
X109692286Y-99061714D01*
X109941248Y-99266031D01*
X110075167Y-99337612D01*
X110225285Y-99417852D01*
X110533483Y-99511343D01*
X110854000Y-99542911D01*
X110934322Y-99535000D01*
X112062309Y-99535000D01*
X112262562Y-99834700D01*
X112685300Y-100257438D01*
X113182388Y-100589582D01*
X113734723Y-100818367D01*
X114321079Y-100935000D01*
X114918921Y-100935000D01*
X115505277Y-100818367D01*
X116057612Y-100589582D01*
X116554700Y-100257438D01*
X116977438Y-99834700D01*
X117309582Y-99337612D01*
X117538367Y-98785277D01*
X117655000Y-98198921D01*
X117655000Y-97601079D01*
X117575676Y-97202285D01*
X117785000Y-97202285D01*
X117785000Y-97957715D01*
X117932377Y-98698628D01*
X118221467Y-99396554D01*
X118641161Y-100024670D01*
X119175330Y-100558839D01*
X119803446Y-100978533D01*
X120501372Y-101267623D01*
X121242285Y-101415000D01*
X121997715Y-101415000D01*
X122738628Y-101267623D01*
X123436554Y-100978533D01*
X124064670Y-100558839D01*
X124598839Y-100024670D01*
X125018533Y-99396554D01*
X125307623Y-98698628D01*
X125455000Y-97957715D01*
X125455000Y-97202285D01*
X125307623Y-96461372D01*
X125018533Y-95763446D01*
X124598839Y-95135330D01*
X124064670Y-94601161D01*
X123436554Y-94181467D01*
X122738628Y-93892377D01*
X121997715Y-93745000D01*
X121242285Y-93745000D01*
X120501372Y-93892377D01*
X119803446Y-94181467D01*
X119175330Y-94601161D01*
X118641161Y-95135330D01*
X118221467Y-95763446D01*
X117932377Y-96461372D01*
X117785000Y-97202285D01*
X117575676Y-97202285D01*
X117538367Y-97014723D01*
X117503346Y-96930176D01*
X117525000Y-96710322D01*
X117525000Y-96710320D01*
X117532911Y-96630001D01*
X117525000Y-96549681D01*
X117525000Y-90854678D01*
X117501343Y-90614484D01*
X117407852Y-90306285D01*
X117256031Y-90022248D01*
X117253131Y-90018714D01*
X117229502Y-89940820D01*
X117170537Y-89830506D01*
X117091185Y-89733815D01*
X116994494Y-89654463D01*
X116884180Y-89595498D01*
X116806284Y-89571869D01*
X116802751Y-89568969D01*
X116518714Y-89417148D01*
X116499960Y-89411459D01*
X116546043Y-89392371D01*
X116772886Y-89240799D01*
X116963685Y-89050000D01*
X117531531Y-89050000D01*
X117575000Y-89054281D01*
X117618469Y-89050000D01*
X117618477Y-89050000D01*
X117748490Y-89037195D01*
X117915313Y-88986589D01*
X118069059Y-88904411D01*
X118203817Y-88793817D01*
X118231534Y-88760044D01*
X118705045Y-88286533D01*
X118738817Y-88258817D01*
X118849411Y-88124059D01*
X118931589Y-87970313D01*
X118982195Y-87803490D01*
X118995000Y-87673477D01*
X118995000Y-87673467D01*
X118999281Y-87630001D01*
X118995000Y-87586535D01*
X118995000Y-77042622D01*
X119491921Y-76479444D01*
X119567540Y-76662003D01*
X119680808Y-76831521D01*
X119724746Y-76875459D01*
X119724745Y-82220422D01*
X119721069Y-82257745D01*
X119724745Y-82295067D01*
X119724745Y-82295077D01*
X119735742Y-82406730D01*
X119767600Y-82511753D01*
X119779199Y-82549991D01*
X119849771Y-82682021D01*
X119865911Y-82701687D01*
X119944744Y-82797746D01*
X119973747Y-82821548D01*
X119996000Y-82843801D01*
X119996000Y-82905939D01*
X120035774Y-83105898D01*
X120113795Y-83294256D01*
X120227063Y-83463774D01*
X120371226Y-83607937D01*
X120540744Y-83721205D01*
X120729102Y-83799226D01*
X120760078Y-83805388D01*
X120797774Y-83994898D01*
X120875795Y-84183256D01*
X120989063Y-84352774D01*
X121133226Y-84496937D01*
X121302744Y-84610205D01*
X121491102Y-84688226D01*
X121691061Y-84728000D01*
X121867938Y-84728000D01*
X121867938Y-86078847D01*
X120657640Y-87289146D01*
X120628642Y-87312944D01*
X120604844Y-87341942D01*
X120604843Y-87341943D01*
X120533668Y-87428669D01*
X120463096Y-87560699D01*
X120432822Y-87660503D01*
X120427546Y-87677898D01*
X120419640Y-87703960D01*
X120404966Y-87852945D01*
X120408643Y-87890277D01*
X120408643Y-88136877D01*
X120364705Y-88180815D01*
X120251437Y-88350333D01*
X120173416Y-88538691D01*
X120133642Y-88738650D01*
X120133642Y-88942528D01*
X120173416Y-89142487D01*
X120251437Y-89330845D01*
X120364705Y-89500363D01*
X120508868Y-89644526D01*
X120678386Y-89757794D01*
X120866744Y-89835815D01*
X121066703Y-89875589D01*
X121270581Y-89875589D01*
X121470540Y-89835815D01*
X121658898Y-89757794D01*
X121828416Y-89644526D01*
X121972579Y-89500363D01*
X122049000Y-89385990D01*
X122049000Y-89466289D01*
X122005063Y-89510226D01*
X121891795Y-89679744D01*
X121813774Y-89868102D01*
X121774000Y-90068061D01*
X121774000Y-90271939D01*
X121813774Y-90471898D01*
X121891795Y-90660256D01*
X122005063Y-90829774D01*
X122149226Y-90973937D01*
X122318744Y-91087205D01*
X122507102Y-91165226D01*
X122707061Y-91205000D01*
X122910939Y-91205000D01*
X123110898Y-91165226D01*
X123299256Y-91087205D01*
X123468774Y-90973937D01*
X123612937Y-90829774D01*
X123726205Y-90660256D01*
X123804226Y-90471898D01*
X123844000Y-90271939D01*
X123844000Y-90068061D01*
X123804226Y-89868102D01*
X123726205Y-89679744D01*
X123612937Y-89510226D01*
X123569000Y-89466289D01*
X123569000Y-88079711D01*
X123612937Y-88035774D01*
X123726205Y-87866256D01*
X123804226Y-87677898D01*
X123844000Y-87477939D01*
X123844000Y-87274061D01*
X123804226Y-87074102D01*
X123726205Y-86885744D01*
X123612937Y-86716226D01*
X123468774Y-86572063D01*
X123379892Y-86512674D01*
X123387938Y-86430982D01*
X123387938Y-86430973D01*
X123391614Y-86393650D01*
X123387938Y-86356327D01*
X123387938Y-79527061D01*
X124187000Y-79527061D01*
X124187000Y-79730939D01*
X124226774Y-79930898D01*
X124304795Y-80119256D01*
X124418063Y-80288774D01*
X124562226Y-80432937D01*
X124731744Y-80546205D01*
X124920102Y-80624226D01*
X125120061Y-80664000D01*
X125323939Y-80664000D01*
X125523898Y-80624226D01*
X125712256Y-80546205D01*
X125881774Y-80432937D01*
X125925711Y-80389000D01*
X127487981Y-80389000D01*
X127531918Y-80432937D01*
X127701436Y-80546205D01*
X127889794Y-80624226D01*
X127921824Y-80630597D01*
X126745422Y-81807000D01*
X126640363Y-81807000D01*
X126401764Y-81854460D01*
X126177008Y-81947557D01*
X125974733Y-82082713D01*
X125802713Y-82254733D01*
X125667557Y-82457008D01*
X125574460Y-82681764D01*
X125527000Y-82920363D01*
X125527000Y-83163637D01*
X125574460Y-83402236D01*
X125667557Y-83626992D01*
X125802713Y-83829267D01*
X125974733Y-84001287D01*
X126177008Y-84136443D01*
X126401764Y-84229540D01*
X126640363Y-84277000D01*
X126713422Y-84277000D01*
X127877000Y-85440579D01*
X127876999Y-95661422D01*
X127745421Y-95793000D01*
X127640363Y-95793000D01*
X127401764Y-95840460D01*
X127177008Y-95933557D01*
X126974733Y-96068713D01*
X126802713Y-96240733D01*
X126667557Y-96443008D01*
X126574460Y-96667764D01*
X126527000Y-96906363D01*
X126527000Y-97149637D01*
X126574460Y-97388236D01*
X126667557Y-97612992D01*
X126802713Y-97815267D01*
X126974733Y-97987287D01*
X127177008Y-98122443D01*
X127401764Y-98215540D01*
X127640363Y-98263000D01*
X127883637Y-98263000D01*
X128122236Y-98215540D01*
X128346992Y-98122443D01*
X128549267Y-97987287D01*
X128721287Y-97815267D01*
X128856443Y-97612992D01*
X128949540Y-97388236D01*
X128997000Y-97149637D01*
X128997000Y-97044579D01*
X129357049Y-96684530D01*
X129390816Y-96656818D01*
X129501410Y-96522060D01*
X129583588Y-96368314D01*
X129634194Y-96201491D01*
X129646999Y-96071478D01*
X129646999Y-96071468D01*
X129651280Y-96028002D01*
X129646999Y-95984536D01*
X129646999Y-85117468D01*
X129651280Y-85073999D01*
X129646999Y-85030530D01*
X129646999Y-85030522D01*
X129634194Y-84900509D01*
X129583588Y-84733686D01*
X129501410Y-84579940D01*
X129390816Y-84445182D01*
X129357048Y-84417469D01*
X127997578Y-83058000D01*
X130262050Y-80793529D01*
X130295817Y-80765817D01*
X130406411Y-80631059D01*
X130488589Y-80477313D01*
X130539195Y-80310490D01*
X130552000Y-80180477D01*
X130552000Y-80180467D01*
X130556281Y-80137001D01*
X130552000Y-80093535D01*
X130552000Y-79096890D01*
X133178524Y-79096890D01*
X133223175Y-79244099D01*
X133348359Y-79506920D01*
X133522412Y-79740269D01*
X133738645Y-79935178D01*
X133988748Y-80084157D01*
X134263109Y-80181481D01*
X134493000Y-80060814D01*
X134493000Y-78867000D01*
X133299845Y-78867000D01*
X133178524Y-79096890D01*
X130552000Y-79096890D01*
X130552000Y-69882514D01*
X130556010Y-69828026D01*
X130546667Y-69752380D01*
X130539195Y-69676510D01*
X130535994Y-69665958D01*
X130534642Y-69655011D01*
X130510714Y-69582622D01*
X130488589Y-69509687D01*
X130483391Y-69499961D01*
X130479929Y-69489489D01*
X130442342Y-69423163D01*
X130406411Y-69355941D01*
X130399416Y-69347417D01*
X130393978Y-69337822D01*
X130344180Y-69280113D01*
X130295817Y-69221183D01*
X130287289Y-69214184D01*
X130280087Y-69205838D01*
X130220009Y-69158968D01*
X130161059Y-69110589D01*
X130151330Y-69105389D01*
X130142637Y-69098607D01*
X130074546Y-69064347D01*
X130007313Y-69028411D01*
X129955021Y-69012548D01*
X128389170Y-68408835D01*
X128360313Y-68393411D01*
X128308019Y-68377548D01*
X128297801Y-68373608D01*
X128266452Y-68364938D01*
X128193490Y-68342805D01*
X128182512Y-68341724D01*
X128171886Y-68338785D01*
X128095899Y-68333193D01*
X128063477Y-68330000D01*
X128052506Y-68330000D01*
X127998027Y-68325991D01*
X127965566Y-68330000D01*
X127861554Y-68330000D01*
X127787267Y-68255713D01*
X127584992Y-68120557D01*
X127360236Y-68027460D01*
X127121637Y-67980000D01*
X126878363Y-67980000D01*
X126639764Y-68027460D01*
X126415008Y-68120557D01*
X126212733Y-68255713D01*
X126040713Y-68427733D01*
X125905557Y-68630008D01*
X125812460Y-68854764D01*
X125765000Y-69093363D01*
X125765000Y-69336637D01*
X125812460Y-69575236D01*
X125905557Y-69799992D01*
X126040713Y-70002267D01*
X126212733Y-70174287D01*
X126415008Y-70309443D01*
X126639764Y-70402540D01*
X126878363Y-70450000D01*
X127121637Y-70450000D01*
X127360236Y-70402540D01*
X127584992Y-70309443D01*
X127787267Y-70174287D01*
X127859815Y-70101739D01*
X128782001Y-70457287D01*
X128782000Y-78778648D01*
X128681948Y-78711795D01*
X128493590Y-78633774D01*
X128293631Y-78594000D01*
X128089753Y-78594000D01*
X127889794Y-78633774D01*
X127701436Y-78711795D01*
X127531918Y-78825063D01*
X127487981Y-78869000D01*
X125925711Y-78869000D01*
X125881774Y-78825063D01*
X125712256Y-78711795D01*
X125523898Y-78633774D01*
X125323939Y-78594000D01*
X125120061Y-78594000D01*
X124920102Y-78633774D01*
X124731744Y-78711795D01*
X124562226Y-78825063D01*
X124418063Y-78969226D01*
X124304795Y-79138744D01*
X124226774Y-79327102D01*
X124187000Y-79527061D01*
X123387938Y-79527061D01*
X123387938Y-77314123D01*
X123431875Y-77270186D01*
X123545143Y-77100668D01*
X123623164Y-76912310D01*
X123662938Y-76712351D01*
X123662938Y-76508473D01*
X123623164Y-76308514D01*
X123545143Y-76120156D01*
X123431875Y-75950638D01*
X123287712Y-75806475D01*
X123118194Y-75693207D01*
X122929836Y-75615186D01*
X122729877Y-75575412D01*
X122553000Y-75575412D01*
X122553000Y-75428063D01*
X122694502Y-75369451D01*
X122864020Y-75256183D01*
X123008183Y-75112020D01*
X123121451Y-74942502D01*
X123199472Y-74754144D01*
X123239246Y-74554185D01*
X123239246Y-74350307D01*
X123199472Y-74150348D01*
X123121451Y-73961990D01*
X123008183Y-73792472D01*
X122864020Y-73648309D01*
X122694502Y-73535041D01*
X122506144Y-73457020D01*
X122306185Y-73417246D01*
X122193861Y-73417246D01*
X122536490Y-73028934D01*
X122548817Y-73018817D01*
X122594075Y-72963671D01*
X122612371Y-72942935D01*
X122621640Y-72930083D01*
X122659411Y-72884059D01*
X122672522Y-72859530D01*
X122688789Y-72836974D01*
X122713523Y-72782822D01*
X122741589Y-72730313D01*
X122749664Y-72703695D01*
X122761216Y-72678402D01*
X122774908Y-72620476D01*
X122792195Y-72563490D01*
X122794921Y-72535809D01*
X122801318Y-72508747D01*
X122803446Y-72449259D01*
X122805000Y-72433477D01*
X122805000Y-72405799D01*
X122807549Y-72334529D01*
X122805000Y-72318793D01*
X122805000Y-71232578D01*
X125817049Y-68220530D01*
X125850817Y-68192817D01*
X125961411Y-68058059D01*
X126043589Y-67904313D01*
X126094195Y-67737490D01*
X126107000Y-67607477D01*
X126107000Y-67607467D01*
X126111281Y-67564001D01*
X126107000Y-67520535D01*
X126107000Y-63345554D01*
X126181287Y-63271267D01*
X126200843Y-63242000D01*
X129330901Y-63242000D01*
X133131928Y-68719954D01*
G37*
X133131928Y-68719954D02*
X133131928Y-69430000D01*
X133144188Y-69554482D01*
X133180498Y-69674180D01*
X133239463Y-69784494D01*
X133318815Y-69881185D01*
X133415506Y-69960537D01*
X133525820Y-70019502D01*
X133598380Y-70041513D01*
X133466525Y-70173368D01*
X133304010Y-70416589D01*
X133192068Y-70686842D01*
X133135000Y-70973740D01*
X133135000Y-71266260D01*
X133192068Y-71553158D01*
X133304010Y-71823411D01*
X133466525Y-72066632D01*
X133673368Y-72273475D01*
X133847760Y-72390000D01*
X133673368Y-72506525D01*
X133466525Y-72713368D01*
X133304010Y-72956589D01*
X133192068Y-73226842D01*
X133135000Y-73513740D01*
X133135000Y-73806260D01*
X133192068Y-74093158D01*
X133304010Y-74363411D01*
X133466525Y-74606632D01*
X133673368Y-74813475D01*
X133847760Y-74930000D01*
X133673368Y-75046525D01*
X133466525Y-75253368D01*
X133304010Y-75496589D01*
X133192068Y-75766842D01*
X133135000Y-76053740D01*
X133135000Y-76346260D01*
X133192068Y-76633158D01*
X133304010Y-76903411D01*
X133466525Y-77146632D01*
X133673368Y-77353475D01*
X133855534Y-77475195D01*
X133738645Y-77544822D01*
X133522412Y-77739731D01*
X133348359Y-77973080D01*
X133223175Y-78235901D01*
X133178524Y-78383110D01*
X133299845Y-78613000D01*
X134493000Y-78613000D01*
X134493000Y-78593000D01*
X134747000Y-78593000D01*
X134747000Y-78613000D01*
X134767000Y-78613000D01*
X134767000Y-78867000D01*
X134747000Y-78867000D01*
X134747000Y-80060814D01*
X134976891Y-80181481D01*
X135251252Y-80084157D01*
X135501355Y-79935178D01*
X135717588Y-79740269D01*
X135891641Y-79506920D01*
X135960000Y-79363401D01*
X135960000Y-80826112D01*
X135921185Y-80778815D01*
X135824494Y-80699463D01*
X135714180Y-80640498D01*
X135594482Y-80604188D01*
X135470000Y-80591928D01*
X133770000Y-80591928D01*
X133645518Y-80604188D01*
X133525820Y-80640498D01*
X133415506Y-80699463D01*
X133318815Y-80778815D01*
X133239463Y-80875506D01*
X133180498Y-80985820D01*
X133144188Y-81105518D01*
X133131928Y-81230000D01*
X133131928Y-82930000D01*
X133144188Y-83054482D01*
X133180498Y-83174180D01*
X133239463Y-83284494D01*
X133318815Y-83381185D01*
X133415506Y-83460537D01*
X133525820Y-83519502D01*
X133598380Y-83541513D01*
X133466525Y-83673368D01*
X133304010Y-83916589D01*
X133192068Y-84186842D01*
X133135000Y-84473740D01*
X133135000Y-84766260D01*
X133192068Y-85053158D01*
X133304010Y-85323411D01*
X133466525Y-85566632D01*
X133673368Y-85773475D01*
X133847760Y-85890000D01*
X133673368Y-86006525D01*
X133466525Y-86213368D01*
X133304010Y-86456589D01*
X133192068Y-86726842D01*
X133135000Y-87013740D01*
X133135000Y-87306260D01*
X133192068Y-87593158D01*
X133304010Y-87863411D01*
X133466525Y-88106632D01*
X133673368Y-88313475D01*
X133847760Y-88430000D01*
X133673368Y-88546525D01*
X133466525Y-88753368D01*
X133304010Y-88996589D01*
X133192068Y-89266842D01*
X133135000Y-89553740D01*
X133135000Y-89846260D01*
X133192068Y-90133158D01*
X133304010Y-90403411D01*
X133466525Y-90646632D01*
X133673368Y-90853475D01*
X133855534Y-90975195D01*
X133738645Y-91044822D01*
X133522412Y-91239731D01*
X133348359Y-91473080D01*
X133223175Y-91735901D01*
X133178524Y-91883110D01*
X133299845Y-92113000D01*
X134493000Y-92113000D01*
X134493000Y-92093000D01*
X134747000Y-92093000D01*
X134747000Y-92113000D01*
X134767000Y-92113000D01*
X134767000Y-92367000D01*
X134747000Y-92367000D01*
X134747000Y-92387000D01*
X134493000Y-92387000D01*
X134493000Y-92367000D01*
X133299845Y-92367000D01*
X133178524Y-92596890D01*
X133223175Y-92744099D01*
X133348359Y-93006920D01*
X133522412Y-93240269D01*
X133721806Y-93420000D01*
X132652419Y-93420000D01*
X132620000Y-93416807D01*
X132587581Y-93420000D01*
X132490617Y-93429550D01*
X132366207Y-93467290D01*
X132251550Y-93528575D01*
X132151052Y-93611052D01*
X132068575Y-93711550D01*
X132007290Y-93826207D01*
X131969550Y-93950617D01*
X131956807Y-94080000D01*
X131960000Y-94112418D01*
X131960001Y-101420000D01*
X107280000Y-101420000D01*
X107280000Y-96638238D01*
X109641080Y-98999319D01*
X109692286Y-99061714D01*
X109941248Y-99266031D01*
X110075167Y-99337612D01*
X110225285Y-99417852D01*
X110533483Y-99511343D01*
X110854000Y-99542911D01*
X110934322Y-99535000D01*
X112062309Y-99535000D01*
X112262562Y-99834700D01*
X112685300Y-100257438D01*
X113182388Y-100589582D01*
X113734723Y-100818367D01*
X114321079Y-100935000D01*
X114918921Y-100935000D01*
X115505277Y-100818367D01*
X116057612Y-100589582D01*
X116554700Y-100257438D01*
X116977438Y-99834700D01*
X117309582Y-99337612D01*
X117538367Y-98785277D01*
X117655000Y-98198921D01*
X117655000Y-97601079D01*
X117575676Y-97202285D01*
X117785000Y-97202285D01*
X117785000Y-97957715D01*
X117932377Y-98698628D01*
X118221467Y-99396554D01*
X118641161Y-100024670D01*
X119175330Y-100558839D01*
X119803446Y-100978533D01*
X120501372Y-101267623D01*
X121242285Y-101415000D01*
X121997715Y-101415000D01*
X122738628Y-101267623D01*
X123436554Y-100978533D01*
X124064670Y-100558839D01*
X124598839Y-100024670D01*
X125018533Y-99396554D01*
X125307623Y-98698628D01*
X125455000Y-97957715D01*
X125455000Y-97202285D01*
X125307623Y-96461372D01*
X125018533Y-95763446D01*
X124598839Y-95135330D01*
X124064670Y-94601161D01*
X123436554Y-94181467D01*
X122738628Y-93892377D01*
X121997715Y-93745000D01*
X121242285Y-93745000D01*
X120501372Y-93892377D01*
X119803446Y-94181467D01*
X119175330Y-94601161D01*
X118641161Y-95135330D01*
X118221467Y-95763446D01*
X117932377Y-96461372D01*
X117785000Y-97202285D01*
X117575676Y-97202285D01*
X117538367Y-97014723D01*
X117503346Y-96930176D01*
X117525000Y-96710322D01*
X117525000Y-96710320D01*
X117532911Y-96630001D01*
X117525000Y-96549681D01*
X117525000Y-90854678D01*
X117501343Y-90614484D01*
X117407852Y-90306285D01*
X117256031Y-90022248D01*
X117253131Y-90018714D01*
X117229502Y-89940820D01*
X117170537Y-89830506D01*
X117091185Y-89733815D01*
X116994494Y-89654463D01*
X116884180Y-89595498D01*
X116806284Y-89571869D01*
X116802751Y-89568969D01*
X116518714Y-89417148D01*
X116499960Y-89411459D01*
X116546043Y-89392371D01*
X116772886Y-89240799D01*
X116963685Y-89050000D01*
X117531531Y-89050000D01*
X117575000Y-89054281D01*
X117618469Y-89050000D01*
X117618477Y-89050000D01*
X117748490Y-89037195D01*
X117915313Y-88986589D01*
X118069059Y-88904411D01*
X118203817Y-88793817D01*
X118231534Y-88760044D01*
X118705045Y-88286533D01*
X118738817Y-88258817D01*
X118849411Y-88124059D01*
X118931589Y-87970313D01*
X118982195Y-87803490D01*
X118995000Y-87673477D01*
X118995000Y-87673467D01*
X118999281Y-87630001D01*
X118995000Y-87586535D01*
X118995000Y-77042622D01*
X119491921Y-76479444D01*
X119567540Y-76662003D01*
X119680808Y-76831521D01*
X119724746Y-76875459D01*
X119724745Y-82220422D01*
X119721069Y-82257745D01*
X119724745Y-82295067D01*
X119724745Y-82295077D01*
X119735742Y-82406730D01*
X119767600Y-82511753D01*
X119779199Y-82549991D01*
X119849771Y-82682021D01*
X119865911Y-82701687D01*
X119944744Y-82797746D01*
X119973747Y-82821548D01*
X119996000Y-82843801D01*
X119996000Y-82905939D01*
X120035774Y-83105898D01*
X120113795Y-83294256D01*
X120227063Y-83463774D01*
X120371226Y-83607937D01*
X120540744Y-83721205D01*
X120729102Y-83799226D01*
X120760078Y-83805388D01*
X120797774Y-83994898D01*
X120875795Y-84183256D01*
X120989063Y-84352774D01*
X121133226Y-84496937D01*
X121302744Y-84610205D01*
X121491102Y-84688226D01*
X121691061Y-84728000D01*
X121867938Y-84728000D01*
X121867938Y-86078847D01*
X120657640Y-87289146D01*
X120628642Y-87312944D01*
X120604844Y-87341942D01*
X120604843Y-87341943D01*
X120533668Y-87428669D01*
X120463096Y-87560699D01*
X120432822Y-87660503D01*
X120427546Y-87677898D01*
X120419640Y-87703960D01*
X120404966Y-87852945D01*
X120408643Y-87890277D01*
X120408643Y-88136877D01*
X120364705Y-88180815D01*
X120251437Y-88350333D01*
X120173416Y-88538691D01*
X120133642Y-88738650D01*
X120133642Y-88942528D01*
X120173416Y-89142487D01*
X120251437Y-89330845D01*
X120364705Y-89500363D01*
X120508868Y-89644526D01*
X120678386Y-89757794D01*
X120866744Y-89835815D01*
X121066703Y-89875589D01*
X121270581Y-89875589D01*
X121470540Y-89835815D01*
X121658898Y-89757794D01*
X121828416Y-89644526D01*
X121972579Y-89500363D01*
X122049000Y-89385990D01*
X122049000Y-89466289D01*
X122005063Y-89510226D01*
X121891795Y-89679744D01*
X121813774Y-89868102D01*
X121774000Y-90068061D01*
X121774000Y-90271939D01*
X121813774Y-90471898D01*
X121891795Y-90660256D01*
X122005063Y-90829774D01*
X122149226Y-90973937D01*
X122318744Y-91087205D01*
X122507102Y-91165226D01*
X122707061Y-91205000D01*
X122910939Y-91205000D01*
X123110898Y-91165226D01*
X123299256Y-91087205D01*
X123468774Y-90973937D01*
X123612937Y-90829774D01*
X123726205Y-90660256D01*
X123804226Y-90471898D01*
X123844000Y-90271939D01*
X123844000Y-90068061D01*
X123804226Y-89868102D01*
X123726205Y-89679744D01*
X123612937Y-89510226D01*
X123569000Y-89466289D01*
X123569000Y-88079711D01*
X123612937Y-88035774D01*
X123726205Y-87866256D01*
X123804226Y-87677898D01*
X123844000Y-87477939D01*
X123844000Y-87274061D01*
X123804226Y-87074102D01*
X123726205Y-86885744D01*
X123612937Y-86716226D01*
X123468774Y-86572063D01*
X123379892Y-86512674D01*
X123387938Y-86430982D01*
X123387938Y-86430973D01*
X123391614Y-86393650D01*
X123387938Y-86356327D01*
X123387938Y-79527061D01*
X124187000Y-79527061D01*
X124187000Y-79730939D01*
X124226774Y-79930898D01*
X124304795Y-80119256D01*
X124418063Y-80288774D01*
X124562226Y-80432937D01*
X124731744Y-80546205D01*
X124920102Y-80624226D01*
X125120061Y-80664000D01*
X125323939Y-80664000D01*
X125523898Y-80624226D01*
X125712256Y-80546205D01*
X125881774Y-80432937D01*
X125925711Y-80389000D01*
X127487981Y-80389000D01*
X127531918Y-80432937D01*
X127701436Y-80546205D01*
X127889794Y-80624226D01*
X127921824Y-80630597D01*
X126745422Y-81807000D01*
X126640363Y-81807000D01*
X126401764Y-81854460D01*
X126177008Y-81947557D01*
X125974733Y-82082713D01*
X125802713Y-82254733D01*
X125667557Y-82457008D01*
X125574460Y-82681764D01*
X125527000Y-82920363D01*
X125527000Y-83163637D01*
X125574460Y-83402236D01*
X125667557Y-83626992D01*
X125802713Y-83829267D01*
X125974733Y-84001287D01*
X126177008Y-84136443D01*
X126401764Y-84229540D01*
X126640363Y-84277000D01*
X126713422Y-84277000D01*
X127877000Y-85440579D01*
X127876999Y-95661422D01*
X127745421Y-95793000D01*
X127640363Y-95793000D01*
X127401764Y-95840460D01*
X127177008Y-95933557D01*
X126974733Y-96068713D01*
X126802713Y-96240733D01*
X126667557Y-96443008D01*
X126574460Y-96667764D01*
X126527000Y-96906363D01*
X126527000Y-97149637D01*
X126574460Y-97388236D01*
X126667557Y-97612992D01*
X126802713Y-97815267D01*
X126974733Y-97987287D01*
X127177008Y-98122443D01*
X127401764Y-98215540D01*
X127640363Y-98263000D01*
X127883637Y-98263000D01*
X128122236Y-98215540D01*
X128346992Y-98122443D01*
X128549267Y-97987287D01*
X128721287Y-97815267D01*
X128856443Y-97612992D01*
X128949540Y-97388236D01*
X128997000Y-97149637D01*
X128997000Y-97044579D01*
X129357049Y-96684530D01*
X129390816Y-96656818D01*
X129501410Y-96522060D01*
X129583588Y-96368314D01*
X129634194Y-96201491D01*
X129646999Y-96071478D01*
X129646999Y-96071468D01*
X129651280Y-96028002D01*
X129646999Y-95984536D01*
X129646999Y-85117468D01*
X129651280Y-85073999D01*
X129646999Y-85030530D01*
X129646999Y-85030522D01*
X129634194Y-84900509D01*
X129583588Y-84733686D01*
X129501410Y-84579940D01*
X129390816Y-84445182D01*
X129357048Y-84417469D01*
X127997578Y-83058000D01*
X130262050Y-80793529D01*
X130295817Y-80765817D01*
X130406411Y-80631059D01*
X130488589Y-80477313D01*
X130539195Y-80310490D01*
X130552000Y-80180477D01*
X130552000Y-80180467D01*
X130556281Y-80137001D01*
X130552000Y-80093535D01*
X130552000Y-79096890D01*
X133178524Y-79096890D01*
X133223175Y-79244099D01*
X133348359Y-79506920D01*
X133522412Y-79740269D01*
X133738645Y-79935178D01*
X133988748Y-80084157D01*
X134263109Y-80181481D01*
X134493000Y-80060814D01*
X134493000Y-78867000D01*
X133299845Y-78867000D01*
X133178524Y-79096890D01*
X130552000Y-79096890D01*
X130552000Y-69882514D01*
X130556010Y-69828026D01*
X130546667Y-69752380D01*
X130539195Y-69676510D01*
X130535994Y-69665958D01*
X130534642Y-69655011D01*
X130510714Y-69582622D01*
X130488589Y-69509687D01*
X130483391Y-69499961D01*
X130479929Y-69489489D01*
X130442342Y-69423163D01*
X130406411Y-69355941D01*
X130399416Y-69347417D01*
X130393978Y-69337822D01*
X130344180Y-69280113D01*
X130295817Y-69221183D01*
X130287289Y-69214184D01*
X130280087Y-69205838D01*
X130220009Y-69158968D01*
X130161059Y-69110589D01*
X130151330Y-69105389D01*
X130142637Y-69098607D01*
X130074546Y-69064347D01*
X130007313Y-69028411D01*
X129955021Y-69012548D01*
X128389170Y-68408835D01*
X128360313Y-68393411D01*
X128308019Y-68377548D01*
X128297801Y-68373608D01*
X128266452Y-68364938D01*
X128193490Y-68342805D01*
X128182512Y-68341724D01*
X128171886Y-68338785D01*
X128095899Y-68333193D01*
X128063477Y-68330000D01*
X128052506Y-68330000D01*
X127998027Y-68325991D01*
X127965566Y-68330000D01*
X127861554Y-68330000D01*
X127787267Y-68255713D01*
X127584992Y-68120557D01*
X127360236Y-68027460D01*
X127121637Y-67980000D01*
X126878363Y-67980000D01*
X126639764Y-68027460D01*
X126415008Y-68120557D01*
X126212733Y-68255713D01*
X126040713Y-68427733D01*
X125905557Y-68630008D01*
X125812460Y-68854764D01*
X125765000Y-69093363D01*
X125765000Y-69336637D01*
X125812460Y-69575236D01*
X125905557Y-69799992D01*
X126040713Y-70002267D01*
X126212733Y-70174287D01*
X126415008Y-70309443D01*
X126639764Y-70402540D01*
X126878363Y-70450000D01*
X127121637Y-70450000D01*
X127360236Y-70402540D01*
X127584992Y-70309443D01*
X127787267Y-70174287D01*
X127859815Y-70101739D01*
X128782001Y-70457287D01*
X128782000Y-78778648D01*
X128681948Y-78711795D01*
X128493590Y-78633774D01*
X128293631Y-78594000D01*
X128089753Y-78594000D01*
X127889794Y-78633774D01*
X127701436Y-78711795D01*
X127531918Y-78825063D01*
X127487981Y-78869000D01*
X125925711Y-78869000D01*
X125881774Y-78825063D01*
X125712256Y-78711795D01*
X125523898Y-78633774D01*
X125323939Y-78594000D01*
X125120061Y-78594000D01*
X124920102Y-78633774D01*
X124731744Y-78711795D01*
X124562226Y-78825063D01*
X124418063Y-78969226D01*
X124304795Y-79138744D01*
X124226774Y-79327102D01*
X124187000Y-79527061D01*
X123387938Y-79527061D01*
X123387938Y-77314123D01*
X123431875Y-77270186D01*
X123545143Y-77100668D01*
X123623164Y-76912310D01*
X123662938Y-76712351D01*
X123662938Y-76508473D01*
X123623164Y-76308514D01*
X123545143Y-76120156D01*
X123431875Y-75950638D01*
X123287712Y-75806475D01*
X123118194Y-75693207D01*
X122929836Y-75615186D01*
X122729877Y-75575412D01*
X122553000Y-75575412D01*
X122553000Y-75428063D01*
X122694502Y-75369451D01*
X122864020Y-75256183D01*
X123008183Y-75112020D01*
X123121451Y-74942502D01*
X123199472Y-74754144D01*
X123239246Y-74554185D01*
X123239246Y-74350307D01*
X123199472Y-74150348D01*
X123121451Y-73961990D01*
X123008183Y-73792472D01*
X122864020Y-73648309D01*
X122694502Y-73535041D01*
X122506144Y-73457020D01*
X122306185Y-73417246D01*
X122193861Y-73417246D01*
X122536490Y-73028934D01*
X122548817Y-73018817D01*
X122594075Y-72963671D01*
X122612371Y-72942935D01*
X122621640Y-72930083D01*
X122659411Y-72884059D01*
X122672522Y-72859530D01*
X122688789Y-72836974D01*
X122713523Y-72782822D01*
X122741589Y-72730313D01*
X122749664Y-72703695D01*
X122761216Y-72678402D01*
X122774908Y-72620476D01*
X122792195Y-72563490D01*
X122794921Y-72535809D01*
X122801318Y-72508747D01*
X122803446Y-72449259D01*
X122805000Y-72433477D01*
X122805000Y-72405799D01*
X122807549Y-72334529D01*
X122805000Y-72318793D01*
X122805000Y-71232578D01*
X125817049Y-68220530D01*
X125850817Y-68192817D01*
X125961411Y-68058059D01*
X126043589Y-67904313D01*
X126094195Y-67737490D01*
X126107000Y-67607477D01*
X126107000Y-67607467D01*
X126111281Y-67564001D01*
X126107000Y-67520535D01*
X126107000Y-63345554D01*
X126181287Y-63271267D01*
X126200843Y-63242000D01*
X129330901Y-63242000D01*
X133131928Y-68719954D01*
G36*
X114626372Y-79286489D02*
G01*
X114558225Y-79451011D01*
X114505000Y-79718589D01*
X114505000Y-79991411D01*
X114558225Y-80258989D01*
X114662629Y-80511043D01*
X114814201Y-80737886D01*
X115007114Y-80930799D01*
X115233957Y-81082371D01*
X115486011Y-81186775D01*
X115753589Y-81240000D01*
X115486011Y-81293225D01*
X115233957Y-81397629D01*
X115007114Y-81549201D01*
X114814201Y-81742114D01*
X114662629Y-81968957D01*
X114558225Y-82221011D01*
X114505000Y-82488589D01*
X114505000Y-82761411D01*
X114558225Y-83028989D01*
X114662629Y-83281043D01*
X114814201Y-83507886D01*
X115007114Y-83700799D01*
X115233957Y-83852371D01*
X115486011Y-83956775D01*
X115753589Y-84010000D01*
X115785730Y-84010000D01*
X115547762Y-84046035D01*
X115291168Y-84138723D01*
X115178137Y-84199140D01*
X115112612Y-84438007D01*
X115890000Y-85215395D01*
X116667388Y-84438007D01*
X116601863Y-84199140D01*
X116354884Y-84083240D01*
X116090040Y-84017750D01*
X115921904Y-84010000D01*
X116026411Y-84010000D01*
X116293989Y-83956775D01*
X116546043Y-83852371D01*
X116772886Y-83700799D01*
X116965799Y-83507886D01*
X117117371Y-83281043D01*
X117221775Y-83028989D01*
X117225000Y-83012774D01*
X117225000Y-85014102D01*
X117146277Y-84796168D01*
X117085860Y-84683137D01*
X116846993Y-84617612D01*
X116069605Y-85395000D01*
X116846993Y-86172388D01*
X117085860Y-86106863D01*
X117201760Y-85859884D01*
X117225000Y-85765900D01*
X117225000Y-87263422D01*
X117208422Y-87280000D01*
X116963685Y-87280000D01*
X116772886Y-87089201D01*
X116546043Y-86937629D01*
X116293989Y-86833225D01*
X116026411Y-86780000D01*
X115994270Y-86780000D01*
X116232238Y-86743965D01*
X116488832Y-86651277D01*
X116601863Y-86590860D01*
X116667388Y-86351993D01*
X115890000Y-85574605D01*
X115112612Y-86351993D01*
X115178137Y-86590860D01*
X115425116Y-86706760D01*
X115689960Y-86772250D01*
X115858096Y-86780000D01*
X115753589Y-86780000D01*
X115486011Y-86833225D01*
X115233957Y-86937629D01*
X115007114Y-87089201D01*
X114814201Y-87282114D01*
X114662629Y-87508957D01*
X114558225Y-87761011D01*
X114505000Y-88028589D01*
X114505000Y-88301411D01*
X114558225Y-88568989D01*
X114662629Y-88821043D01*
X114814201Y-89047886D01*
X115007114Y-89240799D01*
X115233957Y-89392371D01*
X115280039Y-89411459D01*
X115261285Y-89417148D01*
X114977248Y-89568969D01*
X114973714Y-89571869D01*
X114895820Y-89595498D01*
X114785506Y-89654463D01*
X114732741Y-89697766D01*
X114735000Y-89686411D01*
X114735000Y-89413589D01*
X114681775Y-89146011D01*
X114577371Y-88893957D01*
X114425799Y-88667114D01*
X114232886Y-88474201D01*
X114006043Y-88322629D01*
X113753989Y-88218225D01*
X113486411Y-88165000D01*
X113753989Y-88111775D01*
X114006043Y-88007371D01*
X114232886Y-87855799D01*
X114425799Y-87662886D01*
X114577371Y-87436043D01*
X114681775Y-87183989D01*
X114735000Y-86916411D01*
X114735000Y-86643589D01*
X114681775Y-86376011D01*
X114577371Y-86123957D01*
X114425799Y-85897114D01*
X114232886Y-85704201D01*
X114006043Y-85552629D01*
X113800504Y-85467492D01*
X114500188Y-85467492D01*
X114541035Y-85737238D01*
X114633723Y-85993832D01*
X114694140Y-86106863D01*
X114933007Y-86172388D01*
X115710395Y-85395000D01*
X114933007Y-84617612D01*
X114694140Y-84683137D01*
X114578240Y-84930116D01*
X114512750Y-85194960D01*
X114500188Y-85467492D01*
X113800504Y-85467492D01*
X113753989Y-85448225D01*
X113486411Y-85395000D01*
X113753989Y-85341775D01*
X114006043Y-85237371D01*
X114232886Y-85085799D01*
X114425799Y-84892886D01*
X114577371Y-84666043D01*
X114681775Y-84413989D01*
X114735000Y-84146411D01*
X114735000Y-83873589D01*
X114681775Y-83606011D01*
X114577371Y-83353957D01*
X114425799Y-83127114D01*
X114232886Y-82934201D01*
X114006043Y-82782629D01*
X113753989Y-82678225D01*
X113486411Y-82625000D01*
X113753989Y-82571775D01*
X114006043Y-82467371D01*
X114232886Y-82315799D01*
X114425799Y-82122886D01*
X114577371Y-81896043D01*
X114681775Y-81643989D01*
X114735000Y-81376411D01*
X114735000Y-81103589D01*
X114681775Y-80836011D01*
X114577371Y-80583957D01*
X114425799Y-80357114D01*
X114232886Y-80164201D01*
X114006043Y-80012629D01*
X113753989Y-79908225D01*
X113486411Y-79855000D01*
X113753989Y-79801775D01*
X114006043Y-79697371D01*
X114232886Y-79545799D01*
X114425799Y-79352886D01*
X114550110Y-79166842D01*
X114626372Y-79286489D01*
G37*
X114626372Y-79286489D02*
X114558225Y-79451011D01*
X114505000Y-79718589D01*
X114505000Y-79991411D01*
X114558225Y-80258989D01*
X114662629Y-80511043D01*
X114814201Y-80737886D01*
X115007114Y-80930799D01*
X115233957Y-81082371D01*
X115486011Y-81186775D01*
X115753589Y-81240000D01*
X115486011Y-81293225D01*
X115233957Y-81397629D01*
X115007114Y-81549201D01*
X114814201Y-81742114D01*
X114662629Y-81968957D01*
X114558225Y-82221011D01*
X114505000Y-82488589D01*
X114505000Y-82761411D01*
X114558225Y-83028989D01*
X114662629Y-83281043D01*
X114814201Y-83507886D01*
X115007114Y-83700799D01*
X115233957Y-83852371D01*
X115486011Y-83956775D01*
X115753589Y-84010000D01*
X115785730Y-84010000D01*
X115547762Y-84046035D01*
X115291168Y-84138723D01*
X115178137Y-84199140D01*
X115112612Y-84438007D01*
X115890000Y-85215395D01*
X116667388Y-84438007D01*
X116601863Y-84199140D01*
X116354884Y-84083240D01*
X116090040Y-84017750D01*
X115921904Y-84010000D01*
X116026411Y-84010000D01*
X116293989Y-83956775D01*
X116546043Y-83852371D01*
X116772886Y-83700799D01*
X116965799Y-83507886D01*
X117117371Y-83281043D01*
X117221775Y-83028989D01*
X117225000Y-83012774D01*
X117225000Y-85014102D01*
X117146277Y-84796168D01*
X117085860Y-84683137D01*
X116846993Y-84617612D01*
X116069605Y-85395000D01*
X116846993Y-86172388D01*
X117085860Y-86106863D01*
X117201760Y-85859884D01*
X117225000Y-85765900D01*
X117225000Y-87263422D01*
X117208422Y-87280000D01*
X116963685Y-87280000D01*
X116772886Y-87089201D01*
X116546043Y-86937629D01*
X116293989Y-86833225D01*
X116026411Y-86780000D01*
X115994270Y-86780000D01*
X116232238Y-86743965D01*
X116488832Y-86651277D01*
X116601863Y-86590860D01*
X116667388Y-86351993D01*
X115890000Y-85574605D01*
X115112612Y-86351993D01*
X115178137Y-86590860D01*
X115425116Y-86706760D01*
X115689960Y-86772250D01*
X115858096Y-86780000D01*
X115753589Y-86780000D01*
X115486011Y-86833225D01*
X115233957Y-86937629D01*
X115007114Y-87089201D01*
X114814201Y-87282114D01*
X114662629Y-87508957D01*
X114558225Y-87761011D01*
X114505000Y-88028589D01*
X114505000Y-88301411D01*
X114558225Y-88568989D01*
X114662629Y-88821043D01*
X114814201Y-89047886D01*
X115007114Y-89240799D01*
X115233957Y-89392371D01*
X115280039Y-89411459D01*
X115261285Y-89417148D01*
X114977248Y-89568969D01*
X114973714Y-89571869D01*
X114895820Y-89595498D01*
X114785506Y-89654463D01*
X114732741Y-89697766D01*
X114735000Y-89686411D01*
X114735000Y-89413589D01*
X114681775Y-89146011D01*
X114577371Y-88893957D01*
X114425799Y-88667114D01*
X114232886Y-88474201D01*
X114006043Y-88322629D01*
X113753989Y-88218225D01*
X113486411Y-88165000D01*
X113753989Y-88111775D01*
X114006043Y-88007371D01*
X114232886Y-87855799D01*
X114425799Y-87662886D01*
X114577371Y-87436043D01*
X114681775Y-87183989D01*
X114735000Y-86916411D01*
X114735000Y-86643589D01*
X114681775Y-86376011D01*
X114577371Y-86123957D01*
X114425799Y-85897114D01*
X114232886Y-85704201D01*
X114006043Y-85552629D01*
X113800504Y-85467492D01*
X114500188Y-85467492D01*
X114541035Y-85737238D01*
X114633723Y-85993832D01*
X114694140Y-86106863D01*
X114933007Y-86172388D01*
X115710395Y-85395000D01*
X114933007Y-84617612D01*
X114694140Y-84683137D01*
X114578240Y-84930116D01*
X114512750Y-85194960D01*
X114500188Y-85467492D01*
X113800504Y-85467492D01*
X113753989Y-85448225D01*
X113486411Y-85395000D01*
X113753989Y-85341775D01*
X114006043Y-85237371D01*
X114232886Y-85085799D01*
X114425799Y-84892886D01*
X114577371Y-84666043D01*
X114681775Y-84413989D01*
X114735000Y-84146411D01*
X114735000Y-83873589D01*
X114681775Y-83606011D01*
X114577371Y-83353957D01*
X114425799Y-83127114D01*
X114232886Y-82934201D01*
X114006043Y-82782629D01*
X113753989Y-82678225D01*
X113486411Y-82625000D01*
X113753989Y-82571775D01*
X114006043Y-82467371D01*
X114232886Y-82315799D01*
X114425799Y-82122886D01*
X114577371Y-81896043D01*
X114681775Y-81643989D01*
X114735000Y-81376411D01*
X114735000Y-81103589D01*
X114681775Y-80836011D01*
X114577371Y-80583957D01*
X114425799Y-80357114D01*
X114232886Y-80164201D01*
X114006043Y-80012629D01*
X113753989Y-79908225D01*
X113486411Y-79855000D01*
X113753989Y-79801775D01*
X114006043Y-79697371D01*
X114232886Y-79545799D01*
X114425799Y-79352886D01*
X114550110Y-79166842D01*
X114626372Y-79286489D01*
M02*
