M48
; DRILL file {KiCad (5.1.5-0-10_14)} date Tuesday, 14 April 2020 at 14:25:21
; FORMAT={-:-/ absolute / inch / decimal}
; #@! TF.CreationDate,2020-04-14T14:25:21+01:00
; #@! TF.GenerationSoftware,Kicad,Pcbnew,(5.1.5-0-10_14)
; #@! TF.FileFunction,Plated,1,2,PTH
FMAT,2
INCH
T1C0.0157
T2C0.0236
T3C0.0394
T4C0.1260
%
G90
G05
T1
X4.35Y-3.6
X4.39Y-2.87
X4.41Y-3.7
X4.73Y-2.85
X4.7435Y-2.9989
X4.765Y-3.26
X4.7704Y-3.4977
X4.795Y-3.295
X4.8112Y-2.9312
X4.8279Y-3.0162
X4.835Y-3.44
X4.835Y-3.55
X4.93Y-3.135
X5.0469Y-3.135
T2
X4.7496Y-3.3944
X4.77Y-3.64
X4.93Y-2.46
X4.9906Y-3.2694
X5.0Y-2.725
X5.03Y-3.82
X5.05Y-2.56
X5.2Y-3.2
X5.2Y-3.5
X5.2Y-2.915
T3
X5.3Y-2.7
X5.3Y-2.8
X5.3Y-2.9
X5.3Y-3.0
X5.3Y-3.1
X5.3Y-2.5685
X5.3Y-3.2315
X5.3Y-3.3315
X5.3Y-3.4315
X5.3Y-3.5315
X5.3Y-3.6315
X4.4626Y-2.8713
X4.4626Y-2.9803
X4.4626Y-3.0894
X4.4626Y-3.1984
X4.4626Y-3.3075
X4.4626Y-3.4165
X4.4626Y-3.5256
X4.5626Y-2.8167
X4.5626Y-2.9258
X4.5626Y-3.0348
X4.5626Y-3.1439
X4.5626Y-3.253
X4.5626Y-3.362
X4.5626Y-3.4711
X4.5626Y-3.5801
T4
X4.7882Y-3.8417
X4.5126Y-2.5425
X4.5126Y-3.8543
T0
M30
